<?xml version="1.0" encoding="utf-8" standalone="no"?>
<!DOCTYPE svg PUBLIC "-//W3C//DTD SVG 1.1//EN"
  "http://www.w3.org/Graphics/SVG/1.1/DTD/svg11.dtd">
<svg xmlns:xlink="http://www.w3.org/1999/xlink" width="684pt" height="233.64pt" viewBox="0 0 684 233.64" xmlns="http://www.w3.org/2000/svg" version="1.1">
 <metadata>
  <rdf:RDF xmlns:dc="http://purl.org/dc/elements/1.1/" xmlns:cc="http://creativecommons.org/ns#" xmlns:rdf="http://www.w3.org/1999/02/22-rdf-syntax-ns#">
   <cc:Work>
    <dc:type rdf:resource="http://purl.org/dc/dcmitype/StillImage"/>
    <dc:date>2026-02-09T17:22:35.123263</dc:date>
    <dc:format>image/svg+xml</dc:format>
    <dc:creator>
     <cc:Agent>
      <dc:title>Matplotlib v3.10.8, https://matplotlib.org/</dc:title>
     </cc:Agent>
    </dc:creator>
   </cc:Work>
  </rdf:RDF>
 </metadata>
 <defs>
  <style type="text/css">*{stroke-linejoin: round; stroke-linecap: butt}</style>
 </defs>
 <g id="figure_1">
  <g id="patch_1">
   <path d="M 0 233.64 
L 684 233.64 
L 684 -0 
L 0 -0 
z
" style="fill: #ffffff"/>
  </g>
  <g id="axes_1">
   <g id="patch_2">
    <path d="M 23.94 199.8288 
L 135.54 199.8288 
Q 142.236 199.8288 142.236 193.176 
L 142.236 71.208 
Q 142.236 64.5552 135.54 64.5552 
L 23.94 64.5552 
Q 17.244 64.5552 17.244 71.208 
L 17.244 193.176 
Q 17.244 199.8288 23.94 199.8288 
z
" clip-path="url(#p0cd9b98fa7)" style="fill: #adb5bd; opacity: 0.9; stroke: #264653; stroke-width: 1.5; stroke-linejoin: miter"/>
   </g>
   <g id="patch_3">
    <path d="M 157.86 199.8288 
L 269.46 199.8288 
Q 276.156 199.8288 276.156 193.176 
L 276.156 71.208 
Q 276.156 64.5552 269.46 64.5552 
L 157.86 64.5552 
Q 151.164 64.5552 151.164 71.208 
L 151.164 193.176 
Q 151.164 199.8288 157.86 199.8288 
z
" clip-path="url(#p0cd9b98fa7)" style="fill: #457b9d; opacity: 0.9; stroke: #264653; stroke-width: 1.5; stroke-linejoin: miter"/>
   </g>
   <g id="patch_4">
    <path d="M 302.94 199.8288 
L 414.54 199.8288 
Q 421.236 199.8288 421.236 193.176 
L 421.236 71.208 
Q 421.236 64.5552 414.54 64.5552 
L 302.94 64.5552 
Q 296.244 64.5552 296.244 71.208 
L 296.244 193.176 
Q 296.244 199.8288 302.94 199.8288 
z
" clip-path="url(#p0cd9b98fa7)" style="fill: #2a9d8f; opacity: 0.9; stroke: #264653; stroke-width: 1.5; stroke-linejoin: miter"/>
   </g>
   <g id="patch_5">
    <path d="M 453.6 199.8288 
L 565.2 199.8288 
Q 571.896 199.8288 571.896 193.176 
L 571.896 71.208 
Q 571.896 64.5552 565.2 64.5552 
L 453.6 64.5552 
Q 446.904 64.5552 446.904 71.208 
L 446.904 193.176 
Q 446.904 199.8288 453.6 199.8288 
z
" clip-path="url(#p0cd9b98fa7)" style="fill: #a8dadc; opacity: 0.9; stroke: #264653; stroke-width: 1.5; stroke-linejoin: miter"/>
   </g>
   <g id="text_1">
    <!-- 1. Input -->
    <g style="fill: #ffffff" transform="translate(57.673594 128.972547) scale(0.1 -0.1)">
     <defs>
      <path id="DejaVuSans-Bold-31" d="M 750 831 
L 1813 831 
L 1813 3847 
L 722 3622 
L 722 4441 
L 1806 4666 
L 2950 4666 
L 2950 831 
L 4013 831 
L 4013 0 
L 750 0 
L 750 831 
z
" transform="scale(0.015625)"/>
      <path id="DejaVuSans-Bold-2e" d="M 653 1209 
L 1778 1209 
L 1778 0 
L 653 0 
L 653 1209 
z
" transform="scale(0.015625)"/>
      <path id="DejaVuSans-Bold-20" transform="scale(0.015625)"/>
      <path id="DejaVuSans-Bold-49" d="M 588 4666 
L 1791 4666 
L 1791 0 
L 588 0 
L 588 4666 
z
" transform="scale(0.015625)"/>
      <path id="DejaVuSans-Bold-6e" d="M 4056 2131 
L 4056 0 
L 2931 0 
L 2931 347 
L 2931 1631 
Q 2931 2084 2911 2256 
Q 2891 2428 2841 2509 
Q 2775 2619 2662 2680 
Q 2550 2741 2406 2741 
Q 2056 2741 1856 2470 
Q 1656 2200 1656 1722 
L 1656 0 
L 538 0 
L 538 3500 
L 1656 3500 
L 1656 2988 
Q 1909 3294 2193 3439 
Q 2478 3584 2822 3584 
Q 3428 3584 3742 3212 
Q 4056 2841 4056 2131 
z
" transform="scale(0.015625)"/>
      <path id="DejaVuSans-Bold-70" d="M 1656 506 
L 1656 -1331 
L 538 -1331 
L 538 3500 
L 1656 3500 
L 1656 2988 
Q 1888 3294 2169 3439 
Q 2450 3584 2816 3584 
Q 3463 3584 3878 3070 
Q 4294 2556 4294 1747 
Q 4294 938 3878 423 
Q 3463 -91 2816 -91 
Q 2450 -91 2169 54 
Q 1888 200 1656 506 
z
M 2400 2772 
Q 2041 2772 1848 2508 
Q 1656 2244 1656 1747 
Q 1656 1250 1848 986 
Q 2041 722 2400 722 
Q 2759 722 2948 984 
Q 3138 1247 3138 1747 
Q 3138 2247 2948 2509 
Q 2759 2772 2400 2772 
z
" transform="scale(0.015625)"/>
      <path id="DejaVuSans-Bold-75" d="M 500 1363 
L 500 3500 
L 1625 3500 
L 1625 3150 
Q 1625 2866 1622 2436 
Q 1619 2006 1619 1863 
Q 1619 1441 1641 1255 
Q 1663 1069 1716 984 
Q 1784 875 1895 815 
Q 2006 756 2150 756 
Q 2500 756 2700 1025 
Q 2900 1294 2900 1772 
L 2900 3500 
L 4019 3500 
L 4019 0 
L 2900 0 
L 2900 506 
Q 2647 200 2364 54 
Q 2081 -91 1741 -91 
Q 1134 -91 817 281 
Q 500 653 500 1363 
z
" transform="scale(0.015625)"/>
      <path id="DejaVuSans-Bold-74" d="M 1759 4494 
L 1759 3500 
L 2913 3500 
L 2913 2700 
L 1759 2700 
L 1759 1216 
Q 1759 972 1856 886 
Q 1953 800 2241 800 
L 2816 800 
L 2816 0 
L 1856 0 
Q 1194 0 917 276 
Q 641 553 641 1216 
L 641 2700 
L 84 2700 
L 84 3500 
L 641 3500 
L 641 4494 
L 1759 4494 
z
" transform="scale(0.015625)"/>
     </defs>
     <use xlink:href="#DejaVuSans-Bold-31"/>
     <use xlink:href="#DejaVuSans-Bold-2e" transform="translate(69.580078 0)"/>
     <use xlink:href="#DejaVuSans-Bold-20" transform="translate(107.568359 0)"/>
     <use xlink:href="#DejaVuSans-Bold-49" transform="translate(142.382812 0)"/>
     <use xlink:href="#DejaVuSans-Bold-6e" transform="translate(179.589844 0)"/>
     <use xlink:href="#DejaVuSans-Bold-70" transform="translate(250.78125 0)"/>
     <use xlink:href="#DejaVuSans-Bold-75" transform="translate(322.363281 0)"/>
     <use xlink:href="#DejaVuSans-Bold-74" transform="translate(393.554688 0)"/>
    </g>
    <!-- Graph -->
    <g style="fill: #ffffff" transform="translate(62.657969 140.930203) scale(0.1 -0.1)">
     <defs>
      <path id="DejaVuSans-Bold-47" d="M 4781 347 
Q 4331 128 3847 18 
Q 3363 -91 2847 -91 
Q 1681 -91 1000 561 
Q 319 1213 319 2328 
Q 319 3456 1012 4103 
Q 1706 4750 2913 4750 
Q 3378 4750 3804 4662 
Q 4231 4575 4609 4403 
L 4609 3438 
Q 4219 3659 3833 3768 
Q 3447 3878 3059 3878 
Q 2341 3878 1952 3476 
Q 1563 3075 1563 2328 
Q 1563 1588 1938 1184 
Q 2313 781 3003 781 
Q 3191 781 3352 804 
Q 3513 828 3641 878 
L 3641 1784 
L 2906 1784 
L 2906 2591 
L 4781 2591 
L 4781 347 
z
" transform="scale(0.015625)"/>
      <path id="DejaVuSans-Bold-72" d="M 3138 2547 
Q 2991 2616 2845 2648 
Q 2700 2681 2553 2681 
Q 2122 2681 1889 2404 
Q 1656 2128 1656 1613 
L 1656 0 
L 538 0 
L 538 3500 
L 1656 3500 
L 1656 2925 
Q 1872 3269 2151 3426 
Q 2431 3584 2822 3584 
Q 2878 3584 2943 3579 
Q 3009 3575 3134 3559 
L 3138 2547 
z
" transform="scale(0.015625)"/>
      <path id="DejaVuSans-Bold-61" d="M 2106 1575 
Q 1756 1575 1579 1456 
Q 1403 1338 1403 1106 
Q 1403 894 1545 773 
Q 1688 653 1941 653 
Q 2256 653 2472 879 
Q 2688 1106 2688 1447 
L 2688 1575 
L 2106 1575 
z
M 3816 1997 
L 3816 0 
L 2688 0 
L 2688 519 
Q 2463 200 2181 54 
Q 1900 -91 1497 -91 
Q 953 -91 614 226 
Q 275 544 275 1050 
Q 275 1666 698 1953 
Q 1122 2241 2028 2241 
L 2688 2241 
L 2688 2328 
Q 2688 2594 2478 2717 
Q 2269 2841 1825 2841 
Q 1466 2841 1156 2769 
Q 847 2697 581 2553 
L 581 3406 
Q 941 3494 1303 3539 
Q 1666 3584 2028 3584 
Q 2975 3584 3395 3211 
Q 3816 2838 3816 1997 
z
" transform="scale(0.015625)"/>
      <path id="DejaVuSans-Bold-68" d="M 4056 2131 
L 4056 0 
L 2931 0 
L 2931 347 
L 2931 1625 
Q 2931 2084 2911 2256 
Q 2891 2428 2841 2509 
Q 2775 2619 2662 2680 
Q 2550 2741 2406 2741 
Q 2056 2741 1856 2470 
Q 1656 2200 1656 1722 
L 1656 0 
L 538 0 
L 538 4863 
L 1656 4863 
L 1656 2988 
Q 1909 3294 2193 3439 
Q 2478 3584 2822 3584 
Q 3428 3584 3742 3212 
Q 4056 2841 4056 2131 
z
" transform="scale(0.015625)"/>
     </defs>
     <use xlink:href="#DejaVuSans-Bold-47"/>
     <use xlink:href="#DejaVuSans-Bold-72" transform="translate(82.080078 0)"/>
     <use xlink:href="#DejaVuSans-Bold-61" transform="translate(131.396484 0)"/>
     <use xlink:href="#DejaVuSans-Bold-70" transform="translate(198.876953 0)"/>
     <use xlink:href="#DejaVuSans-Bold-68" transform="translate(270.458984 0)"/>
    </g>
   </g>
   <g id="text_2">
    <!-- 2. GVE-Leiden -->
    <g style="fill: #ffffff" transform="translate(174.256094 122.954656) scale(0.1 -0.1)">
     <defs>
      <path id="DejaVuSans-Bold-32" d="M 1844 884 
L 3897 884 
L 3897 0 
L 506 0 
L 506 884 
L 2209 2388 
Q 2438 2594 2547 2791 
Q 2656 2988 2656 3200 
Q 2656 3528 2436 3728 
Q 2216 3928 1850 3928 
Q 1569 3928 1234 3808 
Q 900 3688 519 3450 
L 519 4475 
Q 925 4609 1322 4679 
Q 1719 4750 2100 4750 
Q 2938 4750 3402 4381 
Q 3866 4013 3866 3353 
Q 3866 2972 3669 2642 
Q 3472 2313 2841 1759 
L 1844 884 
z
" transform="scale(0.015625)"/>
      <path id="DejaVuSans-Bold-56" d="M 31 4666 
L 1241 4666 
L 2478 1222 
L 3713 4666 
L 4922 4666 
L 3194 0 
L 1759 0 
L 31 4666 
z
" transform="scale(0.015625)"/>
      <path id="DejaVuSans-Bold-45" d="M 588 4666 
L 3834 4666 
L 3834 3756 
L 1791 3756 
L 1791 2888 
L 3713 2888 
L 3713 1978 
L 1791 1978 
L 1791 909 
L 3903 909 
L 3903 0 
L 588 0 
L 588 4666 
z
" transform="scale(0.015625)"/>
      <path id="DejaVuSans-Bold-2d" d="M 347 2297 
L 2309 2297 
L 2309 1388 
L 347 1388 
L 347 2297 
z
" transform="scale(0.015625)"/>
      <path id="DejaVuSans-Bold-4c" d="M 588 4666 
L 1791 4666 
L 1791 909 
L 3903 909 
L 3903 0 
L 588 0 
L 588 4666 
z
" transform="scale(0.015625)"/>
      <path id="DejaVuSans-Bold-65" d="M 4031 1759 
L 4031 1441 
L 1416 1441 
Q 1456 1047 1700 850 
Q 1944 653 2381 653 
Q 2734 653 3104 758 
Q 3475 863 3866 1075 
L 3866 213 
Q 3469 63 3072 -14 
Q 2675 -91 2278 -91 
Q 1328 -91 801 392 
Q 275 875 275 1747 
Q 275 2603 792 3093 
Q 1309 3584 2216 3584 
Q 3041 3584 3536 3087 
Q 4031 2591 4031 1759 
z
M 2881 2131 
Q 2881 2450 2695 2645 
Q 2509 2841 2209 2841 
Q 1884 2841 1681 2658 
Q 1478 2475 1428 2131 
L 2881 2131 
z
" transform="scale(0.015625)"/>
      <path id="DejaVuSans-Bold-69" d="M 538 3500 
L 1656 3500 
L 1656 0 
L 538 0 
L 538 3500 
z
M 538 4863 
L 1656 4863 
L 1656 3950 
L 538 3950 
L 538 4863 
z
" transform="scale(0.015625)"/>
      <path id="DejaVuSans-Bold-64" d="M 2919 2988 
L 2919 4863 
L 4044 4863 
L 4044 0 
L 2919 0 
L 2919 506 
Q 2688 197 2409 53 
Q 2131 -91 1766 -91 
Q 1119 -91 703 423 
Q 288 938 288 1747 
Q 288 2556 703 3070 
Q 1119 3584 1766 3584 
Q 2128 3584 2408 3439 
Q 2688 3294 2919 2988 
z
M 2181 722 
Q 2541 722 2730 984 
Q 2919 1247 2919 1747 
Q 2919 2247 2730 2509 
Q 2541 2772 2181 2772 
Q 1825 2772 1636 2509 
Q 1447 2247 1447 1747 
Q 1447 1247 1636 984 
Q 1825 722 2181 722 
z
" transform="scale(0.015625)"/>
     </defs>
     <use xlink:href="#DejaVuSans-Bold-32"/>
     <use xlink:href="#DejaVuSans-Bold-2e" transform="translate(69.580078 0)"/>
     <use xlink:href="#DejaVuSans-Bold-20" transform="translate(107.568359 0)"/>
     <use xlink:href="#DejaVuSans-Bold-47" transform="translate(142.382812 0)"/>
     <use xlink:href="#DejaVuSans-Bold-56" transform="translate(224.462891 0)"/>
     <use xlink:href="#DejaVuSans-Bold-45" transform="translate(301.855469 0)"/>
     <use xlink:href="#DejaVuSans-Bold-2d" transform="translate(370.166016 0)"/>
     <use xlink:href="#DejaVuSans-Bold-4c" transform="translate(411.669922 0)"/>
     <use xlink:href="#DejaVuSans-Bold-65" transform="translate(475.390625 0)"/>
     <use xlink:href="#DejaVuSans-Bold-69" transform="translate(543.212891 0)"/>
     <use xlink:href="#DejaVuSans-Bold-64" transform="translate(577.490234 0)"/>
     <use xlink:href="#DejaVuSans-Bold-65" transform="translate(649.072266 0)"/>
     <use xlink:href="#DejaVuSans-Bold-6e" transform="translate(716.894531 0)"/>
    </g>
    <!-- Community -->
    <g style="fill: #ffffff" transform="translate(181.652969 134.912312) scale(0.1 -0.1)">
     <defs>
      <path id="DejaVuSans-Bold-43" d="M 4288 256 
Q 3956 84 3597 -3 
Q 3238 -91 2847 -91 
Q 1681 -91 1000 561 
Q 319 1213 319 2328 
Q 319 3447 1000 4098 
Q 1681 4750 2847 4750 
Q 3238 4750 3597 4662 
Q 3956 4575 4288 4403 
L 4288 3438 
Q 3953 3666 3628 3772 
Q 3303 3878 2944 3878 
Q 2300 3878 1931 3465 
Q 1563 3053 1563 2328 
Q 1563 1606 1931 1193 
Q 2300 781 2944 781 
Q 3303 781 3628 887 
Q 3953 994 4288 1222 
L 4288 256 
z
" transform="scale(0.015625)"/>
      <path id="DejaVuSans-Bold-6f" d="M 2203 2784 
Q 1831 2784 1636 2517 
Q 1441 2250 1441 1747 
Q 1441 1244 1636 976 
Q 1831 709 2203 709 
Q 2569 709 2762 976 
Q 2956 1244 2956 1747 
Q 2956 2250 2762 2517 
Q 2569 2784 2203 2784 
z
M 2203 3584 
Q 3106 3584 3614 3096 
Q 4122 2609 4122 1747 
Q 4122 884 3614 396 
Q 3106 -91 2203 -91 
Q 1297 -91 786 396 
Q 275 884 275 1747 
Q 275 2609 786 3096 
Q 1297 3584 2203 3584 
z
" transform="scale(0.015625)"/>
      <path id="DejaVuSans-Bold-6d" d="M 3781 2919 
Q 3994 3244 4286 3414 
Q 4578 3584 4928 3584 
Q 5531 3584 5847 3212 
Q 6163 2841 6163 2131 
L 6163 0 
L 5038 0 
L 5038 1825 
Q 5041 1866 5042 1909 
Q 5044 1953 5044 2034 
Q 5044 2406 4934 2573 
Q 4825 2741 4581 2741 
Q 4263 2741 4089 2478 
Q 3916 2216 3909 1719 
L 3909 0 
L 2784 0 
L 2784 1825 
Q 2784 2406 2684 2573 
Q 2584 2741 2328 2741 
Q 2006 2741 1831 2477 
Q 1656 2213 1656 1722 
L 1656 0 
L 531 0 
L 531 3500 
L 1656 3500 
L 1656 2988 
Q 1863 3284 2130 3434 
Q 2397 3584 2719 3584 
Q 3081 3584 3359 3409 
Q 3638 3234 3781 2919 
z
" transform="scale(0.015625)"/>
      <path id="DejaVuSans-Bold-79" d="M 78 3500 
L 1197 3500 
L 2138 1125 
L 2938 3500 
L 4056 3500 
L 2584 -331 
Q 2363 -916 2067 -1148 
Q 1772 -1381 1288 -1381 
L 641 -1381 
L 641 -647 
L 991 -647 
Q 1275 -647 1404 -556 
Q 1534 -466 1606 -231 
L 1638 -134 
L 78 3500 
z
" transform="scale(0.015625)"/>
     </defs>
     <use xlink:href="#DejaVuSans-Bold-43"/>
     <use xlink:href="#DejaVuSans-Bold-6f" transform="translate(73.388672 0)"/>
     <use xlink:href="#DejaVuSans-Bold-6d" transform="translate(142.089844 0)"/>
     <use xlink:href="#DejaVuSans-Bold-6d" transform="translate(246.289062 0)"/>
     <use xlink:href="#DejaVuSans-Bold-75" transform="translate(350.488281 0)"/>
     <use xlink:href="#DejaVuSans-Bold-6e" transform="translate(421.679688 0)"/>
     <use xlink:href="#DejaVuSans-Bold-69" transform="translate(492.871094 0)"/>
     <use xlink:href="#DejaVuSans-Bold-74" transform="translate(527.148438 0)"/>
     <use xlink:href="#DejaVuSans-Bold-79" transform="translate(574.951172 0)"/>
    </g>
    <!-- Detection -->
    <g style="fill: #ffffff" transform="translate(186.274063 146.948094) scale(0.1 -0.1)">
     <defs>
      <path id="DejaVuSans-Bold-44" d="M 1791 3756 
L 1791 909 
L 2222 909 
Q 2959 909 3348 1275 
Q 3738 1641 3738 2338 
Q 3738 3031 3350 3393 
Q 2963 3756 2222 3756 
L 1791 3756 
z
M 588 4666 
L 1856 4666 
Q 2919 4666 3439 4514 
Q 3959 4363 4331 4000 
Q 4659 3684 4818 3271 
Q 4978 2859 4978 2338 
Q 4978 1809 4818 1395 
Q 4659 981 4331 666 
Q 3956 303 3431 151 
Q 2906 0 1856 0 
L 588 0 
L 588 4666 
z
" transform="scale(0.015625)"/>
      <path id="DejaVuSans-Bold-63" d="M 3366 3391 
L 3366 2478 
Q 3138 2634 2908 2709 
Q 2678 2784 2431 2784 
Q 1963 2784 1702 2511 
Q 1441 2238 1441 1747 
Q 1441 1256 1702 982 
Q 1963 709 2431 709 
Q 2694 709 2930 787 
Q 3166 866 3366 1019 
L 3366 103 
Q 3103 6 2833 -42 
Q 2563 -91 2291 -91 
Q 1344 -91 809 395 
Q 275 881 275 1747 
Q 275 2613 809 3098 
Q 1344 3584 2291 3584 
Q 2566 3584 2833 3536 
Q 3100 3488 3366 3391 
z
" transform="scale(0.015625)"/>
     </defs>
     <use xlink:href="#DejaVuSans-Bold-44"/>
     <use xlink:href="#DejaVuSans-Bold-65" transform="translate(83.007812 0)"/>
     <use xlink:href="#DejaVuSans-Bold-74" transform="translate(150.830078 0)"/>
     <use xlink:href="#DejaVuSans-Bold-65" transform="translate(198.632812 0)"/>
     <use xlink:href="#DejaVuSans-Bold-63" transform="translate(266.455078 0)"/>
     <use xlink:href="#DejaVuSans-Bold-74" transform="translate(325.732422 0)"/>
     <use xlink:href="#DejaVuSans-Bold-69" transform="translate(373.535156 0)"/>
     <use xlink:href="#DejaVuSans-Bold-6f" transform="translate(407.8125 0)"/>
     <use xlink:href="#DejaVuSans-Bold-6e" transform="translate(476.513672 0)"/>
    </g>
   </g>
   <g id="text_3">
    <!-- 3. Sort by -->
    <g style="fill: #ffffff" transform="translate(331.150937 122.876531) scale(0.1 -0.1)">
     <defs>
      <path id="DejaVuSans-Bold-33" d="M 2981 2516 
Q 3453 2394 3698 2092 
Q 3944 1791 3944 1325 
Q 3944 631 3412 270 
Q 2881 -91 1863 -91 
Q 1503 -91 1142 -33 
Q 781 25 428 141 
L 428 1069 
Q 766 900 1098 814 
Q 1431 728 1753 728 
Q 2231 728 2486 893 
Q 2741 1059 2741 1369 
Q 2741 1688 2480 1852 
Q 2219 2016 1709 2016 
L 1228 2016 
L 1228 2791 
L 1734 2791 
Q 2188 2791 2409 2933 
Q 2631 3075 2631 3366 
Q 2631 3634 2415 3781 
Q 2200 3928 1806 3928 
Q 1516 3928 1219 3862 
Q 922 3797 628 3669 
L 628 4550 
Q 984 4650 1334 4700 
Q 1684 4750 2022 4750 
Q 2931 4750 3382 4451 
Q 3834 4153 3834 3553 
Q 3834 3144 3618 2883 
Q 3403 2622 2981 2516 
z
" transform="scale(0.015625)"/>
      <path id="DejaVuSans-Bold-53" d="M 3834 4519 
L 3834 3531 
Q 3450 3703 3084 3790 
Q 2719 3878 2394 3878 
Q 1963 3878 1756 3759 
Q 1550 3641 1550 3391 
Q 1550 3203 1689 3098 
Q 1828 2994 2194 2919 
L 2706 2816 
Q 3484 2659 3812 2340 
Q 4141 2022 4141 1434 
Q 4141 663 3683 286 
Q 3225 -91 2284 -91 
Q 1841 -91 1394 -6 
Q 947 78 500 244 
L 500 1259 
Q 947 1022 1364 901 
Q 1781 781 2169 781 
Q 2563 781 2772 912 
Q 2981 1044 2981 1288 
Q 2981 1506 2839 1625 
Q 2697 1744 2272 1838 
L 1806 1941 
Q 1106 2091 782 2419 
Q 459 2747 459 3303 
Q 459 4000 909 4375 
Q 1359 4750 2203 4750 
Q 2588 4750 2994 4692 
Q 3400 4634 3834 4519 
z
" transform="scale(0.015625)"/>
      <path id="DejaVuSans-Bold-62" d="M 2400 722 
Q 2759 722 2948 984 
Q 3138 1247 3138 1747 
Q 3138 2247 2948 2509 
Q 2759 2772 2400 2772 
Q 2041 2772 1848 2508 
Q 1656 2244 1656 1747 
Q 1656 1250 1848 986 
Q 2041 722 2400 722 
z
M 1656 2988 
Q 1888 3294 2169 3439 
Q 2450 3584 2816 3584 
Q 3463 3584 3878 3070 
Q 4294 2556 4294 1747 
Q 4294 938 3878 423 
Q 3463 -91 2816 -91 
Q 2450 -91 2169 54 
Q 1888 200 1656 506 
L 1656 0 
L 538 0 
L 538 4863 
L 1656 4863 
L 1656 2988 
z
" transform="scale(0.015625)"/>
     </defs>
     <use xlink:href="#DejaVuSans-Bold-33"/>
     <use xlink:href="#DejaVuSans-Bold-2e" transform="translate(69.580078 0)"/>
     <use xlink:href="#DejaVuSans-Bold-20" transform="translate(107.568359 0)"/>
     <use xlink:href="#DejaVuSans-Bold-53" transform="translate(142.382812 0)"/>
     <use xlink:href="#DejaVuSans-Bold-6f" transform="translate(214.404297 0)"/>
     <use xlink:href="#DejaVuSans-Bold-72" transform="translate(283.105469 0)"/>
     <use xlink:href="#DejaVuSans-Bold-74" transform="translate(332.421875 0)"/>
     <use xlink:href="#DejaVuSans-Bold-20" transform="translate(380.224609 0)"/>
     <use xlink:href="#DejaVuSans-Bold-62" transform="translate(415.039062 0)"/>
     <use xlink:href="#DejaVuSans-Bold-79" transform="translate(486.621094 0)"/>
    </g>
    <!-- Community -->
    <g style="fill: #ffffff" transform="translate(326.732969 134.912312) scale(0.1 -0.1)">
     <use xlink:href="#DejaVuSans-Bold-43"/>
     <use xlink:href="#DejaVuSans-Bold-6f" transform="translate(73.388672 0)"/>
     <use xlink:href="#DejaVuSans-Bold-6d" transform="translate(142.089844 0)"/>
     <use xlink:href="#DejaVuSans-Bold-6d" transform="translate(246.289062 0)"/>
     <use xlink:href="#DejaVuSans-Bold-75" transform="translate(350.488281 0)"/>
     <use xlink:href="#DejaVuSans-Bold-6e" transform="translate(421.679688 0)"/>
     <use xlink:href="#DejaVuSans-Bold-69" transform="translate(492.871094 0)"/>
     <use xlink:href="#DejaVuSans-Bold-74" transform="translate(527.148438 0)"/>
     <use xlink:href="#DejaVuSans-Bold-79" transform="translate(574.951172 0)"/>
    </g>
    <!-- + Degree -->
    <g style="fill: #ffffff" transform="translate(332.44 146.948094) scale(0.1 -0.1)">
     <defs>
      <path id="DejaVuSans-Bold-2b" d="M 3053 4013 
L 3053 2375 
L 4684 2375 
L 4684 1638 
L 3053 1638 
L 3053 0 
L 2309 0 
L 2309 1638 
L 678 1638 
L 678 2375 
L 2309 2375 
L 2309 4013 
L 3053 4013 
z
" transform="scale(0.015625)"/>
      <path id="DejaVuSans-Bold-67" d="M 2919 594 
Q 2688 288 2409 144 
Q 2131 0 1766 0 
Q 1125 0 706 504 
Q 288 1009 288 1791 
Q 288 2575 706 3076 
Q 1125 3578 1766 3578 
Q 2131 3578 2409 3434 
Q 2688 3291 2919 2981 
L 2919 3500 
L 4044 3500 
L 4044 353 
Q 4044 -491 3511 -936 
Q 2978 -1381 1966 -1381 
Q 1638 -1381 1331 -1331 
Q 1025 -1281 716 -1178 
L 716 -306 
Q 1009 -475 1290 -558 
Q 1572 -641 1856 -641 
Q 2406 -641 2662 -400 
Q 2919 -159 2919 353 
L 2919 594 
z
M 2181 2772 
Q 1834 2772 1640 2515 
Q 1447 2259 1447 1791 
Q 1447 1309 1634 1061 
Q 1822 813 2181 813 
Q 2531 813 2725 1069 
Q 2919 1325 2919 1791 
Q 2919 2259 2725 2515 
Q 2531 2772 2181 2772 
z
" transform="scale(0.015625)"/>
     </defs>
     <use xlink:href="#DejaVuSans-Bold-2b"/>
     <use xlink:href="#DejaVuSans-Bold-20" transform="translate(83.789062 0)"/>
     <use xlink:href="#DejaVuSans-Bold-44" transform="translate(118.603516 0)"/>
     <use xlink:href="#DejaVuSans-Bold-65" transform="translate(201.611328 0)"/>
     <use xlink:href="#DejaVuSans-Bold-67" transform="translate(269.433594 0)"/>
     <use xlink:href="#DejaVuSans-Bold-72" transform="translate(341.015625 0)"/>
     <use xlink:href="#DejaVuSans-Bold-65" transform="translate(390.332031 0)"/>
     <use xlink:href="#DejaVuSans-Bold-65" transform="translate(458.154297 0)"/>
    </g>
   </g>
   <g id="text_4">
    <!-- 4. Final -->
    <g style="fill: #ffffff" transform="translate(488.503906 128.972547) scale(0.1 -0.1)">
     <defs>
      <path id="DejaVuSans-Bold-34" d="M 2356 3675 
L 1038 1722 
L 2356 1722 
L 2356 3675 
z
M 2156 4666 
L 3494 4666 
L 3494 1722 
L 4159 1722 
L 4159 850 
L 3494 850 
L 3494 0 
L 2356 0 
L 2356 850 
L 288 850 
L 288 1881 
L 2156 4666 
z
" transform="scale(0.015625)"/>
      <path id="DejaVuSans-Bold-46" d="M 588 4666 
L 3834 4666 
L 3834 3756 
L 1791 3756 
L 1791 2888 
L 3713 2888 
L 3713 1978 
L 1791 1978 
L 1791 0 
L 588 0 
L 588 4666 
z
" transform="scale(0.015625)"/>
      <path id="DejaVuSans-Bold-6c" d="M 538 4863 
L 1656 4863 
L 1656 0 
L 538 0 
L 538 4863 
z
" transform="scale(0.015625)"/>
     </defs>
     <use xlink:href="#DejaVuSans-Bold-34"/>
     <use xlink:href="#DejaVuSans-Bold-2e" transform="translate(69.580078 0)"/>
     <use xlink:href="#DejaVuSans-Bold-20" transform="translate(107.568359 0)"/>
     <use xlink:href="#DejaVuSans-Bold-46" transform="translate(142.382812 0)"/>
     <use xlink:href="#DejaVuSans-Bold-69" transform="translate(210.693359 0)"/>
     <use xlink:href="#DejaVuSans-Bold-6e" transform="translate(244.970703 0)"/>
     <use xlink:href="#DejaVuSans-Bold-61" transform="translate(316.162109 0)"/>
     <use xlink:href="#DejaVuSans-Bold-6c" transform="translate(383.642578 0)"/>
    </g>
    <!-- Permutation -->
    <g style="fill: #ffffff" transform="translate(474.246094 140.930203) scale(0.1 -0.1)">
     <defs>
      <path id="DejaVuSans-Bold-50" d="M 588 4666 
L 2584 4666 
Q 3475 4666 3951 4270 
Q 4428 3875 4428 3144 
Q 4428 2409 3951 2014 
Q 3475 1619 2584 1619 
L 1791 1619 
L 1791 0 
L 588 0 
L 588 4666 
z
M 1791 3794 
L 1791 2491 
L 2456 2491 
Q 2806 2491 2997 2661 
Q 3188 2831 3188 3144 
Q 3188 3456 2997 3625 
Q 2806 3794 2456 3794 
L 1791 3794 
z
" transform="scale(0.015625)"/>
     </defs>
     <use xlink:href="#DejaVuSans-Bold-50"/>
     <use xlink:href="#DejaVuSans-Bold-65" transform="translate(73.291016 0)"/>
     <use xlink:href="#DejaVuSans-Bold-72" transform="translate(141.113281 0)"/>
     <use xlink:href="#DejaVuSans-Bold-6d" transform="translate(190.429688 0)"/>
     <use xlink:href="#DejaVuSans-Bold-75" transform="translate(294.628906 0)"/>
     <use xlink:href="#DejaVuSans-Bold-74" transform="translate(365.820312 0)"/>
     <use xlink:href="#DejaVuSans-Bold-61" transform="translate(413.623047 0)"/>
     <use xlink:href="#DejaVuSans-Bold-74" transform="translate(481.103516 0)"/>
     <use xlink:href="#DejaVuSans-Bold-69" transform="translate(528.90625 0)"/>
     <use xlink:href="#DejaVuSans-Bold-6f" transform="translate(563.183594 0)"/>
     <use xlink:href="#DejaVuSans-Bold-6e" transform="translate(631.884766 0)"/>
    </g>
   </g>
   <g id="patch_6">
    <path d="M 140.328501 132.192 
Q 146.700528 132.192 150.836488 132.192 
" style="fill: none; stroke: #264653; stroke-width: 2; stroke-linecap: round"/>
    <path d="M 146.436488 129.992 
L 150.836488 132.192 
L 146.436488 134.392 
" style="fill: none; stroke: #264653; stroke-width: 2; stroke-linecap: round"/>
   </g>
   <g id="patch_7">
    <path d="M 274.249182 132.192 
Q 286.198906 132.192 295.912563 132.192 
" style="fill: none; stroke: #264653; stroke-width: 2; stroke-linecap: round"/>
    <path d="M 291.512563 129.992 
L 295.912563 132.192 
L 291.512563 134.392 
" style="fill: none; stroke: #264653; stroke-width: 2; stroke-linecap: round"/>
   </g>
   <g id="patch_8">
    <path d="M 419.328501 132.192 
Q 434.06816 132.192 446.571752 132.192 
" style="fill: none; stroke: #264653; stroke-width: 2; stroke-linecap: round"/>
    <path d="M 442.171752 129.992 
L 446.571752 132.192 
L 442.171752 134.392 
" style="fill: none; stroke: #264653; stroke-width: 2; stroke-linecap: round"/>
   </g>
  </g>
  <g id="text_5">
   <!-- LeidenCSR (Algorithm 16) Pipeline — Pure Leiden -->
   <g transform="translate(135.796094 17.837813) scale(0.14 -0.14)">
    <defs>
     <path id="DejaVuSans-Bold-52" d="M 2297 2597 
Q 2675 2597 2839 2737 
Q 3003 2878 3003 3200 
Q 3003 3519 2839 3656 
Q 2675 3794 2297 3794 
L 1791 3794 
L 1791 2597 
L 2297 2597 
z
M 1791 1766 
L 1791 0 
L 588 0 
L 588 4666 
L 2425 4666 
Q 3347 4666 3776 4356 
Q 4206 4047 4206 3378 
Q 4206 2916 3982 2619 
Q 3759 2322 3309 2181 
Q 3556 2125 3751 1926 
Q 3947 1728 4147 1325 
L 4800 0 
L 3519 0 
L 2950 1159 
Q 2778 1509 2601 1637 
Q 2425 1766 2131 1766 
L 1791 1766 
z
" transform="scale(0.015625)"/>
     <path id="DejaVuSans-Bold-28" d="M 2413 -844 
L 1484 -844 
Q 1006 -72 778 623 
Q 550 1319 550 2003 
Q 550 2688 779 3389 
Q 1009 4091 1484 4856 
L 2413 4856 
Q 2013 4116 1813 3408 
Q 1613 2700 1613 2009 
Q 1613 1319 1811 609 
Q 2009 -100 2413 -844 
z
" transform="scale(0.015625)"/>
     <path id="DejaVuSans-Bold-41" d="M 3419 850 
L 1538 850 
L 1241 0 
L 31 0 
L 1759 4666 
L 3194 4666 
L 4922 0 
L 3713 0 
L 3419 850 
z
M 1838 1716 
L 3116 1716 
L 2478 3572 
L 1838 1716 
z
" transform="scale(0.015625)"/>
     <path id="DejaVuSans-Bold-36" d="M 2316 2303 
Q 2000 2303 1842 2098 
Q 1684 1894 1684 1484 
Q 1684 1075 1842 870 
Q 2000 666 2316 666 
Q 2634 666 2792 870 
Q 2950 1075 2950 1484 
Q 2950 1894 2792 2098 
Q 2634 2303 2316 2303 
z
M 3803 4544 
L 3803 3681 
Q 3506 3822 3243 3889 
Q 2981 3956 2731 3956 
Q 2194 3956 1894 3657 
Q 1594 3359 1544 2772 
Q 1750 2925 1990 3001 
Q 2231 3078 2516 3078 
Q 3231 3078 3670 2659 
Q 4109 2241 4109 1563 
Q 4109 813 3618 361 
Q 3128 -91 2303 -91 
Q 1394 -91 895 523 
Q 397 1138 397 2266 
Q 397 3422 980 4083 
Q 1563 4744 2578 4744 
Q 2900 4744 3203 4694 
Q 3506 4644 3803 4544 
z
" transform="scale(0.015625)"/>
     <path id="DejaVuSans-Bold-29" d="M 513 -844 
Q 913 -100 1113 609 
Q 1313 1319 1313 2009 
Q 1313 2700 1113 3408 
Q 913 4116 513 4856 
L 1441 4856 
Q 1916 4091 2145 3389 
Q 2375 2688 2375 2003 
Q 2375 1319 2147 623 
Q 1919 -72 1441 -844 
L 513 -844 
z
" transform="scale(0.015625)"/>
     <path id="DejaVuSans-Bold-2014" d="M 344 2156 
L 6056 2156 
L 6056 1350 
L 344 1350 
L 344 2156 
z
" transform="scale(0.015625)"/>
    </defs>
    <use xlink:href="#DejaVuSans-Bold-4c"/>
    <use xlink:href="#DejaVuSans-Bold-65" transform="translate(63.720703 0)"/>
    <use xlink:href="#DejaVuSans-Bold-69" transform="translate(131.542969 0)"/>
    <use xlink:href="#DejaVuSans-Bold-64" transform="translate(165.820312 0)"/>
    <use xlink:href="#DejaVuSans-Bold-65" transform="translate(237.402344 0)"/>
    <use xlink:href="#DejaVuSans-Bold-6e" transform="translate(305.224609 0)"/>
    <use xlink:href="#DejaVuSans-Bold-43" transform="translate(376.416016 0)"/>
    <use xlink:href="#DejaVuSans-Bold-53" transform="translate(451.679688 0)"/>
    <use xlink:href="#DejaVuSans-Bold-52" transform="translate(523.701172 0)"/>
    <use xlink:href="#DejaVuSans-Bold-20" transform="translate(600.703125 0)"/>
    <use xlink:href="#DejaVuSans-Bold-28" transform="translate(635.517578 0)"/>
    <use xlink:href="#DejaVuSans-Bold-41" transform="translate(681.220703 0)"/>
    <use xlink:href="#DejaVuSans-Bold-6c" transform="translate(758.613281 0)"/>
    <use xlink:href="#DejaVuSans-Bold-67" transform="translate(792.890625 0)"/>
    <use xlink:href="#DejaVuSans-Bold-6f" transform="translate(864.472656 0)"/>
    <use xlink:href="#DejaVuSans-Bold-72" transform="translate(933.173828 0)"/>
    <use xlink:href="#DejaVuSans-Bold-69" transform="translate(982.490234 0)"/>
    <use xlink:href="#DejaVuSans-Bold-74" transform="translate(1016.767578 0)"/>
    <use xlink:href="#DejaVuSans-Bold-68" transform="translate(1064.570312 0)"/>
    <use xlink:href="#DejaVuSans-Bold-6d" transform="translate(1135.761719 0)"/>
    <use xlink:href="#DejaVuSans-Bold-20" transform="translate(1239.960938 0)"/>
    <use xlink:href="#DejaVuSans-Bold-31" transform="translate(1274.775391 0)"/>
    <use xlink:href="#DejaVuSans-Bold-36" transform="translate(1344.355469 0)"/>
    <use xlink:href="#DejaVuSans-Bold-29" transform="translate(1413.935547 0)"/>
    <use xlink:href="#DejaVuSans-Bold-20" transform="translate(1459.638672 0)"/>
    <use xlink:href="#DejaVuSans-Bold-50" transform="translate(1494.453125 0)"/>
    <use xlink:href="#DejaVuSans-Bold-69" transform="translate(1567.744141 0)"/>
    <use xlink:href="#DejaVuSans-Bold-70" transform="translate(1602.021484 0)"/>
    <use xlink:href="#DejaVuSans-Bold-65" transform="translate(1673.603516 0)"/>
    <use xlink:href="#DejaVuSans-Bold-6c" transform="translate(1741.425781 0)"/>
    <use xlink:href="#DejaVuSans-Bold-69" transform="translate(1775.703125 0)"/>
    <use xlink:href="#DejaVuSans-Bold-6e" transform="translate(1809.980469 0)"/>
    <use xlink:href="#DejaVuSans-Bold-65" transform="translate(1881.171875 0)"/>
    <use xlink:href="#DejaVuSans-Bold-20" transform="translate(1948.994141 0)"/>
    <use xlink:href="#DejaVuSans-Bold-2014" transform="translate(1983.808594 0)"/>
    <use xlink:href="#DejaVuSans-Bold-20" transform="translate(2083.808594 0)"/>
    <use xlink:href="#DejaVuSans-Bold-50" transform="translate(2118.623047 0)"/>
    <use xlink:href="#DejaVuSans-Bold-75" transform="translate(2191.914062 0)"/>
    <use xlink:href="#DejaVuSans-Bold-72" transform="translate(2263.105469 0)"/>
    <use xlink:href="#DejaVuSans-Bold-65" transform="translate(2312.421875 0)"/>
    <use xlink:href="#DejaVuSans-Bold-20" transform="translate(2380.244141 0)"/>
    <use xlink:href="#DejaVuSans-Bold-4c" transform="translate(2415.058594 0)"/>
    <use xlink:href="#DejaVuSans-Bold-65" transform="translate(2478.779297 0)"/>
    <use xlink:href="#DejaVuSans-Bold-69" transform="translate(2546.601562 0)"/>
    <use xlink:href="#DejaVuSans-Bold-64" transform="translate(2580.878906 0)"/>
    <use xlink:href="#DejaVuSans-Bold-65" transform="translate(2652.460938 0)"/>
    <use xlink:href="#DejaVuSans-Bold-6e" transform="translate(2720.283203 0)"/>
   </g>
  </g>
 </g>
 <defs>
  <clipPath id="p0cd9b98fa7">
   <rect x="7.2" y="32.4" width="669.6" height="194.04"/>
  </clipPath>
 </defs>
</svg>
