<?xml version="1.0" encoding="utf-8" standalone="no"?>
<!DOCTYPE svg PUBLIC "-//W3C//DTD SVG 1.1//EN"
  "http://www.w3.org/Graphics/SVG/1.1/DTD/svg11.dtd">
<svg xmlns:xlink="http://www.w3.org/1999/xlink" width="684pt" height="390.24pt" viewBox="0 0 684 390.24" xmlns="http://www.w3.org/2000/svg" version="1.1">
 <metadata>
  <rdf:RDF xmlns:dc="http://purl.org/dc/elements/1.1/" xmlns:cc="http://creativecommons.org/ns#" xmlns:rdf="http://www.w3.org/1999/02/22-rdf-syntax-ns#">
   <cc:Work>
    <dc:type rdf:resource="http://purl.org/dc/dcmitype/StillImage"/>
    <dc:date>2026-02-09T17:22:34.863379</dc:date>
    <dc:format>image/svg+xml</dc:format>
    <dc:creator>
     <cc:Agent>
      <dc:title>Matplotlib v3.10.8, https://matplotlib.org/</dc:title>
     </cc:Agent>
    </dc:creator>
   </cc:Work>
  </rdf:RDF>
 </metadata>
 <defs>
  <style type="text/css">*{stroke-linejoin: round; stroke-linecap: butt}</style>
 </defs>
 <g id="figure_1">
  <g id="patch_1">
   <path d="M 0 390.24 
L 684 390.24 
L 684 0 
L 0 0 
z
" style="fill: #ffffff"/>
  </g>
  <g id="axes_1">
   <g id="patch_2">
    <path d="M 35.1 126.432 
L 174.6 126.432 
Q 180.18 126.432 180.18 121.68 
L 180.18 64.656 
Q 180.18 59.904 174.6 59.904 
L 35.1 59.904 
Q 29.52 59.904 29.52 64.656 
L 29.52 121.68 
Q 29.52 126.432 35.1 126.432 
z
" clip-path="url(#pd7bda1da28)" style="fill: #adb5bd; opacity: 0.85; stroke: #264653; stroke-width: 1.5; stroke-linejoin: miter"/>
   </g>
   <g id="patch_3">
    <path d="M 202.5 126.432 
L 342 126.432 
Q 347.58 126.432 347.58 121.68 
L 347.58 64.656 
Q 347.58 59.904 342 59.904 
L 202.5 59.904 
Q 196.92 59.904 196.92 64.656 
L 196.92 121.68 
Q 196.92 126.432 202.5 126.432 
z
" clip-path="url(#pd7bda1da28)" style="fill: #e63946; opacity: 0.85; stroke: #264653; stroke-width: 1.5; stroke-linejoin: miter"/>
   </g>
   <g id="patch_4">
    <path d="M 369.9 126.432 
L 509.4 126.432 
Q 514.98 126.432 514.98 121.68 
L 514.98 64.656 
Q 514.98 59.904 509.4 59.904 
L 369.9 59.904 
Q 364.32 59.904 364.32 64.656 
L 364.32 121.68 
Q 364.32 126.432 369.9 126.432 
z
" clip-path="url(#pd7bda1da28)" style="fill: #e76f51; opacity: 0.85; stroke: #264653; stroke-width: 1.5; stroke-linejoin: miter"/>
   </g>
   <g id="patch_5">
    <path d="M 35.1 221.472 
L 174.6 221.472 
Q 180.18 221.472 180.18 216.72 
L 180.18 159.696 
Q 180.18 154.944 174.6 154.944 
L 35.1 154.944 
Q 29.52 154.944 29.52 159.696 
L 29.52 216.72 
Q 29.52 221.472 35.1 221.472 
z
" clip-path="url(#pd7bda1da28)" style="fill: #457b9d; opacity: 0.85; stroke: #264653; stroke-width: 1.5; stroke-linejoin: miter"/>
   </g>
   <g id="patch_6">
    <path d="M 202.5 221.472 
L 342 221.472 
Q 347.58 221.472 347.58 216.72 
L 347.58 159.696 
Q 347.58 154.944 342 154.944 
L 202.5 154.944 
Q 196.92 154.944 196.92 159.696 
L 196.92 216.72 
Q 196.92 221.472 202.5 221.472 
z
" clip-path="url(#pd7bda1da28)" style="fill: #2a9d8f; opacity: 0.85; stroke: #264653; stroke-width: 1.5; stroke-linejoin: miter"/>
   </g>
   <g id="patch_7">
    <path d="M 369.9 221.472 
L 509.4 221.472 
Q 514.98 221.472 514.98 216.72 
L 514.98 159.696 
Q 514.98 154.944 509.4 154.944 
L 369.9 154.944 
Q 364.32 154.944 364.32 159.696 
L 364.32 216.72 
Q 364.32 221.472 369.9 221.472 
z
" clip-path="url(#pd7bda1da28)" style="fill: #e9c46a; opacity: 0.85; stroke: #264653; stroke-width: 1.5; stroke-linejoin: miter"/>
   </g>
   <g id="patch_8">
    <path d="M 90.9 316.512 
L 258.3 316.512 
Q 263.88 316.512 263.88 311.76 
L 263.88 254.736 
Q 263.88 249.984 258.3 249.984 
L 90.9 249.984 
Q 85.32 249.984 85.32 254.736 
L 85.32 311.76 
Q 85.32 316.512 90.9 316.512 
z
" clip-path="url(#pd7bda1da28)" style="fill: #f4a261; opacity: 0.85; stroke: #264653; stroke-width: 1.5; stroke-linejoin: miter"/>
   </g>
   <g id="patch_9">
    <path d="M 314.1 316.512 
L 481.5 316.512 
Q 487.08 316.512 487.08 311.76 
L 487.08 254.736 
Q 487.08 249.984 481.5 249.984 
L 314.1 249.984 
Q 308.52 249.984 308.52 254.736 
L 308.52 311.76 
Q 308.52 316.512 314.1 316.512 
z
" clip-path="url(#pd7bda1da28)" style="fill: #a8dadc; opacity: 0.85; stroke: #264653; stroke-width: 1.5; stroke-linejoin: miter"/>
   </g>
   <g id="text_1">
    <!-- Basic (0–2) -->
    <g style="fill: #ffffff" transform="translate(74.242188 81.758438) scale(0.1 -0.1)">
     <defs>
      <path id="DejaVuSans-Bold-42" d="M 2456 2859 
Q 2741 2859 2887 2984 
Q 3034 3109 3034 3353 
Q 3034 3594 2887 3720 
Q 2741 3847 2456 3847 
L 1791 3847 
L 1791 2859 
L 2456 2859 
z
M 2497 819 
Q 2859 819 3042 972 
Q 3225 1125 3225 1434 
Q 3225 1738 3044 1889 
Q 2863 2041 2497 2041 
L 1791 2041 
L 1791 819 
L 2497 819 
z
M 3616 2497 
Q 4003 2384 4215 2081 
Q 4428 1778 4428 1338 
Q 4428 663 3972 331 
Q 3516 0 2584 0 
L 588 0 
L 588 4666 
L 2394 4666 
Q 3366 4666 3802 4372 
Q 4238 4078 4238 3431 
Q 4238 3091 4078 2852 
Q 3919 2613 3616 2497 
z
" transform="scale(0.015625)"/>
      <path id="DejaVuSans-Bold-61" d="M 2106 1575 
Q 1756 1575 1579 1456 
Q 1403 1338 1403 1106 
Q 1403 894 1545 773 
Q 1688 653 1941 653 
Q 2256 653 2472 879 
Q 2688 1106 2688 1447 
L 2688 1575 
L 2106 1575 
z
M 3816 1997 
L 3816 0 
L 2688 0 
L 2688 519 
Q 2463 200 2181 54 
Q 1900 -91 1497 -91 
Q 953 -91 614 226 
Q 275 544 275 1050 
Q 275 1666 698 1953 
Q 1122 2241 2028 2241 
L 2688 2241 
L 2688 2328 
Q 2688 2594 2478 2717 
Q 2269 2841 1825 2841 
Q 1466 2841 1156 2769 
Q 847 2697 581 2553 
L 581 3406 
Q 941 3494 1303 3539 
Q 1666 3584 2028 3584 
Q 2975 3584 3395 3211 
Q 3816 2838 3816 1997 
z
" transform="scale(0.015625)"/>
      <path id="DejaVuSans-Bold-73" d="M 3272 3391 
L 3272 2541 
Q 2913 2691 2578 2766 
Q 2244 2841 1947 2841 
Q 1628 2841 1473 2761 
Q 1319 2681 1319 2516 
Q 1319 2381 1436 2309 
Q 1553 2238 1856 2203 
L 2053 2175 
Q 2913 2066 3209 1816 
Q 3506 1566 3506 1031 
Q 3506 472 3093 190 
Q 2681 -91 1863 -91 
Q 1516 -91 1145 -36 
Q 775 19 384 128 
L 384 978 
Q 719 816 1070 734 
Q 1422 653 1784 653 
Q 2113 653 2278 743 
Q 2444 834 2444 1013 
Q 2444 1163 2330 1236 
Q 2216 1309 1875 1350 
L 1678 1375 
Q 931 1469 631 1722 
Q 331 1975 331 2491 
Q 331 3047 712 3315 
Q 1094 3584 1881 3584 
Q 2191 3584 2531 3537 
Q 2872 3491 3272 3391 
z
" transform="scale(0.015625)"/>
      <path id="DejaVuSans-Bold-69" d="M 538 3500 
L 1656 3500 
L 1656 0 
L 538 0 
L 538 3500 
z
M 538 4863 
L 1656 4863 
L 1656 3950 
L 538 3950 
L 538 4863 
z
" transform="scale(0.015625)"/>
      <path id="DejaVuSans-Bold-63" d="M 3366 3391 
L 3366 2478 
Q 3138 2634 2908 2709 
Q 2678 2784 2431 2784 
Q 1963 2784 1702 2511 
Q 1441 2238 1441 1747 
Q 1441 1256 1702 982 
Q 1963 709 2431 709 
Q 2694 709 2930 787 
Q 3166 866 3366 1019 
L 3366 103 
Q 3103 6 2833 -42 
Q 2563 -91 2291 -91 
Q 1344 -91 809 395 
Q 275 881 275 1747 
Q 275 2613 809 3098 
Q 1344 3584 2291 3584 
Q 2566 3584 2833 3536 
Q 3100 3488 3366 3391 
z
" transform="scale(0.015625)"/>
      <path id="DejaVuSans-Bold-20" transform="scale(0.015625)"/>
      <path id="DejaVuSans-Bold-28" d="M 2413 -844 
L 1484 -844 
Q 1006 -72 778 623 
Q 550 1319 550 2003 
Q 550 2688 779 3389 
Q 1009 4091 1484 4856 
L 2413 4856 
Q 2013 4116 1813 3408 
Q 1613 2700 1613 2009 
Q 1613 1319 1811 609 
Q 2009 -100 2413 -844 
z
" transform="scale(0.015625)"/>
      <path id="DejaVuSans-Bold-30" d="M 2944 2338 
Q 2944 3213 2780 3570 
Q 2616 3928 2228 3928 
Q 1841 3928 1675 3570 
Q 1509 3213 1509 2338 
Q 1509 1453 1675 1090 
Q 1841 728 2228 728 
Q 2613 728 2778 1090 
Q 2944 1453 2944 2338 
z
M 4147 2328 
Q 4147 1169 3647 539 
Q 3147 -91 2228 -91 
Q 1306 -91 806 539 
Q 306 1169 306 2328 
Q 306 3491 806 4120 
Q 1306 4750 2228 4750 
Q 3147 4750 3647 4120 
Q 4147 3491 4147 2328 
z
" transform="scale(0.015625)"/>
      <path id="DejaVuSans-Bold-2013" d="M 344 2156 
L 2856 2156 
L 2856 1350 
L 344 1350 
L 344 2156 
z
" transform="scale(0.015625)"/>
      <path id="DejaVuSans-Bold-32" d="M 1844 884 
L 3897 884 
L 3897 0 
L 506 0 
L 506 884 
L 2209 2388 
Q 2438 2594 2547 2791 
Q 2656 2988 2656 3200 
Q 2656 3528 2436 3728 
Q 2216 3928 1850 3928 
Q 1569 3928 1234 3808 
Q 900 3688 519 3450 
L 519 4475 
Q 925 4609 1322 4679 
Q 1719 4750 2100 4750 
Q 2938 4750 3402 4381 
Q 3866 4013 3866 3353 
Q 3866 2972 3669 2642 
Q 3472 2313 2841 1759 
L 1844 884 
z
" transform="scale(0.015625)"/>
      <path id="DejaVuSans-Bold-29" d="M 513 -844 
Q 913 -100 1113 609 
Q 1313 1319 1313 2009 
Q 1313 2700 1113 3408 
Q 913 4116 513 4856 
L 1441 4856 
Q 1916 4091 2145 3389 
Q 2375 2688 2375 2003 
Q 2375 1319 2147 623 
Q 1919 -72 1441 -844 
L 513 -844 
z
" transform="scale(0.015625)"/>
     </defs>
     <use xlink:href="#DejaVuSans-Bold-42"/>
     <use xlink:href="#DejaVuSans-Bold-61" transform="translate(76.220703 0)"/>
     <use xlink:href="#DejaVuSans-Bold-73" transform="translate(143.701172 0)"/>
     <use xlink:href="#DejaVuSans-Bold-69" transform="translate(203.222656 0)"/>
     <use xlink:href="#DejaVuSans-Bold-63" transform="translate(237.5 0)"/>
     <use xlink:href="#DejaVuSans-Bold-20" transform="translate(296.777344 0)"/>
     <use xlink:href="#DejaVuSans-Bold-28" transform="translate(331.591797 0)"/>
     <use xlink:href="#DejaVuSans-Bold-30" transform="translate(377.294922 0)"/>
     <use xlink:href="#DejaVuSans-Bold-2013" transform="translate(446.875 0)"/>
     <use xlink:href="#DejaVuSans-Bold-32" transform="translate(496.875 0)"/>
     <use xlink:href="#DejaVuSans-Bold-29" transform="translate(566.455078 0)"/>
    </g>
   </g>
   <g id="text_2">
    <!-- ORIGINAL -->
    <g style="fill: #ffffff" transform="translate(85.505 93.756) scale(0.08 -0.08)">
     <defs>
      <path id="DejaVuSans-4f" d="M 2522 4238 
Q 1834 4238 1429 3725 
Q 1025 3213 1025 2328 
Q 1025 1447 1429 934 
Q 1834 422 2522 422 
Q 3209 422 3611 934 
Q 4013 1447 4013 2328 
Q 4013 3213 3611 3725 
Q 3209 4238 2522 4238 
z
M 2522 4750 
Q 3503 4750 4090 4092 
Q 4678 3434 4678 2328 
Q 4678 1225 4090 567 
Q 3503 -91 2522 -91 
Q 1538 -91 948 565 
Q 359 1222 359 2328 
Q 359 3434 948 4092 
Q 1538 4750 2522 4750 
z
" transform="scale(0.015625)"/>
      <path id="DejaVuSans-52" d="M 2841 2188 
Q 3044 2119 3236 1894 
Q 3428 1669 3622 1275 
L 4263 0 
L 3584 0 
L 2988 1197 
Q 2756 1666 2539 1819 
Q 2322 1972 1947 1972 
L 1259 1972 
L 1259 0 
L 628 0 
L 628 4666 
L 2053 4666 
Q 2853 4666 3247 4331 
Q 3641 3997 3641 3322 
Q 3641 2881 3436 2590 
Q 3231 2300 2841 2188 
z
M 1259 4147 
L 1259 2491 
L 2053 2491 
Q 2509 2491 2742 2702 
Q 2975 2913 2975 3322 
Q 2975 3731 2742 3939 
Q 2509 4147 2053 4147 
L 1259 4147 
z
" transform="scale(0.015625)"/>
      <path id="DejaVuSans-49" d="M 628 4666 
L 1259 4666 
L 1259 0 
L 628 0 
L 628 4666 
z
" transform="scale(0.015625)"/>
      <path id="DejaVuSans-47" d="M 3809 666 
L 3809 1919 
L 2778 1919 
L 2778 2438 
L 4434 2438 
L 4434 434 
Q 4069 175 3628 42 
Q 3188 -91 2688 -91 
Q 1594 -91 976 548 
Q 359 1188 359 2328 
Q 359 3472 976 4111 
Q 1594 4750 2688 4750 
Q 3144 4750 3555 4637 
Q 3966 4525 4313 4306 
L 4313 3634 
Q 3963 3931 3569 4081 
Q 3175 4231 2741 4231 
Q 1884 4231 1454 3753 
Q 1025 3275 1025 2328 
Q 1025 1384 1454 906 
Q 1884 428 2741 428 
Q 3075 428 3337 486 
Q 3600 544 3809 666 
z
" transform="scale(0.015625)"/>
      <path id="DejaVuSans-4e" d="M 628 4666 
L 1478 4666 
L 3547 763 
L 3547 4666 
L 4159 4666 
L 4159 0 
L 3309 0 
L 1241 3903 
L 1241 0 
L 628 0 
L 628 4666 
z
" transform="scale(0.015625)"/>
      <path id="DejaVuSans-41" d="M 2188 4044 
L 1331 1722 
L 3047 1722 
L 2188 4044 
z
M 1831 4666 
L 2547 4666 
L 4325 0 
L 3669 0 
L 3244 1197 
L 1141 1197 
L 716 0 
L 50 0 
L 1831 4666 
z
" transform="scale(0.015625)"/>
      <path id="DejaVuSans-4c" d="M 628 4666 
L 1259 4666 
L 1259 531 
L 3531 531 
L 3531 0 
L 628 0 
L 628 4666 
z
" transform="scale(0.015625)"/>
     </defs>
     <use xlink:href="#DejaVuSans-4f"/>
     <use xlink:href="#DejaVuSans-52" transform="translate(78.710938 0)"/>
     <use xlink:href="#DejaVuSans-49" transform="translate(148.193359 0)"/>
     <use xlink:href="#DejaVuSans-47" transform="translate(177.685547 0)"/>
     <use xlink:href="#DejaVuSans-49" transform="translate(255.175781 0)"/>
     <use xlink:href="#DejaVuSans-4e" transform="translate(284.667969 0)"/>
     <use xlink:href="#DejaVuSans-41" transform="translate(359.472656 0)"/>
     <use xlink:href="#DejaVuSans-4c" transform="translate(427.880859 0)"/>
    </g>
    <!-- RANDOM -->
    <g style="fill: #ffffff" transform="translate(86.821875 103.322125) scale(0.08 -0.08)">
     <defs>
      <path id="DejaVuSans-44" d="M 1259 4147 
L 1259 519 
L 2022 519 
Q 2988 519 3436 956 
Q 3884 1394 3884 2338 
Q 3884 3275 3436 3711 
Q 2988 4147 2022 4147 
L 1259 4147 
z
M 628 4666 
L 1925 4666 
Q 3281 4666 3915 4102 
Q 4550 3538 4550 2338 
Q 4550 1131 3912 565 
Q 3275 0 1925 0 
L 628 0 
L 628 4666 
z
" transform="scale(0.015625)"/>
      <path id="DejaVuSans-4d" d="M 628 4666 
L 1569 4666 
L 2759 1491 
L 3956 4666 
L 4897 4666 
L 4897 0 
L 4281 0 
L 4281 4097 
L 3078 897 
L 2444 897 
L 1241 4097 
L 1241 0 
L 628 0 
L 628 4666 
z
" transform="scale(0.015625)"/>
     </defs>
     <use xlink:href="#DejaVuSans-52"/>
     <use xlink:href="#DejaVuSans-41" transform="translate(65.482422 0)"/>
     <use xlink:href="#DejaVuSans-4e" transform="translate(133.890625 0)"/>
     <use xlink:href="#DejaVuSans-44" transform="translate(208.695312 0)"/>
     <use xlink:href="#DejaVuSans-4f" transform="translate(285.697266 0)"/>
     <use xlink:href="#DejaVuSans-4d" transform="translate(364.408203 0)"/>
    </g>
    <!-- SORT -->
    <g style="fill: #ffffff" transform="translate(94.229375 112.88825) scale(0.08 -0.08)">
     <defs>
      <path id="DejaVuSans-53" d="M 3425 4513 
L 3425 3897 
Q 3066 4069 2747 4153 
Q 2428 4238 2131 4238 
Q 1616 4238 1336 4038 
Q 1056 3838 1056 3469 
Q 1056 3159 1242 3001 
Q 1428 2844 1947 2747 
L 2328 2669 
Q 3034 2534 3370 2195 
Q 3706 1856 3706 1288 
Q 3706 609 3251 259 
Q 2797 -91 1919 -91 
Q 1588 -91 1214 -16 
Q 841 59 441 206 
L 441 856 
Q 825 641 1194 531 
Q 1563 422 1919 422 
Q 2459 422 2753 634 
Q 3047 847 3047 1241 
Q 3047 1584 2836 1778 
Q 2625 1972 2144 2069 
L 1759 2144 
Q 1053 2284 737 2584 
Q 422 2884 422 3419 
Q 422 4038 858 4394 
Q 1294 4750 2059 4750 
Q 2388 4750 2728 4690 
Q 3069 4631 3425 4513 
z
" transform="scale(0.015625)"/>
      <path id="DejaVuSans-54" d="M -19 4666 
L 3928 4666 
L 3928 4134 
L 2272 4134 
L 2272 0 
L 1638 0 
L 1638 4134 
L -19 4134 
L -19 4666 
z
" transform="scale(0.015625)"/>
     </defs>
     <use xlink:href="#DejaVuSans-53"/>
     <use xlink:href="#DejaVuSans-4f" transform="translate(63.476562 0)"/>
     <use xlink:href="#DejaVuSans-52" transform="translate(142.1875 0)"/>
     <use xlink:href="#DejaVuSans-54" transform="translate(204.419922 0)"/>
    </g>
   </g>
   <g id="text_3">
    <!-- Hub-Based (3–4) -->
    <g style="fill: #ffffff" transform="translate(225.952344 81.758438) scale(0.1 -0.1)">
     <defs>
      <path id="DejaVuSans-Bold-48" d="M 588 4666 
L 1791 4666 
L 1791 2888 
L 3566 2888 
L 3566 4666 
L 4769 4666 
L 4769 0 
L 3566 0 
L 3566 1978 
L 1791 1978 
L 1791 0 
L 588 0 
L 588 4666 
z
" transform="scale(0.015625)"/>
      <path id="DejaVuSans-Bold-75" d="M 500 1363 
L 500 3500 
L 1625 3500 
L 1625 3150 
Q 1625 2866 1622 2436 
Q 1619 2006 1619 1863 
Q 1619 1441 1641 1255 
Q 1663 1069 1716 984 
Q 1784 875 1895 815 
Q 2006 756 2150 756 
Q 2500 756 2700 1025 
Q 2900 1294 2900 1772 
L 2900 3500 
L 4019 3500 
L 4019 0 
L 2900 0 
L 2900 506 
Q 2647 200 2364 54 
Q 2081 -91 1741 -91 
Q 1134 -91 817 281 
Q 500 653 500 1363 
z
" transform="scale(0.015625)"/>
      <path id="DejaVuSans-Bold-62" d="M 2400 722 
Q 2759 722 2948 984 
Q 3138 1247 3138 1747 
Q 3138 2247 2948 2509 
Q 2759 2772 2400 2772 
Q 2041 2772 1848 2508 
Q 1656 2244 1656 1747 
Q 1656 1250 1848 986 
Q 2041 722 2400 722 
z
M 1656 2988 
Q 1888 3294 2169 3439 
Q 2450 3584 2816 3584 
Q 3463 3584 3878 3070 
Q 4294 2556 4294 1747 
Q 4294 938 3878 423 
Q 3463 -91 2816 -91 
Q 2450 -91 2169 54 
Q 1888 200 1656 506 
L 1656 0 
L 538 0 
L 538 4863 
L 1656 4863 
L 1656 2988 
z
" transform="scale(0.015625)"/>
      <path id="DejaVuSans-Bold-2d" d="M 347 2297 
L 2309 2297 
L 2309 1388 
L 347 1388 
L 347 2297 
z
" transform="scale(0.015625)"/>
      <path id="DejaVuSans-Bold-65" d="M 4031 1759 
L 4031 1441 
L 1416 1441 
Q 1456 1047 1700 850 
Q 1944 653 2381 653 
Q 2734 653 3104 758 
Q 3475 863 3866 1075 
L 3866 213 
Q 3469 63 3072 -14 
Q 2675 -91 2278 -91 
Q 1328 -91 801 392 
Q 275 875 275 1747 
Q 275 2603 792 3093 
Q 1309 3584 2216 3584 
Q 3041 3584 3536 3087 
Q 4031 2591 4031 1759 
z
M 2881 2131 
Q 2881 2450 2695 2645 
Q 2509 2841 2209 2841 
Q 1884 2841 1681 2658 
Q 1478 2475 1428 2131 
L 2881 2131 
z
" transform="scale(0.015625)"/>
      <path id="DejaVuSans-Bold-64" d="M 2919 2988 
L 2919 4863 
L 4044 4863 
L 4044 0 
L 2919 0 
L 2919 506 
Q 2688 197 2409 53 
Q 2131 -91 1766 -91 
Q 1119 -91 703 423 
Q 288 938 288 1747 
Q 288 2556 703 3070 
Q 1119 3584 1766 3584 
Q 2128 3584 2408 3439 
Q 2688 3294 2919 2988 
z
M 2181 722 
Q 2541 722 2730 984 
Q 2919 1247 2919 1747 
Q 2919 2247 2730 2509 
Q 2541 2772 2181 2772 
Q 1825 2772 1636 2509 
Q 1447 2247 1447 1747 
Q 1447 1247 1636 984 
Q 1825 722 2181 722 
z
" transform="scale(0.015625)"/>
      <path id="DejaVuSans-Bold-33" d="M 2981 2516 
Q 3453 2394 3698 2092 
Q 3944 1791 3944 1325 
Q 3944 631 3412 270 
Q 2881 -91 1863 -91 
Q 1503 -91 1142 -33 
Q 781 25 428 141 
L 428 1069 
Q 766 900 1098 814 
Q 1431 728 1753 728 
Q 2231 728 2486 893 
Q 2741 1059 2741 1369 
Q 2741 1688 2480 1852 
Q 2219 2016 1709 2016 
L 1228 2016 
L 1228 2791 
L 1734 2791 
Q 2188 2791 2409 2933 
Q 2631 3075 2631 3366 
Q 2631 3634 2415 3781 
Q 2200 3928 1806 3928 
Q 1516 3928 1219 3862 
Q 922 3797 628 3669 
L 628 4550 
Q 984 4650 1334 4700 
Q 1684 4750 2022 4750 
Q 2931 4750 3382 4451 
Q 3834 4153 3834 3553 
Q 3834 3144 3618 2883 
Q 3403 2622 2981 2516 
z
" transform="scale(0.015625)"/>
      <path id="DejaVuSans-Bold-34" d="M 2356 3675 
L 1038 1722 
L 2356 1722 
L 2356 3675 
z
M 2156 4666 
L 3494 4666 
L 3494 1722 
L 4159 1722 
L 4159 850 
L 3494 850 
L 3494 0 
L 2356 0 
L 2356 850 
L 288 850 
L 288 1881 
L 2156 4666 
z
" transform="scale(0.015625)"/>
     </defs>
     <use xlink:href="#DejaVuSans-Bold-48"/>
     <use xlink:href="#DejaVuSans-Bold-75" transform="translate(83.691406 0)"/>
     <use xlink:href="#DejaVuSans-Bold-62" transform="translate(154.882812 0)"/>
     <use xlink:href="#DejaVuSans-Bold-2d" transform="translate(226.464844 0)"/>
     <use xlink:href="#DejaVuSans-Bold-42" transform="translate(267.96875 0)"/>
     <use xlink:href="#DejaVuSans-Bold-61" transform="translate(344.189453 0)"/>
     <use xlink:href="#DejaVuSans-Bold-73" transform="translate(411.669922 0)"/>
     <use xlink:href="#DejaVuSans-Bold-65" transform="translate(471.191406 0)"/>
     <use xlink:href="#DejaVuSans-Bold-64" transform="translate(539.013672 0)"/>
     <use xlink:href="#DejaVuSans-Bold-20" transform="translate(610.595703 0)"/>
     <use xlink:href="#DejaVuSans-Bold-28" transform="translate(645.410156 0)"/>
     <use xlink:href="#DejaVuSans-Bold-33" transform="translate(691.113281 0)"/>
     <use xlink:href="#DejaVuSans-Bold-2013" transform="translate(760.693359 0)"/>
     <use xlink:href="#DejaVuSans-Bold-34" transform="translate(810.693359 0)"/>
     <use xlink:href="#DejaVuSans-Bold-29" transform="translate(880.273438 0)"/>
    </g>
   </g>
   <g id="text_4">
    <!-- HUBSORT -->
    <g style="fill: #ffffff" transform="translate(253.019375 103.322125) scale(0.08 -0.08)">
     <defs>
      <path id="DejaVuSans-48" d="M 628 4666 
L 1259 4666 
L 1259 2753 
L 3553 2753 
L 3553 4666 
L 4184 4666 
L 4184 0 
L 3553 0 
L 3553 2222 
L 1259 2222 
L 1259 0 
L 628 0 
L 628 4666 
z
" transform="scale(0.015625)"/>
      <path id="DejaVuSans-55" d="M 556 4666 
L 1191 4666 
L 1191 1831 
Q 1191 1081 1462 751 
Q 1734 422 2344 422 
Q 2950 422 3222 751 
Q 3494 1081 3494 1831 
L 3494 4666 
L 4128 4666 
L 4128 1753 
Q 4128 841 3676 375 
Q 3225 -91 2344 -91 
Q 1459 -91 1007 375 
Q 556 841 556 1753 
L 556 4666 
z
" transform="scale(0.015625)"/>
      <path id="DejaVuSans-42" d="M 1259 2228 
L 1259 519 
L 2272 519 
Q 2781 519 3026 730 
Q 3272 941 3272 1375 
Q 3272 1813 3026 2020 
Q 2781 2228 2272 2228 
L 1259 2228 
z
M 1259 4147 
L 1259 2741 
L 2194 2741 
Q 2656 2741 2882 2914 
Q 3109 3088 3109 3444 
Q 3109 3797 2882 3972 
Q 2656 4147 2194 4147 
L 1259 4147 
z
M 628 4666 
L 2241 4666 
Q 2963 4666 3353 4366 
Q 3744 4066 3744 3513 
Q 3744 3084 3544 2831 
Q 3344 2578 2956 2516 
Q 3422 2416 3680 2098 
Q 3938 1781 3938 1306 
Q 3938 681 3513 340 
Q 3088 0 2303 0 
L 628 0 
L 628 4666 
z
" transform="scale(0.015625)"/>
     </defs>
     <use xlink:href="#DejaVuSans-48"/>
     <use xlink:href="#DejaVuSans-55" transform="translate(75.195312 0)"/>
     <use xlink:href="#DejaVuSans-42" transform="translate(148.388672 0)"/>
     <use xlink:href="#DejaVuSans-53" transform="translate(215.242188 0)"/>
     <use xlink:href="#DejaVuSans-4f" transform="translate(278.71875 0)"/>
     <use xlink:href="#DejaVuSans-52" transform="translate(357.429688 0)"/>
     <use xlink:href="#DejaVuSans-54" transform="translate(419.662109 0)"/>
    </g>
    <!-- HUBCLUSTER -->
    <g style="fill: #ffffff" transform="translate(245.60125 112.88825) scale(0.08 -0.08)">
     <defs>
      <path id="DejaVuSans-43" d="M 4122 4306 
L 4122 3641 
Q 3803 3938 3442 4084 
Q 3081 4231 2675 4231 
Q 1875 4231 1450 3742 
Q 1025 3253 1025 2328 
Q 1025 1406 1450 917 
Q 1875 428 2675 428 
Q 3081 428 3442 575 
Q 3803 722 4122 1019 
L 4122 359 
Q 3791 134 3420 21 
Q 3050 -91 2638 -91 
Q 1578 -91 968 557 
Q 359 1206 359 2328 
Q 359 3453 968 4101 
Q 1578 4750 2638 4750 
Q 3056 4750 3426 4639 
Q 3797 4528 4122 4306 
z
" transform="scale(0.015625)"/>
      <path id="DejaVuSans-45" d="M 628 4666 
L 3578 4666 
L 3578 4134 
L 1259 4134 
L 1259 2753 
L 3481 2753 
L 3481 2222 
L 1259 2222 
L 1259 531 
L 3634 531 
L 3634 0 
L 628 0 
L 628 4666 
z
" transform="scale(0.015625)"/>
     </defs>
     <use xlink:href="#DejaVuSans-48"/>
     <use xlink:href="#DejaVuSans-55" transform="translate(75.195312 0)"/>
     <use xlink:href="#DejaVuSans-42" transform="translate(148.388672 0)"/>
     <use xlink:href="#DejaVuSans-43" transform="translate(215.242188 0)"/>
     <use xlink:href="#DejaVuSans-4c" transform="translate(285.066406 0)"/>
     <use xlink:href="#DejaVuSans-55" transform="translate(335.779297 0)"/>
     <use xlink:href="#DejaVuSans-53" transform="translate(408.972656 0)"/>
     <use xlink:href="#DejaVuSans-54" transform="translate(472.449219 0)"/>
     <use xlink:href="#DejaVuSans-45" transform="translate(533.533203 0)"/>
     <use xlink:href="#DejaVuSans-52" transform="translate(596.716797 0)"/>
    </g>
   </g>
   <g id="text_5">
    <!-- DBG-Based (5–7) -->
    <g style="fill: #ffffff" transform="translate(392.609375 81.758438) scale(0.1 -0.1)">
     <defs>
      <path id="DejaVuSans-Bold-44" d="M 1791 3756 
L 1791 909 
L 2222 909 
Q 2959 909 3348 1275 
Q 3738 1641 3738 2338 
Q 3738 3031 3350 3393 
Q 2963 3756 2222 3756 
L 1791 3756 
z
M 588 4666 
L 1856 4666 
Q 2919 4666 3439 4514 
Q 3959 4363 4331 4000 
Q 4659 3684 4818 3271 
Q 4978 2859 4978 2338 
Q 4978 1809 4818 1395 
Q 4659 981 4331 666 
Q 3956 303 3431 151 
Q 2906 0 1856 0 
L 588 0 
L 588 4666 
z
" transform="scale(0.015625)"/>
      <path id="DejaVuSans-Bold-47" d="M 4781 347 
Q 4331 128 3847 18 
Q 3363 -91 2847 -91 
Q 1681 -91 1000 561 
Q 319 1213 319 2328 
Q 319 3456 1012 4103 
Q 1706 4750 2913 4750 
Q 3378 4750 3804 4662 
Q 4231 4575 4609 4403 
L 4609 3438 
Q 4219 3659 3833 3768 
Q 3447 3878 3059 3878 
Q 2341 3878 1952 3476 
Q 1563 3075 1563 2328 
Q 1563 1588 1938 1184 
Q 2313 781 3003 781 
Q 3191 781 3352 804 
Q 3513 828 3641 878 
L 3641 1784 
L 2906 1784 
L 2906 2591 
L 4781 2591 
L 4781 347 
z
" transform="scale(0.015625)"/>
      <path id="DejaVuSans-Bold-35" d="M 678 4666 
L 3669 4666 
L 3669 3781 
L 1638 3781 
L 1638 3059 
Q 1775 3097 1914 3117 
Q 2053 3138 2203 3138 
Q 3056 3138 3531 2711 
Q 4006 2284 4006 1522 
Q 4006 766 3489 337 
Q 2972 -91 2053 -91 
Q 1656 -91 1267 -14 
Q 878 63 494 219 
L 494 1166 
Q 875 947 1217 837 
Q 1559 728 1863 728 
Q 2300 728 2551 942 
Q 2803 1156 2803 1522 
Q 2803 1891 2551 2103 
Q 2300 2316 1863 2316 
Q 1603 2316 1309 2248 
Q 1016 2181 678 2041 
L 678 4666 
z
" transform="scale(0.015625)"/>
      <path id="DejaVuSans-Bold-37" d="M 428 4666 
L 3944 4666 
L 3944 3988 
L 2125 0 
L 953 0 
L 2675 3781 
L 428 3781 
L 428 4666 
z
" transform="scale(0.015625)"/>
     </defs>
     <use xlink:href="#DejaVuSans-Bold-44"/>
     <use xlink:href="#DejaVuSans-Bold-42" transform="translate(83.007812 0)"/>
     <use xlink:href="#DejaVuSans-Bold-47" transform="translate(159.228516 0)"/>
     <use xlink:href="#DejaVuSans-Bold-2d" transform="translate(241.308594 0)"/>
     <use xlink:href="#DejaVuSans-Bold-42" transform="translate(282.8125 0)"/>
     <use xlink:href="#DejaVuSans-Bold-61" transform="translate(359.033203 0)"/>
     <use xlink:href="#DejaVuSans-Bold-73" transform="translate(426.513672 0)"/>
     <use xlink:href="#DejaVuSans-Bold-65" transform="translate(486.035156 0)"/>
     <use xlink:href="#DejaVuSans-Bold-64" transform="translate(553.857422 0)"/>
     <use xlink:href="#DejaVuSans-Bold-20" transform="translate(625.439453 0)"/>
     <use xlink:href="#DejaVuSans-Bold-28" transform="translate(660.253906 0)"/>
     <use xlink:href="#DejaVuSans-Bold-35" transform="translate(705.957031 0)"/>
     <use xlink:href="#DejaVuSans-Bold-2013" transform="translate(775.537109 0)"/>
     <use xlink:href="#DejaVuSans-Bold-37" transform="translate(825.537109 0)"/>
     <use xlink:href="#DejaVuSans-Bold-29" transform="translate(895.117188 0)"/>
    </g>
   </g>
   <g id="text_6">
    <!-- DBG -->
    <g style="fill: #ffffff" transform="translate(430.79625 93.756) scale(0.08 -0.08)">
     <use xlink:href="#DejaVuSans-44"/>
     <use xlink:href="#DejaVuSans-42" transform="translate(77.001953 0)"/>
     <use xlink:href="#DejaVuSans-47" transform="translate(143.855469 0)"/>
    </g>
    <!-- HUBSORTDBG -->
    <g style="fill: #ffffff" transform="translate(411.565625 103.322125) scale(0.08 -0.08)">
     <use xlink:href="#DejaVuSans-48"/>
     <use xlink:href="#DejaVuSans-55" transform="translate(75.195312 0)"/>
     <use xlink:href="#DejaVuSans-42" transform="translate(148.388672 0)"/>
     <use xlink:href="#DejaVuSans-53" transform="translate(215.242188 0)"/>
     <use xlink:href="#DejaVuSans-4f" transform="translate(278.71875 0)"/>
     <use xlink:href="#DejaVuSans-52" transform="translate(357.429688 0)"/>
     <use xlink:href="#DejaVuSans-54" transform="translate(419.662109 0)"/>
     <use xlink:href="#DejaVuSans-44" transform="translate(480.746094 0)"/>
     <use xlink:href="#DejaVuSans-42" transform="translate(557.748047 0)"/>
     <use xlink:href="#DejaVuSans-47" transform="translate(624.601562 0)"/>
    </g>
    <!-- HUBCLUSTERDBG -->
    <g style="fill: #ffffff" transform="translate(404.1475 112.88825) scale(0.08 -0.08)">
     <use xlink:href="#DejaVuSans-48"/>
     <use xlink:href="#DejaVuSans-55" transform="translate(75.195312 0)"/>
     <use xlink:href="#DejaVuSans-42" transform="translate(148.388672 0)"/>
     <use xlink:href="#DejaVuSans-43" transform="translate(215.242188 0)"/>
     <use xlink:href="#DejaVuSans-4c" transform="translate(285.066406 0)"/>
     <use xlink:href="#DejaVuSans-55" transform="translate(335.779297 0)"/>
     <use xlink:href="#DejaVuSans-53" transform="translate(408.972656 0)"/>
     <use xlink:href="#DejaVuSans-54" transform="translate(472.449219 0)"/>
     <use xlink:href="#DejaVuSans-45" transform="translate(533.533203 0)"/>
     <use xlink:href="#DejaVuSans-52" transform="translate(596.716797 0)"/>
     <use xlink:href="#DejaVuSans-44" transform="translate(666.199219 0)"/>
     <use xlink:href="#DejaVuSans-42" transform="translate(743.201172 0)"/>
     <use xlink:href="#DejaVuSans-47" transform="translate(810.054688 0)"/>
    </g>
   </g>
   <g id="text_7">
    <!-- Community (8) -->
    <g style="fill: #ffffff" transform="translate(63.053125 176.798437) scale(0.1 -0.1)">
     <defs>
      <path id="DejaVuSans-Bold-43" d="M 4288 256 
Q 3956 84 3597 -3 
Q 3238 -91 2847 -91 
Q 1681 -91 1000 561 
Q 319 1213 319 2328 
Q 319 3447 1000 4098 
Q 1681 4750 2847 4750 
Q 3238 4750 3597 4662 
Q 3956 4575 4288 4403 
L 4288 3438 
Q 3953 3666 3628 3772 
Q 3303 3878 2944 3878 
Q 2300 3878 1931 3465 
Q 1563 3053 1563 2328 
Q 1563 1606 1931 1193 
Q 2300 781 2944 781 
Q 3303 781 3628 887 
Q 3953 994 4288 1222 
L 4288 256 
z
" transform="scale(0.015625)"/>
      <path id="DejaVuSans-Bold-6f" d="M 2203 2784 
Q 1831 2784 1636 2517 
Q 1441 2250 1441 1747 
Q 1441 1244 1636 976 
Q 1831 709 2203 709 
Q 2569 709 2762 976 
Q 2956 1244 2956 1747 
Q 2956 2250 2762 2517 
Q 2569 2784 2203 2784 
z
M 2203 3584 
Q 3106 3584 3614 3096 
Q 4122 2609 4122 1747 
Q 4122 884 3614 396 
Q 3106 -91 2203 -91 
Q 1297 -91 786 396 
Q 275 884 275 1747 
Q 275 2609 786 3096 
Q 1297 3584 2203 3584 
z
" transform="scale(0.015625)"/>
      <path id="DejaVuSans-Bold-6d" d="M 3781 2919 
Q 3994 3244 4286 3414 
Q 4578 3584 4928 3584 
Q 5531 3584 5847 3212 
Q 6163 2841 6163 2131 
L 6163 0 
L 5038 0 
L 5038 1825 
Q 5041 1866 5042 1909 
Q 5044 1953 5044 2034 
Q 5044 2406 4934 2573 
Q 4825 2741 4581 2741 
Q 4263 2741 4089 2478 
Q 3916 2216 3909 1719 
L 3909 0 
L 2784 0 
L 2784 1825 
Q 2784 2406 2684 2573 
Q 2584 2741 2328 2741 
Q 2006 2741 1831 2477 
Q 1656 2213 1656 1722 
L 1656 0 
L 531 0 
L 531 3500 
L 1656 3500 
L 1656 2988 
Q 1863 3284 2130 3434 
Q 2397 3584 2719 3584 
Q 3081 3584 3359 3409 
Q 3638 3234 3781 2919 
z
" transform="scale(0.015625)"/>
      <path id="DejaVuSans-Bold-6e" d="M 4056 2131 
L 4056 0 
L 2931 0 
L 2931 347 
L 2931 1631 
Q 2931 2084 2911 2256 
Q 2891 2428 2841 2509 
Q 2775 2619 2662 2680 
Q 2550 2741 2406 2741 
Q 2056 2741 1856 2470 
Q 1656 2200 1656 1722 
L 1656 0 
L 538 0 
L 538 3500 
L 1656 3500 
L 1656 2988 
Q 1909 3294 2193 3439 
Q 2478 3584 2822 3584 
Q 3428 3584 3742 3212 
Q 4056 2841 4056 2131 
z
" transform="scale(0.015625)"/>
      <path id="DejaVuSans-Bold-74" d="M 1759 4494 
L 1759 3500 
L 2913 3500 
L 2913 2700 
L 1759 2700 
L 1759 1216 
Q 1759 972 1856 886 
Q 1953 800 2241 800 
L 2816 800 
L 2816 0 
L 1856 0 
Q 1194 0 917 276 
Q 641 553 641 1216 
L 641 2700 
L 84 2700 
L 84 3500 
L 641 3500 
L 641 4494 
L 1759 4494 
z
" transform="scale(0.015625)"/>
      <path id="DejaVuSans-Bold-79" d="M 78 3500 
L 1197 3500 
L 2138 1125 
L 2938 3500 
L 4056 3500 
L 2584 -331 
Q 2363 -916 2067 -1148 
Q 1772 -1381 1288 -1381 
L 641 -1381 
L 641 -647 
L 991 -647 
Q 1275 -647 1404 -556 
Q 1534 -466 1606 -231 
L 1638 -134 
L 78 3500 
z
" transform="scale(0.015625)"/>
      <path id="DejaVuSans-Bold-38" d="M 2228 2088 
Q 1891 2088 1709 1903 
Q 1528 1719 1528 1375 
Q 1528 1031 1709 848 
Q 1891 666 2228 666 
Q 2563 666 2741 848 
Q 2919 1031 2919 1375 
Q 2919 1722 2741 1905 
Q 2563 2088 2228 2088 
z
M 1350 2484 
Q 925 2613 709 2878 
Q 494 3144 494 3541 
Q 494 4131 934 4440 
Q 1375 4750 2228 4750 
Q 3075 4750 3515 4442 
Q 3956 4134 3956 3541 
Q 3956 3144 3739 2878 
Q 3522 2613 3097 2484 
Q 3572 2353 3814 2058 
Q 4056 1763 4056 1313 
Q 4056 619 3595 264 
Q 3134 -91 2228 -91 
Q 1319 -91 855 264 
Q 391 619 391 1313 
Q 391 1763 633 2058 
Q 875 2353 1350 2484 
z
M 1631 3419 
Q 1631 3141 1786 2991 
Q 1941 2841 2228 2841 
Q 2509 2841 2662 2991 
Q 2816 3141 2816 3419 
Q 2816 3697 2662 3845 
Q 2509 3994 2228 3994 
Q 1941 3994 1786 3844 
Q 1631 3694 1631 3419 
z
" transform="scale(0.015625)"/>
     </defs>
     <use xlink:href="#DejaVuSans-Bold-43"/>
     <use xlink:href="#DejaVuSans-Bold-6f" transform="translate(73.388672 0)"/>
     <use xlink:href="#DejaVuSans-Bold-6d" transform="translate(142.089844 0)"/>
     <use xlink:href="#DejaVuSans-Bold-6d" transform="translate(246.289062 0)"/>
     <use xlink:href="#DejaVuSans-Bold-75" transform="translate(350.488281 0)"/>
     <use xlink:href="#DejaVuSans-Bold-6e" transform="translate(421.679688 0)"/>
     <use xlink:href="#DejaVuSans-Bold-69" transform="translate(492.871094 0)"/>
     <use xlink:href="#DejaVuSans-Bold-74" transform="translate(527.148438 0)"/>
     <use xlink:href="#DejaVuSans-Bold-79" transform="translate(574.951172 0)"/>
     <use xlink:href="#DejaVuSans-Bold-20" transform="translate(640.136719 0)"/>
     <use xlink:href="#DejaVuSans-Bold-28" transform="translate(674.951172 0)"/>
     <use xlink:href="#DejaVuSans-Bold-38" transform="translate(720.654297 0)"/>
     <use xlink:href="#DejaVuSans-Bold-29" transform="translate(790.234375 0)"/>
    </g>
   </g>
   <g id="text_8">
    <!-- RABBITORDER -->
    <g style="fill: #ffffff" transform="translate(76.0675 207.92825) scale(0.08 -0.08)">
     <use xlink:href="#DejaVuSans-52"/>
     <use xlink:href="#DejaVuSans-41" transform="translate(65.482422 0)"/>
     <use xlink:href="#DejaVuSans-42" transform="translate(133.890625 0)"/>
     <use xlink:href="#DejaVuSans-42" transform="translate(202.494141 0)"/>
     <use xlink:href="#DejaVuSans-49" transform="translate(271.097656 0)"/>
     <use xlink:href="#DejaVuSans-54" transform="translate(300.589844 0)"/>
     <use xlink:href="#DejaVuSans-4f" transform="translate(361.673828 0)"/>
     <use xlink:href="#DejaVuSans-52" transform="translate(440.384766 0)"/>
     <use xlink:href="#DejaVuSans-44" transform="translate(509.867188 0)"/>
     <use xlink:href="#DejaVuSans-45" transform="translate(586.869141 0)"/>
     <use xlink:href="#DejaVuSans-52" transform="translate(650.052734 0)"/>
    </g>
   </g>
   <g id="text_9">
    <!-- Classic (9–11) -->
    <g style="fill: #ffffff" transform="translate(233.614844 176.798437) scale(0.1 -0.1)">
     <defs>
      <path id="DejaVuSans-Bold-6c" d="M 538 4863 
L 1656 4863 
L 1656 0 
L 538 0 
L 538 4863 
z
" transform="scale(0.015625)"/>
      <path id="DejaVuSans-Bold-39" d="M 641 103 
L 641 966 
Q 928 831 1190 764 
Q 1453 697 1709 697 
Q 2247 697 2547 995 
Q 2847 1294 2900 1881 
Q 2688 1725 2447 1647 
Q 2206 1569 1925 1569 
Q 1209 1569 770 1986 
Q 331 2403 331 3084 
Q 331 3838 820 4291 
Q 1309 4744 2131 4744 
Q 3044 4744 3544 4128 
Q 4044 3513 4044 2388 
Q 4044 1231 3459 570 
Q 2875 -91 1856 -91 
Q 1528 -91 1228 -42 
Q 928 6 641 103 
z
M 2125 2350 
Q 2441 2350 2600 2554 
Q 2759 2759 2759 3169 
Q 2759 3575 2600 3781 
Q 2441 3988 2125 3988 
Q 1809 3988 1650 3781 
Q 1491 3575 1491 3169 
Q 1491 2759 1650 2554 
Q 1809 2350 2125 2350 
z
" transform="scale(0.015625)"/>
      <path id="DejaVuSans-Bold-31" d="M 750 831 
L 1813 831 
L 1813 3847 
L 722 3622 
L 722 4441 
L 1806 4666 
L 2950 4666 
L 2950 831 
L 4013 831 
L 4013 0 
L 750 0 
L 750 831 
z
" transform="scale(0.015625)"/>
     </defs>
     <use xlink:href="#DejaVuSans-Bold-43"/>
     <use xlink:href="#DejaVuSans-Bold-6c" transform="translate(73.388672 0)"/>
     <use xlink:href="#DejaVuSans-Bold-61" transform="translate(107.666016 0)"/>
     <use xlink:href="#DejaVuSans-Bold-73" transform="translate(175.146484 0)"/>
     <use xlink:href="#DejaVuSans-Bold-73" transform="translate(234.667969 0)"/>
     <use xlink:href="#DejaVuSans-Bold-69" transform="translate(294.189453 0)"/>
     <use xlink:href="#DejaVuSans-Bold-63" transform="translate(328.466797 0)"/>
     <use xlink:href="#DejaVuSans-Bold-20" transform="translate(387.744141 0)"/>
     <use xlink:href="#DejaVuSans-Bold-28" transform="translate(422.558594 0)"/>
     <use xlink:href="#DejaVuSans-Bold-39" transform="translate(468.261719 0)"/>
     <use xlink:href="#DejaVuSans-Bold-2013" transform="translate(537.841797 0)"/>
     <use xlink:href="#DejaVuSans-Bold-31" transform="translate(587.841797 0)"/>
     <use xlink:href="#DejaVuSans-Bold-31" transform="translate(657.421875 0)"/>
     <use xlink:href="#DejaVuSans-Bold-29" transform="translate(727.001953 0)"/>
    </g>
   </g>
   <g id="text_10">
    <!-- GORDER -->
    <g style="fill: #ffffff" transform="translate(254.835625 188.796) scale(0.08 -0.08)">
     <use xlink:href="#DejaVuSans-47"/>
     <use xlink:href="#DejaVuSans-4f" transform="translate(77.490234 0)"/>
     <use xlink:href="#DejaVuSans-52" transform="translate(156.201172 0)"/>
     <use xlink:href="#DejaVuSans-44" transform="translate(225.683594 0)"/>
     <use xlink:href="#DejaVuSans-45" transform="translate(302.685547 0)"/>
     <use xlink:href="#DejaVuSans-52" transform="translate(365.869141 0)"/>
    </g>
    <!-- CORDER -->
    <g style="fill: #ffffff" transform="translate(255.141875 198.362125) scale(0.08 -0.08)">
     <use xlink:href="#DejaVuSans-43"/>
     <use xlink:href="#DejaVuSans-4f" transform="translate(69.824219 0)"/>
     <use xlink:href="#DejaVuSans-52" transform="translate(148.535156 0)"/>
     <use xlink:href="#DejaVuSans-44" transform="translate(218.017578 0)"/>
     <use xlink:href="#DejaVuSans-45" transform="translate(295.019531 0)"/>
     <use xlink:href="#DejaVuSans-52" transform="translate(358.203125 0)"/>
    </g>
    <!-- RCM -->
    <g style="fill: #ffffff" transform="translate(263.42625 207.92825) scale(0.08 -0.08)">
     <use xlink:href="#DejaVuSans-52"/>
     <use xlink:href="#DejaVuSans-43" transform="translate(64.482422 0)"/>
     <use xlink:href="#DejaVuSans-4d" transform="translate(134.306641 0)"/>
    </g>
   </g>
   <g id="text_11">
    <!-- GraphBrew (12) -->
    <g style="fill: #ffffff" transform="translate(395.011719 176.798437) scale(0.1 -0.1)">
     <defs>
      <path id="DejaVuSans-Bold-72" d="M 3138 2547 
Q 2991 2616 2845 2648 
Q 2700 2681 2553 2681 
Q 2122 2681 1889 2404 
Q 1656 2128 1656 1613 
L 1656 0 
L 538 0 
L 538 3500 
L 1656 3500 
L 1656 2925 
Q 1872 3269 2151 3426 
Q 2431 3584 2822 3584 
Q 2878 3584 2943 3579 
Q 3009 3575 3134 3559 
L 3138 2547 
z
" transform="scale(0.015625)"/>
      <path id="DejaVuSans-Bold-70" d="M 1656 506 
L 1656 -1331 
L 538 -1331 
L 538 3500 
L 1656 3500 
L 1656 2988 
Q 1888 3294 2169 3439 
Q 2450 3584 2816 3584 
Q 3463 3584 3878 3070 
Q 4294 2556 4294 1747 
Q 4294 938 3878 423 
Q 3463 -91 2816 -91 
Q 2450 -91 2169 54 
Q 1888 200 1656 506 
z
M 2400 2772 
Q 2041 2772 1848 2508 
Q 1656 2244 1656 1747 
Q 1656 1250 1848 986 
Q 2041 722 2400 722 
Q 2759 722 2948 984 
Q 3138 1247 3138 1747 
Q 3138 2247 2948 2509 
Q 2759 2772 2400 2772 
z
" transform="scale(0.015625)"/>
      <path id="DejaVuSans-Bold-68" d="M 4056 2131 
L 4056 0 
L 2931 0 
L 2931 347 
L 2931 1625 
Q 2931 2084 2911 2256 
Q 2891 2428 2841 2509 
Q 2775 2619 2662 2680 
Q 2550 2741 2406 2741 
Q 2056 2741 1856 2470 
Q 1656 2200 1656 1722 
L 1656 0 
L 538 0 
L 538 4863 
L 1656 4863 
L 1656 2988 
Q 1909 3294 2193 3439 
Q 2478 3584 2822 3584 
Q 3428 3584 3742 3212 
Q 4056 2841 4056 2131 
z
" transform="scale(0.015625)"/>
      <path id="DejaVuSans-Bold-77" d="M 225 3500 
L 1313 3500 
L 1900 1088 
L 2491 3500 
L 3425 3500 
L 4013 1113 
L 4603 3500 
L 5691 3500 
L 4769 0 
L 3547 0 
L 2956 2406 
L 2369 0 
L 1147 0 
L 225 3500 
z
" transform="scale(0.015625)"/>
     </defs>
     <use xlink:href="#DejaVuSans-Bold-47"/>
     <use xlink:href="#DejaVuSans-Bold-72" transform="translate(82.080078 0)"/>
     <use xlink:href="#DejaVuSans-Bold-61" transform="translate(131.396484 0)"/>
     <use xlink:href="#DejaVuSans-Bold-70" transform="translate(198.876953 0)"/>
     <use xlink:href="#DejaVuSans-Bold-68" transform="translate(270.458984 0)"/>
     <use xlink:href="#DejaVuSans-Bold-42" transform="translate(341.650391 0)"/>
     <use xlink:href="#DejaVuSans-Bold-72" transform="translate(417.871094 0)"/>
     <use xlink:href="#DejaVuSans-Bold-65" transform="translate(467.1875 0)"/>
     <use xlink:href="#DejaVuSans-Bold-77" transform="translate(535.009766 0)"/>
     <use xlink:href="#DejaVuSans-Bold-20" transform="translate(627.392578 0)"/>
     <use xlink:href="#DejaVuSans-Bold-28" transform="translate(662.207031 0)"/>
     <use xlink:href="#DejaVuSans-Bold-31" transform="translate(707.910156 0)"/>
     <use xlink:href="#DejaVuSans-Bold-32" transform="translate(777.490234 0)"/>
     <use xlink:href="#DejaVuSans-Bold-29" transform="translate(847.070312 0)"/>
    </g>
   </g>
   <g id="text_12">
    <!-- GraphBrewOrder -->
    <g style="fill: #ffffff" transform="translate(405.98125 198.362125) scale(0.08 -0.08)">
     <defs>
      <path id="DejaVuSans-72" d="M 2631 2963 
Q 2534 3019 2420 3045 
Q 2306 3072 2169 3072 
Q 1681 3072 1420 2755 
Q 1159 2438 1159 1844 
L 1159 0 
L 581 0 
L 581 3500 
L 1159 3500 
L 1159 2956 
Q 1341 3275 1631 3429 
Q 1922 3584 2338 3584 
Q 2397 3584 2469 3576 
Q 2541 3569 2628 3553 
L 2631 2963 
z
" transform="scale(0.015625)"/>
      <path id="DejaVuSans-61" d="M 2194 1759 
Q 1497 1759 1228 1600 
Q 959 1441 959 1056 
Q 959 750 1161 570 
Q 1363 391 1709 391 
Q 2188 391 2477 730 
Q 2766 1069 2766 1631 
L 2766 1759 
L 2194 1759 
z
M 3341 1997 
L 3341 0 
L 2766 0 
L 2766 531 
Q 2569 213 2275 61 
Q 1981 -91 1556 -91 
Q 1019 -91 701 211 
Q 384 513 384 1019 
Q 384 1609 779 1909 
Q 1175 2209 1959 2209 
L 2766 2209 
L 2766 2266 
Q 2766 2663 2505 2880 
Q 2244 3097 1772 3097 
Q 1472 3097 1187 3025 
Q 903 2953 641 2809 
L 641 3341 
Q 956 3463 1253 3523 
Q 1550 3584 1831 3584 
Q 2591 3584 2966 3190 
Q 3341 2797 3341 1997 
z
" transform="scale(0.015625)"/>
      <path id="DejaVuSans-70" d="M 1159 525 
L 1159 -1331 
L 581 -1331 
L 581 3500 
L 1159 3500 
L 1159 2969 
Q 1341 3281 1617 3432 
Q 1894 3584 2278 3584 
Q 2916 3584 3314 3078 
Q 3713 2572 3713 1747 
Q 3713 922 3314 415 
Q 2916 -91 2278 -91 
Q 1894 -91 1617 61 
Q 1341 213 1159 525 
z
M 3116 1747 
Q 3116 2381 2855 2742 
Q 2594 3103 2138 3103 
Q 1681 3103 1420 2742 
Q 1159 2381 1159 1747 
Q 1159 1113 1420 752 
Q 1681 391 2138 391 
Q 2594 391 2855 752 
Q 3116 1113 3116 1747 
z
" transform="scale(0.015625)"/>
      <path id="DejaVuSans-68" d="M 3513 2113 
L 3513 0 
L 2938 0 
L 2938 2094 
Q 2938 2591 2744 2837 
Q 2550 3084 2163 3084 
Q 1697 3084 1428 2787 
Q 1159 2491 1159 1978 
L 1159 0 
L 581 0 
L 581 4863 
L 1159 4863 
L 1159 2956 
Q 1366 3272 1645 3428 
Q 1925 3584 2291 3584 
Q 2894 3584 3203 3211 
Q 3513 2838 3513 2113 
z
" transform="scale(0.015625)"/>
      <path id="DejaVuSans-65" d="M 3597 1894 
L 3597 1613 
L 953 1613 
Q 991 1019 1311 708 
Q 1631 397 2203 397 
Q 2534 397 2845 478 
Q 3156 559 3463 722 
L 3463 178 
Q 3153 47 2828 -22 
Q 2503 -91 2169 -91 
Q 1331 -91 842 396 
Q 353 884 353 1716 
Q 353 2575 817 3079 
Q 1281 3584 2069 3584 
Q 2775 3584 3186 3129 
Q 3597 2675 3597 1894 
z
M 3022 2063 
Q 3016 2534 2758 2815 
Q 2500 3097 2075 3097 
Q 1594 3097 1305 2825 
Q 1016 2553 972 2059 
L 3022 2063 
z
" transform="scale(0.015625)"/>
      <path id="DejaVuSans-77" d="M 269 3500 
L 844 3500 
L 1563 769 
L 2278 3500 
L 2956 3500 
L 3675 769 
L 4391 3500 
L 4966 3500 
L 4050 0 
L 3372 0 
L 2619 2869 
L 1863 0 
L 1184 0 
L 269 3500 
z
" transform="scale(0.015625)"/>
      <path id="DejaVuSans-64" d="M 2906 2969 
L 2906 4863 
L 3481 4863 
L 3481 0 
L 2906 0 
L 2906 525 
Q 2725 213 2448 61 
Q 2172 -91 1784 -91 
Q 1150 -91 751 415 
Q 353 922 353 1747 
Q 353 2572 751 3078 
Q 1150 3584 1784 3584 
Q 2172 3584 2448 3432 
Q 2725 3281 2906 2969 
z
M 947 1747 
Q 947 1113 1208 752 
Q 1469 391 1925 391 
Q 2381 391 2643 752 
Q 2906 1113 2906 1747 
Q 2906 2381 2643 2742 
Q 2381 3103 1925 3103 
Q 1469 3103 1208 2742 
Q 947 2381 947 1747 
z
" transform="scale(0.015625)"/>
     </defs>
     <use xlink:href="#DejaVuSans-47"/>
     <use xlink:href="#DejaVuSans-72" transform="translate(77.490234 0)"/>
     <use xlink:href="#DejaVuSans-61" transform="translate(118.603516 0)"/>
     <use xlink:href="#DejaVuSans-70" transform="translate(179.882812 0)"/>
     <use xlink:href="#DejaVuSans-68" transform="translate(243.359375 0)"/>
     <use xlink:href="#DejaVuSans-42" transform="translate(306.738281 0)"/>
     <use xlink:href="#DejaVuSans-72" transform="translate(375.341797 0)"/>
     <use xlink:href="#DejaVuSans-65" transform="translate(414.205078 0)"/>
     <use xlink:href="#DejaVuSans-77" transform="translate(475.728516 0)"/>
     <use xlink:href="#DejaVuSans-4f" transform="translate(557.515625 0)"/>
     <use xlink:href="#DejaVuSans-72" transform="translate(636.226562 0)"/>
     <use xlink:href="#DejaVuSans-64" transform="translate(675.589844 0)"/>
     <use xlink:href="#DejaVuSans-65" transform="translate(739.066406 0)"/>
     <use xlink:href="#DejaVuSans-72" transform="translate(800.589844 0)"/>
    </g>
    <!-- (Leiden+RabbitOrder) -->
    <g style="fill: #ffffff" transform="translate(395.643125 207.92825) scale(0.08 -0.08)">
     <defs>
      <path id="DejaVuSans-28" d="M 1984 4856 
Q 1566 4138 1362 3434 
Q 1159 2731 1159 2009 
Q 1159 1288 1364 580 
Q 1569 -128 1984 -844 
L 1484 -844 
Q 1016 -109 783 600 
Q 550 1309 550 2009 
Q 550 2706 781 3412 
Q 1013 4119 1484 4856 
L 1984 4856 
z
" transform="scale(0.015625)"/>
      <path id="DejaVuSans-69" d="M 603 3500 
L 1178 3500 
L 1178 0 
L 603 0 
L 603 3500 
z
M 603 4863 
L 1178 4863 
L 1178 4134 
L 603 4134 
L 603 4863 
z
" transform="scale(0.015625)"/>
      <path id="DejaVuSans-6e" d="M 3513 2113 
L 3513 0 
L 2938 0 
L 2938 2094 
Q 2938 2591 2744 2837 
Q 2550 3084 2163 3084 
Q 1697 3084 1428 2787 
Q 1159 2491 1159 1978 
L 1159 0 
L 581 0 
L 581 3500 
L 1159 3500 
L 1159 2956 
Q 1366 3272 1645 3428 
Q 1925 3584 2291 3584 
Q 2894 3584 3203 3211 
Q 3513 2838 3513 2113 
z
" transform="scale(0.015625)"/>
      <path id="DejaVuSans-2b" d="M 2944 4013 
L 2944 2272 
L 4684 2272 
L 4684 1741 
L 2944 1741 
L 2944 0 
L 2419 0 
L 2419 1741 
L 678 1741 
L 678 2272 
L 2419 2272 
L 2419 4013 
L 2944 4013 
z
" transform="scale(0.015625)"/>
      <path id="DejaVuSans-62" d="M 3116 1747 
Q 3116 2381 2855 2742 
Q 2594 3103 2138 3103 
Q 1681 3103 1420 2742 
Q 1159 2381 1159 1747 
Q 1159 1113 1420 752 
Q 1681 391 2138 391 
Q 2594 391 2855 752 
Q 3116 1113 3116 1747 
z
M 1159 2969 
Q 1341 3281 1617 3432 
Q 1894 3584 2278 3584 
Q 2916 3584 3314 3078 
Q 3713 2572 3713 1747 
Q 3713 922 3314 415 
Q 2916 -91 2278 -91 
Q 1894 -91 1617 61 
Q 1341 213 1159 525 
L 1159 0 
L 581 0 
L 581 4863 
L 1159 4863 
L 1159 2969 
z
" transform="scale(0.015625)"/>
      <path id="DejaVuSans-74" d="M 1172 4494 
L 1172 3500 
L 2356 3500 
L 2356 3053 
L 1172 3053 
L 1172 1153 
Q 1172 725 1289 603 
Q 1406 481 1766 481 
L 2356 481 
L 2356 0 
L 1766 0 
Q 1100 0 847 248 
Q 594 497 594 1153 
L 594 3053 
L 172 3053 
L 172 3500 
L 594 3500 
L 594 4494 
L 1172 4494 
z
" transform="scale(0.015625)"/>
      <path id="DejaVuSans-29" d="M 513 4856 
L 1013 4856 
Q 1481 4119 1714 3412 
Q 1947 2706 1947 2009 
Q 1947 1309 1714 600 
Q 1481 -109 1013 -844 
L 513 -844 
Q 928 -128 1133 580 
Q 1338 1288 1338 2009 
Q 1338 2731 1133 3434 
Q 928 4138 513 4856 
z
" transform="scale(0.015625)"/>
     </defs>
     <use xlink:href="#DejaVuSans-28"/>
     <use xlink:href="#DejaVuSans-4c" transform="translate(39.013672 0)"/>
     <use xlink:href="#DejaVuSans-65" transform="translate(92.976562 0)"/>
     <use xlink:href="#DejaVuSans-69" transform="translate(154.5 0)"/>
     <use xlink:href="#DejaVuSans-64" transform="translate(182.283203 0)"/>
     <use xlink:href="#DejaVuSans-65" transform="translate(245.759766 0)"/>
     <use xlink:href="#DejaVuSans-6e" transform="translate(307.283203 0)"/>
     <use xlink:href="#DejaVuSans-2b" transform="translate(370.662109 0)"/>
     <use xlink:href="#DejaVuSans-52" transform="translate(454.451172 0)"/>
     <use xlink:href="#DejaVuSans-61" transform="translate(521.683594 0)"/>
     <use xlink:href="#DejaVuSans-62" transform="translate(582.962891 0)"/>
     <use xlink:href="#DejaVuSans-62" transform="translate(646.439453 0)"/>
     <use xlink:href="#DejaVuSans-69" transform="translate(709.916016 0)"/>
     <use xlink:href="#DejaVuSans-74" transform="translate(737.699219 0)"/>
     <use xlink:href="#DejaVuSans-4f" transform="translate(776.908203 0)"/>
     <use xlink:href="#DejaVuSans-72" transform="translate(855.619141 0)"/>
     <use xlink:href="#DejaVuSans-64" transform="translate(894.982422 0)"/>
     <use xlink:href="#DejaVuSans-65" transform="translate(958.458984 0)"/>
     <use xlink:href="#DejaVuSans-72" transform="translate(1019.982422 0)"/>
     <use xlink:href="#DejaVuSans-29" transform="translate(1061.095703 0)"/>
    </g>
   </g>
   <g id="text_13">
    <!-- Adaptive (14) -->
    <g style="fill: #ffffff" transform="translate(136.175 271.838437) scale(0.1 -0.1)">
     <defs>
      <path id="DejaVuSans-Bold-41" d="M 3419 850 
L 1538 850 
L 1241 0 
L 31 0 
L 1759 4666 
L 3194 4666 
L 4922 0 
L 3713 0 
L 3419 850 
z
M 1838 1716 
L 3116 1716 
L 2478 3572 
L 1838 1716 
z
" transform="scale(0.015625)"/>
      <path id="DejaVuSans-Bold-76" d="M 97 3500 
L 1216 3500 
L 2088 1081 
L 2956 3500 
L 4078 3500 
L 2700 0 
L 1472 0 
L 97 3500 
z
" transform="scale(0.015625)"/>
     </defs>
     <use xlink:href="#DejaVuSans-Bold-41"/>
     <use xlink:href="#DejaVuSans-Bold-64" transform="translate(77.392578 0)"/>
     <use xlink:href="#DejaVuSans-Bold-61" transform="translate(148.974609 0)"/>
     <use xlink:href="#DejaVuSans-Bold-70" transform="translate(216.455078 0)"/>
     <use xlink:href="#DejaVuSans-Bold-74" transform="translate(288.037109 0)"/>
     <use xlink:href="#DejaVuSans-Bold-69" transform="translate(335.839844 0)"/>
     <use xlink:href="#DejaVuSans-Bold-76" transform="translate(370.117188 0)"/>
     <use xlink:href="#DejaVuSans-Bold-65" transform="translate(435.302734 0)"/>
     <use xlink:href="#DejaVuSans-Bold-20" transform="translate(503.125 0)"/>
     <use xlink:href="#DejaVuSans-Bold-28" transform="translate(537.939453 0)"/>
     <use xlink:href="#DejaVuSans-Bold-31" transform="translate(583.642578 0)"/>
     <use xlink:href="#DejaVuSans-Bold-34" transform="translate(653.222656 0)"/>
     <use xlink:href="#DejaVuSans-Bold-29" transform="translate(722.802734 0)"/>
    </g>
   </g>
   <g id="text_14">
    <!-- AdaptiveOrder -->
    <g style="fill: #ffffff" transform="translate(145.5275 293.402125) scale(0.08 -0.08)">
     <defs>
      <path id="DejaVuSans-76" d="M 191 3500 
L 800 3500 
L 1894 563 
L 2988 3500 
L 3597 3500 
L 2284 0 
L 1503 0 
L 191 3500 
z
" transform="scale(0.015625)"/>
     </defs>
     <use xlink:href="#DejaVuSans-41"/>
     <use xlink:href="#DejaVuSans-64" transform="translate(66.658203 0)"/>
     <use xlink:href="#DejaVuSans-61" transform="translate(130.134766 0)"/>
     <use xlink:href="#DejaVuSans-70" transform="translate(191.414062 0)"/>
     <use xlink:href="#DejaVuSans-74" transform="translate(254.890625 0)"/>
     <use xlink:href="#DejaVuSans-69" transform="translate(294.099609 0)"/>
     <use xlink:href="#DejaVuSans-76" transform="translate(321.882812 0)"/>
     <use xlink:href="#DejaVuSans-65" transform="translate(381.0625 0)"/>
     <use xlink:href="#DejaVuSans-4f" transform="translate(442.585938 0)"/>
     <use xlink:href="#DejaVuSans-72" transform="translate(521.296875 0)"/>
     <use xlink:href="#DejaVuSans-64" transform="translate(560.660156 0)"/>
     <use xlink:href="#DejaVuSans-65" transform="translate(624.136719 0)"/>
     <use xlink:href="#DejaVuSans-72" transform="translate(685.660156 0)"/>
    </g>
    <!-- (ML perceptron) -->
    <g style="fill: #ffffff" transform="translate(142.6675 302.96825) scale(0.08 -0.08)">
     <defs>
      <path id="DejaVuSans-20" transform="scale(0.015625)"/>
      <path id="DejaVuSans-63" d="M 3122 3366 
L 3122 2828 
Q 2878 2963 2633 3030 
Q 2388 3097 2138 3097 
Q 1578 3097 1268 2742 
Q 959 2388 959 1747 
Q 959 1106 1268 751 
Q 1578 397 2138 397 
Q 2388 397 2633 464 
Q 2878 531 3122 666 
L 3122 134 
Q 2881 22 2623 -34 
Q 2366 -91 2075 -91 
Q 1284 -91 818 406 
Q 353 903 353 1747 
Q 353 2603 823 3093 
Q 1294 3584 2113 3584 
Q 2378 3584 2631 3529 
Q 2884 3475 3122 3366 
z
" transform="scale(0.015625)"/>
      <path id="DejaVuSans-6f" d="M 1959 3097 
Q 1497 3097 1228 2736 
Q 959 2375 959 1747 
Q 959 1119 1226 758 
Q 1494 397 1959 397 
Q 2419 397 2687 759 
Q 2956 1122 2956 1747 
Q 2956 2369 2687 2733 
Q 2419 3097 1959 3097 
z
M 1959 3584 
Q 2709 3584 3137 3096 
Q 3566 2609 3566 1747 
Q 3566 888 3137 398 
Q 2709 -91 1959 -91 
Q 1206 -91 779 398 
Q 353 888 353 1747 
Q 353 2609 779 3096 
Q 1206 3584 1959 3584 
z
" transform="scale(0.015625)"/>
     </defs>
     <use xlink:href="#DejaVuSans-28"/>
     <use xlink:href="#DejaVuSans-4d" transform="translate(39.013672 0)"/>
     <use xlink:href="#DejaVuSans-4c" transform="translate(125.292969 0)"/>
     <use xlink:href="#DejaVuSans-20" transform="translate(181.005859 0)"/>
     <use xlink:href="#DejaVuSans-70" transform="translate(212.792969 0)"/>
     <use xlink:href="#DejaVuSans-65" transform="translate(276.269531 0)"/>
     <use xlink:href="#DejaVuSans-72" transform="translate(337.792969 0)"/>
     <use xlink:href="#DejaVuSans-63" transform="translate(376.65625 0)"/>
     <use xlink:href="#DejaVuSans-65" transform="translate(431.636719 0)"/>
     <use xlink:href="#DejaVuSans-70" transform="translate(493.160156 0)"/>
     <use xlink:href="#DejaVuSans-74" transform="translate(556.636719 0)"/>
     <use xlink:href="#DejaVuSans-72" transform="translate(595.845703 0)"/>
     <use xlink:href="#DejaVuSans-6f" transform="translate(634.708984 0)"/>
     <use xlink:href="#DejaVuSans-6e" transform="translate(695.890625 0)"/>
     <use xlink:href="#DejaVuSans-29" transform="translate(759.269531 0)"/>
    </g>
   </g>
   <g id="text_15">
    <!-- Leiden (15–16) -->
    <g style="fill: #ffffff" transform="translate(356.252344 271.838437) scale(0.1 -0.1)">
     <defs>
      <path id="DejaVuSans-Bold-4c" d="M 588 4666 
L 1791 4666 
L 1791 909 
L 3903 909 
L 3903 0 
L 588 0 
L 588 4666 
z
" transform="scale(0.015625)"/>
      <path id="DejaVuSans-Bold-36" d="M 2316 2303 
Q 2000 2303 1842 2098 
Q 1684 1894 1684 1484 
Q 1684 1075 1842 870 
Q 2000 666 2316 666 
Q 2634 666 2792 870 
Q 2950 1075 2950 1484 
Q 2950 1894 2792 2098 
Q 2634 2303 2316 2303 
z
M 3803 4544 
L 3803 3681 
Q 3506 3822 3243 3889 
Q 2981 3956 2731 3956 
Q 2194 3956 1894 3657 
Q 1594 3359 1544 2772 
Q 1750 2925 1990 3001 
Q 2231 3078 2516 3078 
Q 3231 3078 3670 2659 
Q 4109 2241 4109 1563 
Q 4109 813 3618 361 
Q 3128 -91 2303 -91 
Q 1394 -91 895 523 
Q 397 1138 397 2266 
Q 397 3422 980 4083 
Q 1563 4744 2578 4744 
Q 2900 4744 3203 4694 
Q 3506 4644 3803 4544 
z
" transform="scale(0.015625)"/>
     </defs>
     <use xlink:href="#DejaVuSans-Bold-4c"/>
     <use xlink:href="#DejaVuSans-Bold-65" transform="translate(63.720703 0)"/>
     <use xlink:href="#DejaVuSans-Bold-69" transform="translate(131.542969 0)"/>
     <use xlink:href="#DejaVuSans-Bold-64" transform="translate(165.820312 0)"/>
     <use xlink:href="#DejaVuSans-Bold-65" transform="translate(237.402344 0)"/>
     <use xlink:href="#DejaVuSans-Bold-6e" transform="translate(305.224609 0)"/>
     <use xlink:href="#DejaVuSans-Bold-20" transform="translate(376.416016 0)"/>
     <use xlink:href="#DejaVuSans-Bold-28" transform="translate(411.230469 0)"/>
     <use xlink:href="#DejaVuSans-Bold-31" transform="translate(456.933594 0)"/>
     <use xlink:href="#DejaVuSans-Bold-35" transform="translate(526.513672 0)"/>
     <use xlink:href="#DejaVuSans-Bold-2013" transform="translate(596.09375 0)"/>
     <use xlink:href="#DejaVuSans-Bold-31" transform="translate(646.09375 0)"/>
     <use xlink:href="#DejaVuSans-Bold-36" transform="translate(715.673828 0)"/>
     <use xlink:href="#DejaVuSans-Bold-29" transform="translate(785.253906 0)"/>
    </g>
   </g>
   <g id="text_16">
    <!-- LeidenOrder (15) -->
    <g style="fill: #ffffff" transform="translate(363.6825 293.402125) scale(0.08 -0.08)">
     <defs>
      <path id="DejaVuSans-31" d="M 794 531 
L 1825 531 
L 1825 4091 
L 703 3866 
L 703 4441 
L 1819 4666 
L 2450 4666 
L 2450 531 
L 3481 531 
L 3481 0 
L 794 0 
L 794 531 
z
" transform="scale(0.015625)"/>
      <path id="DejaVuSans-35" d="M 691 4666 
L 3169 4666 
L 3169 4134 
L 1269 4134 
L 1269 2991 
Q 1406 3038 1543 3061 
Q 1681 3084 1819 3084 
Q 2600 3084 3056 2656 
Q 3513 2228 3513 1497 
Q 3513 744 3044 326 
Q 2575 -91 1722 -91 
Q 1428 -91 1123 -41 
Q 819 9 494 109 
L 494 744 
Q 775 591 1075 516 
Q 1375 441 1709 441 
Q 2250 441 2565 725 
Q 2881 1009 2881 1497 
Q 2881 1984 2565 2268 
Q 2250 2553 1709 2553 
Q 1456 2553 1204 2497 
Q 953 2441 691 2322 
L 691 4666 
z
" transform="scale(0.015625)"/>
     </defs>
     <use xlink:href="#DejaVuSans-4c"/>
     <use xlink:href="#DejaVuSans-65" transform="translate(53.962891 0)"/>
     <use xlink:href="#DejaVuSans-69" transform="translate(115.486328 0)"/>
     <use xlink:href="#DejaVuSans-64" transform="translate(143.269531 0)"/>
     <use xlink:href="#DejaVuSans-65" transform="translate(206.746094 0)"/>
     <use xlink:href="#DejaVuSans-6e" transform="translate(268.269531 0)"/>
     <use xlink:href="#DejaVuSans-4f" transform="translate(331.648438 0)"/>
     <use xlink:href="#DejaVuSans-72" transform="translate(410.359375 0)"/>
     <use xlink:href="#DejaVuSans-64" transform="translate(449.722656 0)"/>
     <use xlink:href="#DejaVuSans-65" transform="translate(513.199219 0)"/>
     <use xlink:href="#DejaVuSans-72" transform="translate(574.722656 0)"/>
     <use xlink:href="#DejaVuSans-20" transform="translate(615.835938 0)"/>
     <use xlink:href="#DejaVuSans-28" transform="translate(647.623047 0)"/>
     <use xlink:href="#DejaVuSans-31" transform="translate(686.636719 0)"/>
     <use xlink:href="#DejaVuSans-35" transform="translate(750.259766 0)"/>
     <use xlink:href="#DejaVuSans-29" transform="translate(813.882812 0)"/>
    </g>
    <!-- LeidenCSR (16) -->
    <g style="fill: #ffffff" transform="translate(366.93875 302.96825) scale(0.08 -0.08)">
     <defs>
      <path id="DejaVuSans-36" d="M 2113 2584 
Q 1688 2584 1439 2293 
Q 1191 2003 1191 1497 
Q 1191 994 1439 701 
Q 1688 409 2113 409 
Q 2538 409 2786 701 
Q 3034 994 3034 1497 
Q 3034 2003 2786 2293 
Q 2538 2584 2113 2584 
z
M 3366 4563 
L 3366 3988 
Q 3128 4100 2886 4159 
Q 2644 4219 2406 4219 
Q 1781 4219 1451 3797 
Q 1122 3375 1075 2522 
Q 1259 2794 1537 2939 
Q 1816 3084 2150 3084 
Q 2853 3084 3261 2657 
Q 3669 2231 3669 1497 
Q 3669 778 3244 343 
Q 2819 -91 2113 -91 
Q 1303 -91 875 529 
Q 447 1150 447 2328 
Q 447 3434 972 4092 
Q 1497 4750 2381 4750 
Q 2619 4750 2861 4703 
Q 3103 4656 3366 4563 
z
" transform="scale(0.015625)"/>
     </defs>
     <use xlink:href="#DejaVuSans-4c"/>
     <use xlink:href="#DejaVuSans-65" transform="translate(53.962891 0)"/>
     <use xlink:href="#DejaVuSans-69" transform="translate(115.486328 0)"/>
     <use xlink:href="#DejaVuSans-64" transform="translate(143.269531 0)"/>
     <use xlink:href="#DejaVuSans-65" transform="translate(206.746094 0)"/>
     <use xlink:href="#DejaVuSans-6e" transform="translate(268.269531 0)"/>
     <use xlink:href="#DejaVuSans-43" transform="translate(331.648438 0)"/>
     <use xlink:href="#DejaVuSans-53" transform="translate(401.472656 0)"/>
     <use xlink:href="#DejaVuSans-52" transform="translate(464.949219 0)"/>
     <use xlink:href="#DejaVuSans-20" transform="translate(534.431641 0)"/>
     <use xlink:href="#DejaVuSans-28" transform="translate(566.21875 0)"/>
     <use xlink:href="#DejaVuSans-31" transform="translate(605.232422 0)"/>
     <use xlink:href="#DejaVuSans-36" transform="translate(668.855469 0)"/>
     <use xlink:href="#DejaVuSans-29" transform="translate(732.478516 0)"/>
    </g>
   </g>
   <g id="patch_10">
    <path d="M 92.899182 349.776 
Q 202.498827 349.776 309.862405 349.776 
" style="fill: none; stroke: #264653; stroke-width: 2; stroke-linecap: round"/>
    <path d="M 305.462405 347.576 
L 309.862405 349.776 
L 305.462405 351.976 
" style="fill: none; stroke: #264653; stroke-width: 2; stroke-linecap: round"/>
   </g>
   <g id="text_17">
    <!-- More Sophisticated → Better Cache Locality -->
    <g style="fill: #264653" transform="translate(93.45 356.904) scale(0.1 -0.1)">
     <defs>
      <path id="DejaVuSans-Oblique-4d" d="M 1081 4666 
L 2028 4666 
L 2572 1522 
L 4378 4666 
L 5350 4666 
L 4441 0 
L 3828 0 
L 4622 4091 
L 2791 897 
L 2175 897 
L 1581 4103 
L 788 0 
L 172 0 
L 1081 4666 
z
" transform="scale(0.015625)"/>
      <path id="DejaVuSans-Oblique-6f" d="M 1625 -91 
Q 1009 -91 651 289 
Q 294 669 294 1325 
Q 294 1706 417 2101 
Q 541 2497 738 2766 
Q 1047 3184 1428 3384 
Q 1809 3584 2291 3584 
Q 2888 3584 3255 3212 
Q 3622 2841 3622 2241 
Q 3622 1825 3500 1412 
Q 3378 1000 3181 728 
Q 2875 309 2494 109 
Q 2113 -91 1625 -91 
z
M 891 1344 
Q 891 869 1089 633 
Q 1288 397 1691 397 
Q 2269 397 2648 901 
Q 3028 1406 3028 2181 
Q 3028 2634 2825 2865 
Q 2622 3097 2228 3097 
Q 1903 3097 1650 2945 
Q 1397 2794 1197 2484 
Q 1050 2253 970 1956 
Q 891 1659 891 1344 
z
" transform="scale(0.015625)"/>
      <path id="DejaVuSans-Oblique-72" d="M 2853 2969 
Q 2766 3016 2653 3041 
Q 2541 3066 2413 3066 
Q 1953 3066 1609 2717 
Q 1266 2369 1153 1784 
L 800 0 
L 225 0 
L 909 3500 
L 1484 3500 
L 1375 2956 
Q 1603 3259 1920 3421 
Q 2238 3584 2597 3584 
Q 2691 3584 2781 3573 
Q 2872 3563 2963 3538 
L 2853 2969 
z
" transform="scale(0.015625)"/>
      <path id="DejaVuSans-Oblique-65" d="M 3078 2063 
Q 3088 2113 3092 2166 
Q 3097 2219 3097 2272 
Q 3097 2653 2873 2875 
Q 2650 3097 2266 3097 
Q 1838 3097 1509 2826 
Q 1181 2556 1013 2059 
L 3078 2063 
z
M 3578 1613 
L 903 1613 
Q 884 1494 878 1425 
Q 872 1356 872 1306 
Q 872 872 1139 634 
Q 1406 397 1894 397 
Q 2269 397 2603 481 
Q 2938 566 3225 728 
L 3116 159 
Q 2806 34 2476 -28 
Q 2147 -91 1806 -91 
Q 1078 -91 686 257 
Q 294 606 294 1247 
Q 294 1794 489 2264 
Q 684 2734 1063 3103 
Q 1306 3334 1642 3459 
Q 1978 3584 2356 3584 
Q 2950 3584 3301 3228 
Q 3653 2872 3653 2272 
Q 3653 2128 3634 1964 
Q 3616 1800 3578 1613 
z
" transform="scale(0.015625)"/>
      <path id="DejaVuSans-Oblique-20" transform="scale(0.015625)"/>
      <path id="DejaVuSans-Oblique-53" d="M 3859 4513 
L 3738 3897 
Q 3422 4066 3111 4152 
Q 2800 4238 2509 4238 
Q 1944 4238 1609 3991 
Q 1275 3744 1275 3334 
Q 1275 3109 1398 2989 
Q 1522 2869 2034 2731 
L 2413 2638 
Q 3053 2472 3303 2217 
Q 3553 1963 3553 1503 
Q 3553 797 2998 353 
Q 2444 -91 1538 -91 
Q 1166 -91 791 -17 
Q 416 56 38 206 
L 166 856 
Q 513 641 861 531 
Q 1209 422 1556 422 
Q 2147 422 2503 684 
Q 2859 947 2859 1369 
Q 2859 1650 2717 1795 
Q 2575 1941 2106 2059 
L 1728 2156 
Q 1081 2325 845 2545 
Q 609 2766 609 3163 
Q 609 3859 1145 4304 
Q 1681 4750 2541 4750 
Q 2875 4750 3203 4690 
Q 3531 4631 3859 4513 
z
" transform="scale(0.015625)"/>
      <path id="DejaVuSans-Oblique-70" d="M 3175 2156 
Q 3175 2616 2975 2859 
Q 2775 3103 2400 3103 
Q 2144 3103 1911 2972 
Q 1678 2841 1497 2591 
Q 1319 2344 1212 1994 
Q 1106 1644 1106 1300 
Q 1106 863 1306 627 
Q 1506 391 1875 391 
Q 2147 391 2380 519 
Q 2613 647 2778 891 
Q 2956 1147 3065 1494 
Q 3175 1841 3175 2156 
z
M 1394 2969 
Q 1625 3272 1939 3428 
Q 2253 3584 2638 3584 
Q 3175 3584 3472 3232 
Q 3769 2881 3769 2247 
Q 3769 1728 3584 1258 
Q 3400 788 3053 416 
Q 2822 169 2531 39 
Q 2241 -91 1919 -91 
Q 1547 -91 1294 64 
Q 1041 219 916 525 
L 556 -1331 
L -19 -1331 
L 922 3500 
L 1497 3500 
L 1394 2969 
z
" transform="scale(0.015625)"/>
      <path id="DejaVuSans-Oblique-68" d="M 3566 2113 
L 3156 0 
L 2578 0 
L 2988 2091 
Q 3016 2238 3031 2350 
Q 3047 2463 3047 2528 
Q 3047 2791 2881 2937 
Q 2716 3084 2419 3084 
Q 1956 3084 1617 2771 
Q 1278 2459 1178 1941 
L 800 0 
L 225 0 
L 1172 4863 
L 1747 4863 
L 1375 2950 
Q 1594 3244 1934 3414 
Q 2275 3584 2650 3584 
Q 3113 3584 3367 3334 
Q 3622 3084 3622 2631 
Q 3622 2519 3608 2391 
Q 3594 2263 3566 2113 
z
" transform="scale(0.015625)"/>
      <path id="DejaVuSans-Oblique-69" d="M 1172 4863 
L 1747 4863 
L 1606 4134 
L 1031 4134 
L 1172 4863 
z
M 909 3500 
L 1484 3500 
L 800 0 
L 225 0 
L 909 3500 
z
" transform="scale(0.015625)"/>
      <path id="DejaVuSans-Oblique-73" d="M 3200 3397 
L 3091 2853 
Q 2863 2978 2609 3040 
Q 2356 3103 2088 3103 
Q 1634 3103 1373 2948 
Q 1113 2794 1113 2528 
Q 1113 2219 1719 2053 
Q 1766 2041 1788 2034 
L 1972 1978 
Q 2547 1819 2739 1644 
Q 2931 1469 2931 1166 
Q 2931 609 2489 259 
Q 2047 -91 1331 -91 
Q 1053 -91 747 -37 
Q 441 16 72 128 
L 184 722 
Q 500 559 806 475 
Q 1113 391 1394 391 
Q 1816 391 2080 572 
Q 2344 753 2344 1031 
Q 2344 1331 1650 1516 
L 1591 1531 
L 1394 1581 
Q 956 1697 753 1886 
Q 550 2075 550 2369 
Q 550 2928 970 3256 
Q 1391 3584 2113 3584 
Q 2397 3584 2667 3537 
Q 2938 3491 3200 3397 
z
" transform="scale(0.015625)"/>
      <path id="DejaVuSans-Oblique-74" d="M 2706 3500 
L 2619 3053 
L 1472 3053 
L 1100 1153 
Q 1081 1047 1072 975 
Q 1063 903 1063 863 
Q 1063 663 1183 572 
Q 1303 481 1569 481 
L 2150 481 
L 2053 0 
L 1503 0 
Q 991 0 739 200 
Q 488 400 488 806 
Q 488 878 497 964 
Q 506 1050 525 1153 
L 897 3053 
L 409 3053 
L 500 3500 
L 978 3500 
L 1172 4494 
L 1747 4494 
L 1556 3500 
L 2706 3500 
z
" transform="scale(0.015625)"/>
      <path id="DejaVuSans-Oblique-63" d="M 3431 3366 
L 3316 2797 
Q 3109 2947 2876 3022 
Q 2644 3097 2394 3097 
Q 2119 3097 1870 3000 
Q 1622 2903 1453 2725 
Q 1184 2453 1037 2087 
Q 891 1722 891 1331 
Q 891 859 1127 628 
Q 1363 397 1844 397 
Q 2081 397 2348 469 
Q 2616 541 2906 684 
L 2797 116 
Q 2547 13 2283 -39 
Q 2019 -91 1741 -91 
Q 1044 -91 669 257 
Q 294 606 294 1253 
Q 294 1797 489 2255 
Q 684 2713 1069 3078 
Q 1331 3328 1684 3456 
Q 2038 3584 2456 3584 
Q 2700 3584 2940 3529 
Q 3181 3475 3431 3366 
z
" transform="scale(0.015625)"/>
      <path id="DejaVuSans-Oblique-61" d="M 3438 1997 
L 3047 0 
L 2472 0 
L 2578 531 
Q 2325 219 2001 64 
Q 1678 -91 1281 -91 
Q 834 -91 548 182 
Q 263 456 263 884 
Q 263 1497 752 1853 
Q 1241 2209 2100 2209 
L 2900 2209 
L 2931 2363 
Q 2938 2388 2941 2417 
Q 2944 2447 2944 2509 
Q 2944 2788 2717 2942 
Q 2491 3097 2081 3097 
Q 1800 3097 1504 3025 
Q 1209 2953 897 2809 
L 997 3341 
Q 1322 3463 1633 3523 
Q 1944 3584 2234 3584 
Q 2853 3584 3176 3315 
Q 3500 3047 3500 2534 
Q 3500 2431 3484 2292 
Q 3469 2153 3438 1997 
z
M 2816 1759 
L 2241 1759 
Q 1534 1759 1195 1570 
Q 856 1381 856 984 
Q 856 709 1029 553 
Q 1203 397 1509 397 
Q 1978 397 2328 733 
Q 2678 1069 2791 1631 
L 2816 1759 
z
" transform="scale(0.015625)"/>
      <path id="DejaVuSans-Oblique-64" d="M 2675 525 
Q 2444 222 2128 65 
Q 1813 -91 1428 -91 
Q 903 -91 598 267 
Q 294 625 294 1247 
Q 294 1766 478 2236 
Q 663 2706 1013 3078 
Q 1244 3325 1534 3454 
Q 1825 3584 2144 3584 
Q 2481 3584 2739 3421 
Q 2997 3259 3138 2956 
L 3513 4863 
L 4091 4863 
L 3144 0 
L 2566 0 
L 2675 525 
z
M 891 1350 
Q 891 897 1095 644 
Q 1300 391 1663 391 
Q 1931 391 2161 520 
Q 2391 650 2566 903 
Q 2750 1166 2856 1509 
Q 2963 1853 2963 2188 
Q 2963 2622 2758 2865 
Q 2553 3109 2194 3109 
Q 1922 3109 1687 2981 
Q 1453 2853 1288 2613 
Q 1106 2353 998 2009 
Q 891 1666 891 1350 
z
" transform="scale(0.015625)"/>
      <path id="DejaVuSans-Oblique-2192" d="M 5050 2147 
L 5050 1866 
L 3822 638 
L 3447 1013 
L 4175 1741 
L 366 1741 
L 366 2272 
L 4175 2272 
L 3447 3000 
L 3822 3375 
L 5050 2147 
z
" transform="scale(0.015625)"/>
      <path id="DejaVuSans-Oblique-42" d="M 1081 4666 
L 2694 4666 
Q 3350 4666 3675 4422 
Q 4000 4178 4000 3688 
Q 4000 3238 3720 2911 
Q 3441 2584 2988 2516 
Q 3375 2428 3569 2181 
Q 3763 1934 3763 1522 
Q 3763 819 3242 409 
Q 2722 0 1819 0 
L 172 0 
L 1081 4666 
z
M 1234 2228 
L 903 519 
L 1919 519 
Q 2491 519 2800 781 
Q 3109 1044 3109 1522 
Q 3109 1891 2904 2059 
Q 2700 2228 2247 2228 
L 1234 2228 
z
M 1606 4147 
L 1331 2741 
L 2272 2741 
Q 2775 2741 3058 2959 
Q 3341 3178 3341 3566 
Q 3341 3869 3150 4008 
Q 2959 4147 2541 4147 
L 1606 4147 
z
" transform="scale(0.015625)"/>
      <path id="DejaVuSans-Oblique-43" d="M 4447 4306 
L 4319 3641 
Q 4019 3944 3683 4091 
Q 3347 4238 2956 4238 
Q 2422 4238 2017 3981 
Q 1613 3725 1319 3200 
Q 1131 2863 1032 2486 
Q 934 2109 934 1728 
Q 934 1091 1264 756 
Q 1594 422 2222 422 
Q 2656 422 3056 561 
Q 3456 700 3834 978 
L 3688 231 
Q 3316 72 2936 -9 
Q 2556 -91 2175 -91 
Q 1278 -91 773 396 
Q 269 884 269 1753 
Q 269 2309 461 2846 
Q 653 3384 1013 3828 
Q 1394 4300 1883 4525 
Q 2372 4750 3022 4750 
Q 3422 4750 3780 4639 
Q 4138 4528 4447 4306 
z
" transform="scale(0.015625)"/>
      <path id="DejaVuSans-Oblique-4c" d="M 1075 4666 
L 1709 4666 
L 909 525 
L 3181 525 
L 3078 0 
L 172 0 
L 1075 4666 
z
" transform="scale(0.015625)"/>
      <path id="DejaVuSans-Oblique-6c" d="M 1172 4863 
L 1747 4863 
L 800 0 
L 225 0 
L 1172 4863 
z
" transform="scale(0.015625)"/>
      <path id="DejaVuSans-Oblique-79" d="M 1588 -325 
Q 1188 -997 936 -1164 
Q 684 -1331 294 -1331 
L -159 -1331 
L -63 -850 
L 269 -850 
Q 509 -850 678 -719 
Q 847 -588 1056 -206 
L 1234 128 
L 459 3500 
L 1069 3500 
L 1650 819 
L 3256 3500 
L 3859 3500 
L 1588 -325 
z
" transform="scale(0.015625)"/>
     </defs>
     <use xlink:href="#DejaVuSans-Oblique-4d"/>
     <use xlink:href="#DejaVuSans-Oblique-6f" transform="translate(86.279297 0)"/>
     <use xlink:href="#DejaVuSans-Oblique-72" transform="translate(147.460938 0)"/>
     <use xlink:href="#DejaVuSans-Oblique-65" transform="translate(188.574219 0)"/>
     <use xlink:href="#DejaVuSans-Oblique-20" transform="translate(250.097656 0)"/>
     <use xlink:href="#DejaVuSans-Oblique-53" transform="translate(281.884766 0)"/>
     <use xlink:href="#DejaVuSans-Oblique-6f" transform="translate(345.361328 0)"/>
     <use xlink:href="#DejaVuSans-Oblique-70" transform="translate(406.542969 0)"/>
     <use xlink:href="#DejaVuSans-Oblique-68" transform="translate(470.019531 0)"/>
     <use xlink:href="#DejaVuSans-Oblique-69" transform="translate(533.398438 0)"/>
     <use xlink:href="#DejaVuSans-Oblique-73" transform="translate(561.181641 0)"/>
     <use xlink:href="#DejaVuSans-Oblique-74" transform="translate(613.28125 0)"/>
     <use xlink:href="#DejaVuSans-Oblique-69" transform="translate(652.490234 0)"/>
     <use xlink:href="#DejaVuSans-Oblique-63" transform="translate(680.273438 0)"/>
     <use xlink:href="#DejaVuSans-Oblique-61" transform="translate(735.253906 0)"/>
     <use xlink:href="#DejaVuSans-Oblique-74" transform="translate(796.533203 0)"/>
     <use xlink:href="#DejaVuSans-Oblique-65" transform="translate(835.742188 0)"/>
     <use xlink:href="#DejaVuSans-Oblique-64" transform="translate(897.265625 0)"/>
     <use xlink:href="#DejaVuSans-Oblique-20" transform="translate(960.742188 0)"/>
     <use xlink:href="#DejaVuSans-Oblique-2192" transform="translate(992.529297 0)"/>
     <use xlink:href="#DejaVuSans-Oblique-20" transform="translate(1076.318359 0)"/>
     <use xlink:href="#DejaVuSans-Oblique-42" transform="translate(1108.105469 0)"/>
     <use xlink:href="#DejaVuSans-Oblique-65" transform="translate(1176.708984 0)"/>
     <use xlink:href="#DejaVuSans-Oblique-74" transform="translate(1238.232422 0)"/>
     <use xlink:href="#DejaVuSans-Oblique-74" transform="translate(1277.441406 0)"/>
     <use xlink:href="#DejaVuSans-Oblique-65" transform="translate(1316.650391 0)"/>
     <use xlink:href="#DejaVuSans-Oblique-72" transform="translate(1378.173828 0)"/>
     <use xlink:href="#DejaVuSans-Oblique-20" transform="translate(1419.287109 0)"/>
     <use xlink:href="#DejaVuSans-Oblique-43" transform="translate(1451.074219 0)"/>
     <use xlink:href="#DejaVuSans-Oblique-61" transform="translate(1520.898438 0)"/>
     <use xlink:href="#DejaVuSans-Oblique-63" transform="translate(1582.177734 0)"/>
     <use xlink:href="#DejaVuSans-Oblique-68" transform="translate(1637.158203 0)"/>
     <use xlink:href="#DejaVuSans-Oblique-65" transform="translate(1700.537109 0)"/>
     <use xlink:href="#DejaVuSans-Oblique-20" transform="translate(1762.060547 0)"/>
     <use xlink:href="#DejaVuSans-Oblique-4c" transform="translate(1793.847656 0)"/>
     <use xlink:href="#DejaVuSans-Oblique-6f" transform="translate(1849.560547 0)"/>
     <use xlink:href="#DejaVuSans-Oblique-63" transform="translate(1910.742188 0)"/>
     <use xlink:href="#DejaVuSans-Oblique-61" transform="translate(1965.722656 0)"/>
     <use xlink:href="#DejaVuSans-Oblique-6c" transform="translate(2027.001953 0)"/>
     <use xlink:href="#DejaVuSans-Oblique-69" transform="translate(2054.785156 0)"/>
     <use xlink:href="#DejaVuSans-Oblique-74" transform="translate(2082.568359 0)"/>
     <use xlink:href="#DejaVuSans-Oblique-79" transform="translate(2121.777344 0)"/>
    </g>
   </g>
  </g>
  <g id="text_18">
   <!-- GraphBrew: Algorithm Categories -->
   <g transform="translate(178.92375 19.3575) scale(0.16 -0.16)">
    <defs>
     <path id="DejaVuSans-Bold-3a" d="M 716 3500 
L 1844 3500 
L 1844 2291 
L 716 2291 
L 716 3500 
z
M 716 1209 
L 1844 1209 
L 1844 0 
L 716 0 
L 716 1209 
z
" transform="scale(0.015625)"/>
     <path id="DejaVuSans-Bold-67" d="M 2919 594 
Q 2688 288 2409 144 
Q 2131 0 1766 0 
Q 1125 0 706 504 
Q 288 1009 288 1791 
Q 288 2575 706 3076 
Q 1125 3578 1766 3578 
Q 2131 3578 2409 3434 
Q 2688 3291 2919 2981 
L 2919 3500 
L 4044 3500 
L 4044 353 
Q 4044 -491 3511 -936 
Q 2978 -1381 1966 -1381 
Q 1638 -1381 1331 -1331 
Q 1025 -1281 716 -1178 
L 716 -306 
Q 1009 -475 1290 -558 
Q 1572 -641 1856 -641 
Q 2406 -641 2662 -400 
Q 2919 -159 2919 353 
L 2919 594 
z
M 2181 2772 
Q 1834 2772 1640 2515 
Q 1447 2259 1447 1791 
Q 1447 1309 1634 1061 
Q 1822 813 2181 813 
Q 2531 813 2725 1069 
Q 2919 1325 2919 1791 
Q 2919 2259 2725 2515 
Q 2531 2772 2181 2772 
z
" transform="scale(0.015625)"/>
    </defs>
    <use xlink:href="#DejaVuSans-Bold-47"/>
    <use xlink:href="#DejaVuSans-Bold-72" transform="translate(82.080078 0)"/>
    <use xlink:href="#DejaVuSans-Bold-61" transform="translate(131.396484 0)"/>
    <use xlink:href="#DejaVuSans-Bold-70" transform="translate(198.876953 0)"/>
    <use xlink:href="#DejaVuSans-Bold-68" transform="translate(270.458984 0)"/>
    <use xlink:href="#DejaVuSans-Bold-42" transform="translate(341.650391 0)"/>
    <use xlink:href="#DejaVuSans-Bold-72" transform="translate(417.871094 0)"/>
    <use xlink:href="#DejaVuSans-Bold-65" transform="translate(467.1875 0)"/>
    <use xlink:href="#DejaVuSans-Bold-77" transform="translate(535.009766 0)"/>
    <use xlink:href="#DejaVuSans-Bold-3a" transform="translate(627.392578 0)"/>
    <use xlink:href="#DejaVuSans-Bold-20" transform="translate(667.382812 0)"/>
    <use xlink:href="#DejaVuSans-Bold-41" transform="translate(702.197266 0)"/>
    <use xlink:href="#DejaVuSans-Bold-6c" transform="translate(779.589844 0)"/>
    <use xlink:href="#DejaVuSans-Bold-67" transform="translate(813.867188 0)"/>
    <use xlink:href="#DejaVuSans-Bold-6f" transform="translate(885.449219 0)"/>
    <use xlink:href="#DejaVuSans-Bold-72" transform="translate(954.150391 0)"/>
    <use xlink:href="#DejaVuSans-Bold-69" transform="translate(1003.466797 0)"/>
    <use xlink:href="#DejaVuSans-Bold-74" transform="translate(1037.744141 0)"/>
    <use xlink:href="#DejaVuSans-Bold-68" transform="translate(1085.546875 0)"/>
    <use xlink:href="#DejaVuSans-Bold-6d" transform="translate(1156.738281 0)"/>
    <use xlink:href="#DejaVuSans-Bold-20" transform="translate(1260.9375 0)"/>
    <use xlink:href="#DejaVuSans-Bold-43" transform="translate(1295.751953 0)"/>
    <use xlink:href="#DejaVuSans-Bold-61" transform="translate(1369.140625 0)"/>
    <use xlink:href="#DejaVuSans-Bold-74" transform="translate(1436.621094 0)"/>
    <use xlink:href="#DejaVuSans-Bold-65" transform="translate(1484.423828 0)"/>
    <use xlink:href="#DejaVuSans-Bold-67" transform="translate(1552.246094 0)"/>
    <use xlink:href="#DejaVuSans-Bold-6f" transform="translate(1623.828125 0)"/>
    <use xlink:href="#DejaVuSans-Bold-72" transform="translate(1692.529297 0)"/>
    <use xlink:href="#DejaVuSans-Bold-69" transform="translate(1741.845703 0)"/>
    <use xlink:href="#DejaVuSans-Bold-65" transform="translate(1776.123047 0)"/>
    <use xlink:href="#DejaVuSans-Bold-73" transform="translate(1843.945312 0)"/>
   </g>
  </g>
 </g>
 <defs>
  <clipPath id="pd7bda1da28">
   <rect x="7.2" y="50.4" width="669.6" height="332.64"/>
  </clipPath>
 </defs>
</svg>
