<?xml version="1.0" encoding="utf-8" standalone="no"?>
<!DOCTYPE svg PUBLIC "-//W3C//DTD SVG 1.1//EN"
  "http://www.w3.org/Graphics/SVG/1.1/DTD/svg11.dtd">
<svg xmlns:xlink="http://www.w3.org/1999/xlink" width="250.312734pt" height="163.152127pt" viewBox="0 0 250.312734 163.152127" xmlns="http://www.w3.org/2000/svg" version="1.1">
 <metadata>
  <rdf:RDF xmlns:dc="http://purl.org/dc/elements/1.1/" xmlns:cc="http://creativecommons.org/ns#" xmlns:rdf="http://www.w3.org/1999/02/22-rdf-syntax-ns#">
   <cc:Work>
    <dc:type rdf:resource="http://purl.org/dc/dcmitype/StillImage"/>
    <dc:date>2026-05-28T17:25:53.859277</dc:date>
    <dc:format>image/svg+xml</dc:format>
    <dc:creator>
     <cc:Agent>
      <dc:title>Matplotlib v3.10.9, https://matplotlib.org/</dc:title>
     </cc:Agent>
    </dc:creator>
   </cc:Work>
  </rdf:RDF>
 </metadata>
 <defs>
  <style type="text/css">*{stroke-linejoin: round; stroke-linecap: butt}</style>
 </defs>
 <g id="figure_1">
  <g id="patch_1">
   <path d="M 0 163.152127 
L 250.312734 163.152127 
L 250.312734 0 
L 0 0 
z
" style="fill: #ffffff"/>
  </g>
  <g id="axes_1">
   <g id="patch_2">
    <path d="M 38.692734 142.661345 
L 243.112734 142.661345 
L 243.112734 43.015265 
L 38.692734 43.015265 
z
" style="fill: #ffffff"/>
   </g>
   <g id="patch_3">
    <path d="M 47.984553 66.738465 
L 52.070154 66.738465 
L 52.070154 66.738465 
L 47.984553 66.738465 
z
" clip-path="url(#p253128ef4b)" style="fill: #bdbdbd; stroke: #000000; stroke-width: 0.42; stroke-linejoin: miter"/>
   </g>
   <g id="patch_4">
    <path d="M 96.725818 66.738465 
L 100.811419 66.738465 
L 100.811419 66.738465 
L 96.725818 66.738465 
z
" clip-path="url(#p253128ef4b)" style="fill: #bdbdbd; stroke: #000000; stroke-width: 0.42; stroke-linejoin: miter"/>
   </g>
   <g id="patch_5">
    <path d="M 145.467083 66.738465 
L 149.552684 66.738465 
L 149.552684 66.738465 
L 145.467083 66.738465 
z
" clip-path="url(#p253128ef4b)" style="fill: #bdbdbd; stroke: #000000; stroke-width: 0.42; stroke-linejoin: miter"/>
   </g>
   <g id="patch_6">
    <path d="M 194.208348 66.738465 
L 198.29395 66.738465 
L 198.29395 66.738465 
L 194.208348 66.738465 
z
" clip-path="url(#p253128ef4b)" style="fill: #bdbdbd; stroke: #000000; stroke-width: 0.42; stroke-linejoin: miter"/>
   </g>
   <g id="patch_7">
    <path d="M 52.425423 66.738465 
L 56.511025 66.738465 
L 56.511025 52.816519 
L 52.425423 52.816519 
z
" clip-path="url(#p253128ef4b)" style="fill: #8e8e8e; stroke: #000000; stroke-width: 0.42; stroke-linejoin: miter"/>
   </g>
   <g id="patch_8">
    <path d="M 101.166689 66.738465 
L 105.25229 66.738465 
L 105.25229 57.741978 
L 101.166689 57.741978 
z
" clip-path="url(#p253128ef4b)" style="fill: #8e8e8e; stroke: #000000; stroke-width: 0.42; stroke-linejoin: miter"/>
   </g>
   <g id="patch_9">
    <path d="M 149.907954 66.738465 
L 153.993555 66.738465 
L 153.993555 66.104301 
L 149.907954 66.104301 
z
" clip-path="url(#p253128ef4b)" style="fill: #8e8e8e; stroke: #000000; stroke-width: 0.42; stroke-linejoin: miter"/>
   </g>
   <g id="patch_10">
    <path d="M 198.649219 66.738465 
L 202.73482 66.738465 
L 202.73482 58.887599 
L 198.649219 58.887599 
z
" clip-path="url(#p253128ef4b)" style="fill: #8e8e8e; stroke: #000000; stroke-width: 0.42; stroke-linejoin: miter"/>
   </g>
   <g id="patch_11">
    <path d="M 56.866294 66.738465 
L 60.951895 66.738465 
L 60.951895 91.031377 
L 56.866294 91.031377 
z
" clip-path="url(#p253128ef4b)" style="fill: #4c78a8; stroke: #000000; stroke-width: 0.42; stroke-linejoin: miter"/>
   </g>
   <g id="patch_12">
    <path d="M 105.607559 66.738465 
L 109.693161 66.738465 
L 109.693161 119.611011 
L 105.607559 119.611011 
z
" clip-path="url(#p253128ef4b)" style="fill: #4c78a8; stroke: #000000; stroke-width: 0.42; stroke-linejoin: miter"/>
   </g>
   <g id="patch_13">
    <path d="M 154.348825 66.738465 
L 158.434426 66.738465 
L 158.434426 72.909682 
L 154.348825 72.909682 
z
" clip-path="url(#p253128ef4b)" style="fill: #4c78a8; stroke: #000000; stroke-width: 0.42; stroke-linejoin: miter"/>
   </g>
   <g id="patch_14">
    <path d="M 203.09009 66.738465 
L 207.175691 66.738465 
L 207.175691 94.517357 
L 203.09009 94.517357 
z
" clip-path="url(#p253128ef4b)" style="fill: #4c78a8; stroke: #000000; stroke-width: 0.42; stroke-linejoin: miter"/>
   </g>
   <g id="patch_15">
    <path d="M 61.307165 66.738465 
L 65.392766 66.738465 
L 65.392766 90.03439 
L 61.307165 90.03439 
z
" clip-path="url(#p253128ef4b)" style="fill: url(#h70fb4dd5cf); stroke: #000000; stroke-width: 0.42; stroke-linejoin: miter"/>
   </g>
   <g id="patch_16">
    <path d="M 110.04843 66.738465 
L 114.134031 66.738465 
L 114.134031 121.120317 
L 110.04843 121.120317 
z
" clip-path="url(#p253128ef4b)" style="fill: url(#h70fb4dd5cf); stroke: #000000; stroke-width: 0.42; stroke-linejoin: miter"/>
   </g>
   <g id="patch_17">
    <path d="M 158.789696 66.738465 
L 162.875297 66.738465 
L 162.875297 74.730704 
L 158.789696 74.730704 
z
" clip-path="url(#p253128ef4b)" style="fill: url(#h70fb4dd5cf); stroke: #000000; stroke-width: 0.42; stroke-linejoin: miter"/>
   </g>
   <g id="patch_18">
    <path d="M 207.530961 66.738465 
L 211.616562 66.738465 
L 211.616562 95.295137 
L 207.530961 95.295137 
z
" clip-path="url(#p253128ef4b)" style="fill: url(#h70fb4dd5cf); stroke: #000000; stroke-width: 0.42; stroke-linejoin: miter"/>
   </g>
   <g id="patch_19">
    <path d="M 65.748036 66.738465 
L 69.833637 66.738465 
L 69.833637 75.534356 
L 65.748036 75.534356 
z
" clip-path="url(#p253128ef4b)" style="fill: #f58518; stroke: #000000; stroke-width: 0.42; stroke-linejoin: miter"/>
   </g>
   <g id="patch_20">
    <path d="M 114.489301 66.738465 
L 118.574902 66.738465 
L 118.574902 71.059147 
L 114.489301 71.059147 
z
" clip-path="url(#p253128ef4b)" style="fill: #f58518; stroke: #000000; stroke-width: 0.42; stroke-linejoin: miter"/>
   </g>
   <g id="patch_21">
    <path d="M 163.230566 66.738465 
L 167.316168 66.738465 
L 167.316168 59.585004 
L 163.230566 59.585004 
z
" clip-path="url(#p253128ef4b)" style="fill: #f58518; stroke: #000000; stroke-width: 0.42; stroke-linejoin: miter"/>
   </g>
   <g id="patch_22">
    <path d="M 211.971832 66.738465 
L 216.057433 66.738465 
L 216.057433 68.726169 
L 211.971832 68.726169 
z
" clip-path="url(#p253128ef4b)" style="fill: #f58518; stroke: #000000; stroke-width: 0.42; stroke-linejoin: miter"/>
   </g>
   <g id="patch_23">
    <path d="M 70.188907 66.738465 
L 74.274508 66.738465 
L 74.274508 63.936804 
L 70.188907 63.936804 
z
" clip-path="url(#p253128ef4b)" style="fill: #8cd17d; stroke: #000000; stroke-width: 0.42; stroke-linejoin: miter"/>
   </g>
   <g id="patch_24">
    <path d="M 118.930172 66.738465 
L 123.015773 66.738465 
L 123.015773 134.493634 
L 118.930172 134.493634 
z
" clip-path="url(#p253128ef4b)" style="fill: #8cd17d; stroke: #000000; stroke-width: 0.42; stroke-linejoin: miter"/>
   </g>
   <g id="patch_25">
    <path d="M 167.671437 66.738465 
L 171.757038 66.738465 
L 171.757038 72.443092 
L 167.671437 72.443092 
z
" clip-path="url(#p253128ef4b)" style="fill: #8cd17d; stroke: #000000; stroke-width: 0.42; stroke-linejoin: miter"/>
   </g>
   <g id="patch_26">
    <path d="M 216.412703 66.738465 
L 220.498304 66.738465 
L 220.498304 90.291177 
L 216.412703 90.291177 
z
" clip-path="url(#p253128ef4b)" style="fill: #8cd17d; stroke: #000000; stroke-width: 0.42; stroke-linejoin: miter"/>
   </g>
   <g id="patch_27">
    <path d="M 74.629778 66.738465 
L 78.715379 66.738465 
L 78.715379 68.855715 
L 74.629778 68.855715 
z
" clip-path="url(#p253128ef4b)" style="fill: url(#h7a7b6f94e2); stroke: #000000; stroke-width: 0.42; stroke-linejoin: miter"/>
   </g>
   <g id="patch_28">
    <path d="M 123.371043 66.738465 
L 127.456644 66.738465 
L 127.456644 121.935459 
L 123.371043 121.935459 
z
" clip-path="url(#p253128ef4b)" style="fill: url(#h7a7b6f94e2); stroke: #000000; stroke-width: 0.42; stroke-linejoin: miter"/>
   </g>
   <g id="patch_29">
    <path d="M 172.112308 66.738465 
L 176.197909 66.738465 
L 176.197909 75.094449 
L 172.112308 75.094449 
z
" clip-path="url(#p253128ef4b)" style="fill: url(#h7a7b6f94e2); stroke: #000000; stroke-width: 0.42; stroke-linejoin: miter"/>
   </g>
   <g id="patch_30">
    <path d="M 220.853573 66.738465 
L 224.939175 66.738465 
L 224.939175 88.628541 
L 220.853573 88.628541 
z
" clip-path="url(#p253128ef4b)" style="fill: url(#h7a7b6f94e2); stroke: #000000; stroke-width: 0.42; stroke-linejoin: miter"/>
   </g>
   <g id="patch_31">
    <path d="M 79.070648 66.738465 
L 83.15625 66.738465 
L 83.15625 63.00099 
L 79.070648 63.00099 
z
" clip-path="url(#p253128ef4b)" style="fill: #54a24b; stroke: #000000; stroke-width: 0.42; stroke-linejoin: miter"/>
   </g>
   <g id="patch_32">
    <path d="M 127.811914 66.738465 
L 131.897515 66.738465 
L 131.897515 119.053593 
L 127.811914 119.053593 
z
" clip-path="url(#p253128ef4b)" style="fill: #54a24b; stroke: #000000; stroke-width: 0.42; stroke-linejoin: miter"/>
   </g>
   <g id="patch_33">
    <path d="M 176.553179 66.738465 
L 180.63878 66.738465 
L 180.63878 69.716867 
L 176.553179 69.716867 
z
" clip-path="url(#p253128ef4b)" style="fill: #54a24b; stroke: #000000; stroke-width: 0.42; stroke-linejoin: miter"/>
   </g>
   <g id="patch_34">
    <path d="M 225.294444 66.738465 
L 229.380045 66.738465 
L 229.380045 83.923817 
L 225.294444 83.923817 
z
" clip-path="url(#p253128ef4b)" style="fill: #54a24b; stroke: #000000; stroke-width: 0.42; stroke-linejoin: miter"/>
   </g>
   <g id="patch_35">
    <path d="M 83.511519 66.738465 
L 87.59712 66.738465 
L 87.59712 79.713609 
L 83.511519 79.713609 
z
" clip-path="url(#p253128ef4b)" style="fill: #b279a2; stroke: #000000; stroke-width: 0.42; stroke-linejoin: miter"/>
   </g>
   <g id="patch_36">
    <path d="M 132.252784 66.738465 
L 136.338386 66.738465 
L 136.338386 74.829864 
L 132.252784 74.829864 
z
" clip-path="url(#p253128ef4b)" style="fill: #b279a2; stroke: #000000; stroke-width: 0.42; stroke-linejoin: miter"/>
   </g>
   <g id="patch_37">
    <path d="M 180.99405 66.738465 
L 185.079651 66.738465 
L 185.079651 61.816327 
L 180.99405 61.816327 
z
" clip-path="url(#p253128ef4b)" style="fill: #b279a2; stroke: #000000; stroke-width: 0.42; stroke-linejoin: miter"/>
   </g>
   <g id="patch_38">
    <path d="M 229.735315 66.738465 
L 233.820916 66.738465 
L 233.820916 72.119933 
L 229.735315 72.119933 
z
" clip-path="url(#p253128ef4b)" style="fill: #b279a2; stroke: #000000; stroke-width: 0.42; stroke-linejoin: miter"/>
   </g>
   <g id="matplotlib.axis_1">
    <g id="xtick_1">
     <g id="line2d_1">
      <defs>
       <path id="mf06af4fb10" d="M 0 0 
L 0 3.5 
" style="stroke: #000000; stroke-width: 0.8"/>
      </defs>
      <g>
       <use xlink:href="#mf06af4fb10" x="67.790836" y="142.661345" style="stroke: #000000; stroke-width: 0.8"/>
      </g>
     </g>
     <g id="text_1">
      <text style="font-size: 6.5px; font-family: 'DejaVu Sans', 'Bitstream Vera Sans', 'Computer Modern Sans Serif', 'Lucida Grande', 'Verdana', 'Geneva', 'Lucid', 'Arial', 'Helvetica', 'Avant Garde', sans-serif; text-anchor: middle" x="67.790836" y="154.60033" transform="rotate(-0 67.790836 154.60033)">PR</text>
     </g>
    </g>
    <g id="xtick_2">
     <g id="line2d_2">
      <g>
       <use xlink:href="#mf06af4fb10" x="116.532102" y="142.661345" style="stroke: #000000; stroke-width: 0.8"/>
      </g>
     </g>
     <g id="text_2">
      <text style="font-size: 6.5px; font-family: 'DejaVu Sans', 'Bitstream Vera Sans', 'Computer Modern Sans Serif', 'Lucida Grande', 'Verdana', 'Geneva', 'Lucid', 'Arial', 'Helvetica', 'Avant Garde', sans-serif; text-anchor: middle" x="116.532102" y="154.60033" transform="rotate(-0 116.532102 154.60033)">BFS</text>
     </g>
    </g>
    <g id="xtick_3">
     <g id="line2d_3">
      <g>
       <use xlink:href="#mf06af4fb10" x="165.273367" y="142.661345" style="stroke: #000000; stroke-width: 0.8"/>
      </g>
     </g>
     <g id="text_3">
      <text style="font-size: 6.5px; font-family: 'DejaVu Sans', 'Bitstream Vera Sans', 'Computer Modern Sans Serif', 'Lucida Grande', 'Verdana', 'Geneva', 'Lucid', 'Arial', 'Helvetica', 'Avant Garde', sans-serif; text-anchor: middle" x="165.273367" y="154.60033" transform="rotate(-0 165.273367 154.60033)">SSSP</text>
     </g>
    </g>
    <g id="xtick_4">
     <g id="line2d_4">
      <g>
       <use xlink:href="#mf06af4fb10" x="214.014632" y="142.661345" style="stroke: #000000; stroke-width: 0.8"/>
      </g>
     </g>
     <g id="text_4">
      <text style="font-size: 6.5px; font-family: 'DejaVu Sans', 'Bitstream Vera Sans', 'Computer Modern Sans Serif', 'Lucida Grande', 'Verdana', 'Geneva', 'Lucid', 'Arial', 'Helvetica', 'Avant Garde', sans-serif; text-anchor: middle" x="214.014632" y="154.60033" transform="rotate(-0 214.014632 154.60033)">avg</text>
     </g>
    </g>
   </g>
   <g id="matplotlib.axis_2">
    <g id="ytick_1">
     <g id="line2d_5">
      <path d="M 38.692734 142.475215 
L 243.112734 142.475215 
" clip-path="url(#p253128ef4b)" style="fill: none; stroke: #b0b0b0; stroke-opacity: 0.25; stroke-width: 0.5; stroke-linecap: square"/>
     </g>
     <g id="line2d_6">
      <defs>
       <path id="mb1e9134440" d="M 0 0 
L -3.5 0 
" style="stroke: #000000; stroke-width: 0.8"/>
      </defs>
      <g>
       <use xlink:href="#mb1e9134440" x="38.692734" y="142.475215" style="stroke: #000000; stroke-width: 0.8"/>
      </g>
     </g>
     <g id="text_5">
      <text style="font-size: 6.5px; font-family: 'DejaVu Sans', 'Bitstream Vera Sans', 'Computer Modern Sans Serif', 'Lucida Grande', 'Verdana', 'Geneva', 'Lucid', 'Arial', 'Helvetica', 'Avant Garde', sans-serif; text-anchor: end" x="31.692734" y="144.944707" transform="rotate(-0 31.692734 144.944707)">−10</text>
     </g>
    </g>
    <g id="ytick_2">
     <g id="line2d_7">
      <path d="M 38.692734 127.327865 
L 243.112734 127.327865 
" clip-path="url(#p253128ef4b)" style="fill: none; stroke: #b0b0b0; stroke-opacity: 0.25; stroke-width: 0.5; stroke-linecap: square"/>
     </g>
     <g id="line2d_8">
      <g>
       <use xlink:href="#mb1e9134440" x="38.692734" y="127.327865" style="stroke: #000000; stroke-width: 0.8"/>
      </g>
     </g>
     <g id="text_6">
      <text style="font-size: 6.5px; font-family: 'DejaVu Sans', 'Bitstream Vera Sans', 'Computer Modern Sans Serif', 'Lucida Grande', 'Verdana', 'Geneva', 'Lucid', 'Arial', 'Helvetica', 'Avant Garde', sans-serif; text-anchor: end" x="31.692734" y="129.797357" transform="rotate(-0 31.692734 129.797357)">−8</text>
     </g>
    </g>
    <g id="ytick_3">
     <g id="line2d_9">
      <path d="M 38.692734 112.180515 
L 243.112734 112.180515 
" clip-path="url(#p253128ef4b)" style="fill: none; stroke: #b0b0b0; stroke-opacity: 0.25; stroke-width: 0.5; stroke-linecap: square"/>
     </g>
     <g id="line2d_10">
      <g>
       <use xlink:href="#mb1e9134440" x="38.692734" y="112.180515" style="stroke: #000000; stroke-width: 0.8"/>
      </g>
     </g>
     <g id="text_7">
      <text style="font-size: 6.5px; font-family: 'DejaVu Sans', 'Bitstream Vera Sans', 'Computer Modern Sans Serif', 'Lucida Grande', 'Verdana', 'Geneva', 'Lucid', 'Arial', 'Helvetica', 'Avant Garde', sans-serif; text-anchor: end" x="31.692734" y="114.650007" transform="rotate(-0 31.692734 114.650007)">−6</text>
     </g>
    </g>
    <g id="ytick_4">
     <g id="line2d_11">
      <path d="M 38.692734 97.033165 
L 243.112734 97.033165 
" clip-path="url(#p253128ef4b)" style="fill: none; stroke: #b0b0b0; stroke-opacity: 0.25; stroke-width: 0.5; stroke-linecap: square"/>
     </g>
     <g id="line2d_12">
      <g>
       <use xlink:href="#mb1e9134440" x="38.692734" y="97.033165" style="stroke: #000000; stroke-width: 0.8"/>
      </g>
     </g>
     <g id="text_8">
      <text style="font-size: 6.5px; font-family: 'DejaVu Sans', 'Bitstream Vera Sans', 'Computer Modern Sans Serif', 'Lucida Grande', 'Verdana', 'Geneva', 'Lucid', 'Arial', 'Helvetica', 'Avant Garde', sans-serif; text-anchor: end" x="31.692734" y="99.502657" transform="rotate(-0 31.692734 99.502657)">−4</text>
     </g>
    </g>
    <g id="ytick_5">
     <g id="line2d_13">
      <path d="M 38.692734 81.885815 
L 243.112734 81.885815 
" clip-path="url(#p253128ef4b)" style="fill: none; stroke: #b0b0b0; stroke-opacity: 0.25; stroke-width: 0.5; stroke-linecap: square"/>
     </g>
     <g id="line2d_14">
      <g>
       <use xlink:href="#mb1e9134440" x="38.692734" y="81.885815" style="stroke: #000000; stroke-width: 0.8"/>
      </g>
     </g>
     <g id="text_9">
      <text style="font-size: 6.5px; font-family: 'DejaVu Sans', 'Bitstream Vera Sans', 'Computer Modern Sans Serif', 'Lucida Grande', 'Verdana', 'Geneva', 'Lucid', 'Arial', 'Helvetica', 'Avant Garde', sans-serif; text-anchor: end" x="31.692734" y="84.355307" transform="rotate(-0 31.692734 84.355307)">−2</text>
     </g>
    </g>
    <g id="ytick_6">
     <g id="line2d_15">
      <path d="M 38.692734 66.738465 
L 243.112734 66.738465 
" clip-path="url(#p253128ef4b)" style="fill: none; stroke: #b0b0b0; stroke-opacity: 0.25; stroke-width: 0.5; stroke-linecap: square"/>
     </g>
     <g id="line2d_16">
      <g>
       <use xlink:href="#mb1e9134440" x="38.692734" y="66.738465" style="stroke: #000000; stroke-width: 0.8"/>
      </g>
     </g>
     <g id="text_10">
      <text style="font-size: 6.5px; font-family: 'DejaVu Sans', 'Bitstream Vera Sans', 'Computer Modern Sans Serif', 'Lucida Grande', 'Verdana', 'Geneva', 'Lucid', 'Arial', 'Helvetica', 'Avant Garde', sans-serif; text-anchor: end" x="31.692734" y="69.207957" transform="rotate(-0 31.692734 69.207957)">0</text>
     </g>
    </g>
    <g id="ytick_7">
     <g id="line2d_17">
      <path d="M 38.692734 51.591115 
L 243.112734 51.591115 
" clip-path="url(#p253128ef4b)" style="fill: none; stroke: #b0b0b0; stroke-opacity: 0.25; stroke-width: 0.5; stroke-linecap: square"/>
     </g>
     <g id="line2d_18">
      <g>
       <use xlink:href="#mb1e9134440" x="38.692734" y="51.591115" style="stroke: #000000; stroke-width: 0.8"/>
      </g>
     </g>
     <g id="text_11">
      <text style="font-size: 6.5px; font-family: 'DejaVu Sans', 'Bitstream Vera Sans', 'Computer Modern Sans Serif', 'Lucida Grande', 'Verdana', 'Geneva', 'Lucid', 'Arial', 'Helvetica', 'Avant Garde', sans-serif; text-anchor: end" x="31.692734" y="54.060607" transform="rotate(-0 31.692734 54.060607)">2</text>
     </g>
    </g>
    <g id="text_12">
     <text style="font-size: 7px; font-family: 'DejaVu Sans', 'Bitstream Vera Sans', 'Computer Modern Sans Serif', 'Lucida Grande', 'Verdana', 'Geneva', 'Lucid', 'Arial', 'Helvetica', 'Avant Garde', sans-serif; text-anchor: middle" x="12.518906" y="92.838305" transform="rotate(-90 12.518906 92.838305)">LLC miss reduction (%)</text>
    </g>
   </g>
   <g id="line2d_19">
    <path d="M 38.692734 66.738465 
L 243.112734 66.738465 
" clip-path="url(#p253128ef4b)" style="fill: none; stroke-dasharray: 2.59,1.12; stroke-dashoffset: 0; stroke: #000000; stroke-width: 0.7"/>
   </g>
   <g id="patch_39">
    <path d="M 38.692734 142.661345 
L 38.692734 43.015265 
" style="fill: none; stroke: #000000; stroke-width: 0.8; stroke-linejoin: miter; stroke-linecap: square"/>
   </g>
   <g id="patch_40">
    <path d="M 38.692734 142.661345 
L 243.112734 142.661345 
" style="fill: none; stroke: #000000; stroke-width: 0.8; stroke-linejoin: miter; stroke-linecap: square"/>
   </g>
   <g id="legend_1">
    <g id="patch_41">
     <path d="M 73.590156 14.738984 
L 82.040156 14.738984 
L 82.040156 10.188984 
L 73.590156 10.188984 
z
" style="fill: #bdbdbd; stroke: #000000; stroke-width: 0.42; stroke-linejoin: miter"/>
    </g>
    <g id="text_13">
     <text style="font-size: 6.5px; font-family: 'DejaVu Sans', 'Bitstream Vera Sans', 'Computer Modern Sans Serif', 'Lucida Grande', 'Verdana', 'Geneva', 'Lucid', 'Arial', 'Helvetica', 'Avant Garde', sans-serif; text-anchor: start" x="87.240156" y="14.738984" transform="rotate(-0 87.240156 14.738984)">LRU</text>
    </g>
    <g id="patch_42">
     <path d="M 73.590156 24.279766 
L 82.040156 24.279766 
L 82.040156 19.729766 
L 73.590156 19.729766 
z
" style="fill: #8e8e8e; stroke: #000000; stroke-width: 0.42; stroke-linejoin: miter"/>
    </g>
    <g id="text_14">
     <text style="font-size: 6.5px; font-family: 'DejaVu Sans', 'Bitstream Vera Sans', 'Computer Modern Sans Serif', 'Lucida Grande', 'Verdana', 'Geneva', 'Lucid', 'Arial', 'Helvetica', 'Avant Garde', sans-serif; text-anchor: start" x="87.240156" y="24.279766" transform="rotate(-0 87.240156 24.279766)">SRRIP</text>
    </g>
    <g id="patch_43">
     <path d="M 73.590156 33.820547 
L 82.040156 33.820547 
L 82.040156 29.270547 
L 73.590156 29.270547 
z
" style="fill: #4c78a8; stroke: #000000; stroke-width: 0.42; stroke-linejoin: miter"/>
    </g>
    <g id="text_15">
     <text style="font-size: 6.5px; font-family: 'DejaVu Sans', 'Bitstream Vera Sans', 'Computer Modern Sans Serif', 'Lucida Grande', 'Verdana', 'Geneva', 'Lucid', 'Arial', 'Helvetica', 'Avant Garde', sans-serif; text-anchor: start" x="87.240156" y="33.820547" transform="rotate(-0 87.240156 33.820547)">GRASP</text>
    </g>
    <g id="patch_44">
     <path d="M 114.875313 14.738984 
L 123.325313 14.738984 
L 123.325313 10.188984 
L 114.875313 10.188984 
z
" style="fill: url(#h70fb4dd5cf); stroke: #000000; stroke-width: 0.42; stroke-linejoin: miter"/>
    </g>
    <g id="text_16">
     <text style="font-size: 6.5px; font-family: 'DejaVu Sans', 'Bitstream Vera Sans', 'Computer Modern Sans Serif', 'Lucida Grande', 'Verdana', 'Geneva', 'Lucid', 'Arial', 'Helvetica', 'Avant Garde', sans-serif; text-anchor: start" x="128.525313" y="14.738984" transform="rotate(-0 128.525313 14.738984)">P-OPT+C</text>
    </g>
    <g id="patch_45">
     <path d="M 114.875313 24.279766 
L 123.325313 24.279766 
L 123.325313 19.729766 
L 114.875313 19.729766 
z
" style="fill: #f58518; stroke: #000000; stroke-width: 0.42; stroke-linejoin: miter"/>
    </g>
    <g id="text_17">
     <text style="font-size: 6.5px; font-family: 'DejaVu Sans', 'Bitstream Vera Sans', 'Computer Modern Sans Serif', 'Lucida Grande', 'Verdana', 'Geneva', 'Lucid', 'Arial', 'Helvetica', 'Avant Garde', sans-serif; text-anchor: start" x="128.525313" y="24.279766" transform="rotate(-0 128.525313 24.279766)">P-OPT</text>
    </g>
    <g id="patch_46">
     <path d="M 114.875313 33.820547 
L 123.325313 33.820547 
L 123.325313 29.270547 
L 114.875313 29.270547 
z
" style="fill: #8cd17d; stroke: #000000; stroke-width: 0.42; stroke-linejoin: miter"/>
    </g>
    <g id="text_18">
     <text style="font-size: 6.5px; font-family: 'DejaVu Sans', 'Bitstream Vera Sans', 'Computer Modern Sans Serif', 'Lucida Grande', 'Verdana', 'Geneva', 'Lucid', 'Arial', 'Helvetica', 'Avant Garde', sans-serif; text-anchor: start" x="128.525313" y="33.820547" transform="rotate(-0 128.525313 33.820547)">ECG-D</text>
    </g>
    <g id="patch_47">
     <path d="M 163.663906 14.738984 
L 172.113906 14.738984 
L 172.113906 10.188984 
L 163.663906 10.188984 
z
" style="fill: url(#h7a7b6f94e2); stroke: #000000; stroke-width: 0.42; stroke-linejoin: miter"/>
    </g>
    <g id="text_19">
     <text style="font-size: 6.5px; font-family: 'DejaVu Sans', 'Bitstream Vera Sans', 'Computer Modern Sans Serif', 'Lucida Grande', 'Verdana', 'Geneva', 'Lucid', 'Arial', 'Helvetica', 'Avant Garde', sans-serif; text-anchor: start" x="177.313906" y="14.738984" transform="rotate(-0 177.313906 14.738984)">ECG-H+C</text>
    </g>
    <g id="patch_48">
     <path d="M 163.663906 24.279766 
L 172.113906 24.279766 
L 172.113906 19.729766 
L 163.663906 19.729766 
z
" style="fill: #54a24b; stroke: #000000; stroke-width: 0.42; stroke-linejoin: miter"/>
    </g>
    <g id="text_20">
     <text style="font-size: 6.5px; font-family: 'DejaVu Sans', 'Bitstream Vera Sans', 'Computer Modern Sans Serif', 'Lucida Grande', 'Verdana', 'Geneva', 'Lucid', 'Arial', 'Helvetica', 'Avant Garde', sans-serif; text-anchor: start" x="177.313906" y="24.279766" transform="rotate(-0 177.313906 24.279766)">ECG-H</text>
    </g>
    <g id="patch_49">
     <path d="M 163.663906 33.820547 
L 172.113906 33.820547 
L 172.113906 29.270547 
L 163.663906 29.270547 
z
" style="fill: #b279a2; stroke: #000000; stroke-width: 0.42; stroke-linejoin: miter"/>
    </g>
    <g id="text_21">
     <text style="font-size: 6.5px; font-family: 'DejaVu Sans', 'Bitstream Vera Sans', 'Computer Modern Sans Serif', 'Lucida Grande', 'Verdana', 'Geneva', 'Lucid', 'Arial', 'Helvetica', 'Avant Garde', sans-serif; text-anchor: start" x="177.313906" y="33.820547" transform="rotate(-0 177.313906 33.820547)">ECG-P</text>
    </g>
   </g>
  </g>
 </g>
 <defs>
  <clipPath id="p253128ef4b">
   <rect x="38.692734" y="43.015265" width="204.42" height="99.64608"/>
  </clipPath>
 </defs>
 <defs>
  <pattern id="h70fb4dd5cf" patternUnits="userSpaceOnUse" x="0" y="0" width="72" height="72">
   <rect x="0" y="0" width="73" height="73" fill="#f2b872"/>
   <path d="M -36 36 
L 36 -36 
M -32 40 
L 40 -32 
M -28 44 
L 44 -28 
M -24 48 
L 48 -24 
M -20 52 
L 52 -20 
M -16 56 
L 56 -16 
M -12 60 
L 60 -12 
M -8 64 
L 64 -8 
M -4 68 
L 68 -4 
M 0 72 
L 72 0 
M 4 76 
L 76 4 
M 8 80 
L 80 8 
M 12 84 
L 84 12 
M 16 88 
L 88 16 
M 20 92 
L 92 20 
M 24 96 
L 96 24 
M 28 100 
L 100 28 
M 32 104 
L 104 32 
M 36 108 
L 108 36 
" style="fill: #000000; stroke: #000000; stroke-width: 1.0; stroke-linecap: butt; stroke-linejoin: miter"/>
  </pattern>
  <pattern id="h7a7b6f94e2" patternUnits="userSpaceOnUse" x="0" y="0" width="72" height="72">
   <rect x="0" y="0" width="73" height="73" fill="#b79a20"/>
   <path d="M -36 36 
L 36 -36 
M -32 40 
L 40 -32 
M -28 44 
L 44 -28 
M -24 48 
L 48 -24 
M -20 52 
L 52 -20 
M -16 56 
L 56 -16 
M -12 60 
L 60 -12 
M -8 64 
L 64 -8 
M -4 68 
L 68 -4 
M 0 72 
L 72 0 
M 4 76 
L 76 4 
M 8 80 
L 80 8 
M 12 84 
L 84 12 
M 16 88 
L 88 16 
M 20 92 
L 92 20 
M 24 96 
L 96 24 
M 28 100 
L 100 28 
M 32 104 
L 104 32 
M 36 108 
L 108 36 
" style="fill: #000000; stroke: #000000; stroke-width: 1.0; stroke-linecap: butt; stroke-linejoin: miter"/>
  </pattern>
 </defs>
</svg>
