<?xml version="1.0" encoding="UTF-8"?>
<!DOCTYPE svg PUBLIC "-//W3C//DTD SVG 1.1//EN" "http://www.w3.org/Graphics/SVG/1.1/DTD/svg11.dtd">
<svg width="160mm" height="90mm" viewBox="0 0 16000 9000" version="1.1" xmlns="http://www.w3.org/2000/svg" xmlns:xlink="http://www.w3.org/1999/xlink" stroke-width="28.222" stroke-linejoin="round" xml:space="preserve">
 <path fill="rgb(255,255,255)" stroke="none" d="M 7988,9004 L -13,9004 -13,-13 15988,-13 15988,9004 7988,9004 Z"/>
 <path fill="none" stroke="rgb(179,179,179)" stroke-linejoin="round" d="M 9225,6746 L 2782,6746 2782,2045 15668,2045 15668,6746 9225,6746 Z"/>
 <path fill="none" stroke="rgb(179,179,179)" stroke-linejoin="round" d="M 15668,6745 L 2782,6745"/>
 <path fill="none" stroke="rgb(179,179,179)" stroke-linejoin="round" d="M 15668,6274 L 2782,6274"/>
 <path fill="none" stroke="rgb(179,179,179)" stroke-linejoin="round" d="M 15668,5804 L 2782,5804"/>
 <path fill="none" stroke="rgb(179,179,179)" stroke-linejoin="round" d="M 15668,5334 L 2782,5334"/>
 <path fill="none" stroke="rgb(179,179,179)" stroke-linejoin="round" d="M 15668,4864 L 2782,4864"/>
 <path fill="none" stroke="rgb(179,179,179)" stroke-linejoin="round" d="M 15668,4395 L 2782,4395"/>
 <path fill="none" stroke="rgb(179,179,179)" stroke-linejoin="round" d="M 15668,3924 L 2782,3924"/>
 <path fill="none" stroke="rgb(179,179,179)" stroke-linejoin="round" d="M 15668,3454 L 2782,3454"/>
 <path fill="none" stroke="rgb(179,179,179)" stroke-linejoin="round" d="M 15668,2984 L 2782,2984"/>
 <path fill="none" stroke="rgb(179,179,179)" stroke-linejoin="round" d="M 15668,2514 L 2782,2514"/>
 <path fill="none" stroke="rgb(179,179,179)" stroke-linejoin="round" d="M 15668,2044 L 2782,2044"/>
 <path fill="none" stroke="rgb(179,179,179)" stroke-linejoin="round" d="M 2782,8220 L 2782,6745"/>
 <path fill="none" stroke="rgb(179,179,179)" stroke-linejoin="round" d="M 3855,8220 L 3855,6745"/>
 <path fill="none" stroke="rgb(179,179,179)" stroke-linejoin="round" d="M 4929,8220 L 4929,6745"/>
 <path fill="none" stroke="rgb(179,179,179)" stroke-linejoin="round" d="M 6003,8220 L 6003,6745"/>
 <path fill="none" stroke="rgb(179,179,179)" stroke-linejoin="round" d="M 7077,8220 L 7077,6745"/>
 <path fill="none" stroke="rgb(179,179,179)" stroke-linejoin="round" d="M 8150,8220 L 8150,6745"/>
 <path fill="none" stroke="rgb(179,179,179)" stroke-linejoin="round" d="M 9224,8220 L 9224,6745"/>
 <path fill="none" stroke="rgb(179,179,179)" stroke-linejoin="round" d="M 10298,8220 L 10298,6745"/>
 <path fill="none" stroke="rgb(179,179,179)" stroke-linejoin="round" d="M 11372,8220 L 11372,6745"/>
 <path fill="none" stroke="rgb(179,179,179)" stroke-linejoin="round" d="M 12446,8220 L 12446,6745"/>
 <path fill="none" stroke="rgb(179,179,179)" stroke-linejoin="round" d="M 13520,8220 L 13520,6745"/>
 <path fill="none" stroke="rgb(179,179,179)" stroke-linejoin="round" d="M 14594,8220 L 14594,6745"/>
 <path fill="none" stroke="rgb(179,179,179)" stroke-linejoin="round" d="M 15668,8220 L 15668,6745"/>
 <path fill="none" stroke="rgb(179,179,179)" stroke-linejoin="round" d="M 2782,8724 L 2782,6745"/>
 <path fill="none" stroke="rgb(179,179,179)" stroke-linejoin="round" d="M 6003,8724 L 6003,6745"/>
 <path fill="none" stroke="rgb(179,179,179)" stroke-linejoin="round" d="M 9224,8724 L 9224,6745"/>
 <path fill="none" stroke="rgb(179,179,179)" stroke-linejoin="round" d="M 12446,8724 L 12446,6745"/>
 <path fill="none" stroke="rgb(179,179,179)" stroke-linejoin="round" d="M 15668,8724 L 15668,6745"/>
 <path fill="none" stroke="rgb(179,179,179)" stroke-linejoin="round" d="M 2782,6895 L 2782,6745"/>
 <path fill="none" stroke="rgb(179,179,179)" stroke-linejoin="round" d="M 2782,6895 L 2782,6745"/>
 <path fill="none" stroke="rgb(179,179,179)" stroke-linejoin="round" d="M 3855,6895 L 3855,6745"/>
 <path fill="none" stroke="rgb(179,179,179)" stroke-linejoin="round" d="M 3855,6895 L 3855,6745"/>
 <path fill="none" stroke="rgb(179,179,179)" stroke-linejoin="round" d="M 4929,6895 L 4929,6745"/>
 <path fill="none" stroke="rgb(179,179,179)" stroke-linejoin="round" d="M 4929,6895 L 4929,6745"/>
 <path fill="none" stroke="rgb(179,179,179)" stroke-linejoin="round" d="M 6003,6895 L 6003,6745"/>
 <path fill="none" stroke="rgb(179,179,179)" stroke-linejoin="round" d="M 6003,6895 L 6003,6745"/>
 <path fill="none" stroke="rgb(179,179,179)" stroke-linejoin="round" d="M 7077,6895 L 7077,6745"/>
 <path fill="none" stroke="rgb(179,179,179)" stroke-linejoin="round" d="M 7077,6895 L 7077,6745"/>
 <path fill="none" stroke="rgb(179,179,179)" stroke-linejoin="round" d="M 8150,6895 L 8150,6745"/>
 <path fill="none" stroke="rgb(179,179,179)" stroke-linejoin="round" d="M 8150,6895 L 8150,6745"/>
 <path fill="none" stroke="rgb(179,179,179)" stroke-linejoin="round" d="M 9224,6895 L 9224,6745"/>
 <path fill="none" stroke="rgb(179,179,179)" stroke-linejoin="round" d="M 9224,6895 L 9224,6745"/>
 <path fill="none" stroke="rgb(179,179,179)" stroke-linejoin="round" d="M 10298,6895 L 10298,6745"/>
 <path fill="none" stroke="rgb(179,179,179)" stroke-linejoin="round" d="M 10298,6895 L 10298,6745"/>
 <path fill="none" stroke="rgb(179,179,179)" stroke-linejoin="round" d="M 11372,6895 L 11372,6745"/>
 <path fill="none" stroke="rgb(179,179,179)" stroke-linejoin="round" d="M 11372,6895 L 11372,6745"/>
 <path fill="none" stroke="rgb(179,179,179)" stroke-linejoin="round" d="M 12446,6895 L 12446,6745"/>
 <path fill="none" stroke="rgb(179,179,179)" stroke-linejoin="round" d="M 12446,6895 L 12446,6745"/>
 <path fill="none" stroke="rgb(179,179,179)" stroke-linejoin="round" d="M 13520,6895 L 13520,6745"/>
 <path fill="none" stroke="rgb(179,179,179)" stroke-linejoin="round" d="M 13520,6895 L 13520,6745"/>
 <path fill="none" stroke="rgb(179,179,179)" stroke-linejoin="round" d="M 14594,6895 L 14594,6745"/>
 <path fill="none" stroke="rgb(179,179,179)" stroke-linejoin="round" d="M 14594,6895 L 14594,6745"/>
 <path fill="none" stroke="rgb(179,179,179)" stroke-linejoin="round" d="M 15668,6895 L 15668,6745"/>
 <path fill="none" stroke="rgb(179,179,179)" stroke-linejoin="round" d="M 15668,6895 L 15668,6745"/>
 <path fill="none" stroke="rgb(179,179,179)" stroke-linejoin="round" d="M 2782,6745 L 15668,6745"/>
 <path fill="none" stroke="rgb(179,179,179)" stroke-linejoin="round" d="M 2632,6745 L 2782,6745"/>
 <path fill="none" stroke="rgb(179,179,179)" stroke-linejoin="round" d="M 2632,6745 L 2782,6745"/>
 <path fill="none" stroke="rgb(179,179,179)" stroke-linejoin="round" d="M 2632,6274 L 2782,6274"/>
 <path fill="none" stroke="rgb(179,179,179)" stroke-linejoin="round" d="M 2632,6274 L 2782,6274"/>
 <path fill="none" stroke="rgb(179,179,179)" stroke-linejoin="round" d="M 2632,5804 L 2782,5804"/>
 <path fill="none" stroke="rgb(179,179,179)" stroke-linejoin="round" d="M 2632,5804 L 2782,5804"/>
 <path fill="none" stroke="rgb(179,179,179)" stroke-linejoin="round" d="M 2632,5334 L 2782,5334"/>
 <path fill="none" stroke="rgb(179,179,179)" stroke-linejoin="round" d="M 2632,5334 L 2782,5334"/>
 <path fill="none" stroke="rgb(179,179,179)" stroke-linejoin="round" d="M 2632,4864 L 2782,4864"/>
 <path fill="none" stroke="rgb(179,179,179)" stroke-linejoin="round" d="M 2632,4864 L 2782,4864"/>
 <path fill="none" stroke="rgb(179,179,179)" stroke-linejoin="round" d="M 2632,4395 L 2782,4395"/>
 <path fill="none" stroke="rgb(179,179,179)" stroke-linejoin="round" d="M 2632,4395 L 2782,4395"/>
 <path fill="none" stroke="rgb(179,179,179)" stroke-linejoin="round" d="M 2632,3924 L 2782,3924"/>
 <path fill="none" stroke="rgb(179,179,179)" stroke-linejoin="round" d="M 2632,3924 L 2782,3924"/>
 <path fill="none" stroke="rgb(179,179,179)" stroke-linejoin="round" d="M 2632,3454 L 2782,3454"/>
 <path fill="none" stroke="rgb(179,179,179)" stroke-linejoin="round" d="M 2632,3454 L 2782,3454"/>
 <path fill="none" stroke="rgb(179,179,179)" stroke-linejoin="round" d="M 2632,2984 L 2782,2984"/>
 <path fill="none" stroke="rgb(179,179,179)" stroke-linejoin="round" d="M 2632,2984 L 2782,2984"/>
 <path fill="none" stroke="rgb(179,179,179)" stroke-linejoin="round" d="M 2632,2514 L 2782,2514"/>
 <path fill="none" stroke="rgb(179,179,179)" stroke-linejoin="round" d="M 2632,2514 L 2782,2514"/>
 <path fill="none" stroke="rgb(179,179,179)" stroke-linejoin="round" d="M 2632,2044 L 2782,2044"/>
 <path fill="none" stroke="rgb(179,179,179)" stroke-linejoin="round" d="M 2632,2044 L 2782,2044"/>
 <path fill="none" stroke="rgb(179,179,179)" stroke-linejoin="round" d="M 2782,6745 L 2782,2044"/>
 <path fill="rgb(255,182,108)" stroke="none" d="M 14670,6745 L 14824,6745 14824,4204 14670,4204 14670,6745 Z"/>
 <path fill="none" stroke="rgb(0,0,0)" stroke-linejoin="round" d="M 14670,6745 L 14824,6745 14824,4204 14670,4204 14670,6745 Z"/>
 <path fill="rgb(255,182,108)" stroke="none" d="M 13596,6745 L 13750,6745 13750,4464 13596,4464 13596,6745 Z"/>
 <path fill="none" stroke="rgb(0,0,0)" stroke-linejoin="round" d="M 13596,6745 L 13750,6745 13750,4464 13596,4464 13596,6745 Z"/>
 <path fill="rgb(255,182,108)" stroke="none" d="M 12522,6745 L 12676,6745 12676,4261 12522,4261 12522,6745 Z"/>
 <path fill="none" stroke="rgb(0,0,0)" stroke-linejoin="round" d="M 12522,6745 L 12676,6745 12676,4261 12522,4261 12522,6745 Z"/>
 <path fill="rgb(255,182,108)" stroke="none" d="M 11449,6745 L 11602,6745 11602,3385 11449,3385 11449,6745 Z"/>
 <path fill="none" stroke="rgb(0,0,0)" stroke-linejoin="round" d="M 11449,6745 L 11602,6745 11602,3385 11449,3385 11449,6745 Z"/>
 <path fill="rgb(255,182,108)" stroke="none" d="M 10375,6745 L 10528,6745 10528,3362 10375,3362 10375,6745 Z"/>
 <path fill="none" stroke="rgb(0,0,0)" stroke-linejoin="round" d="M 10375,6745 L 10528,6745 10528,3362 10375,3362 10375,6745 Z"/>
 <path fill="rgb(255,182,108)" stroke="none" d="M 9301,6745 L 9454,6745 9454,3407 9301,3407 9301,6745 Z"/>
 <path fill="none" stroke="rgb(0,0,0)" stroke-linejoin="round" d="M 9301,6745 L 9454,6745 9454,3407 9301,3407 9301,6745 Z"/>
 <path fill="rgb(255,182,108)" stroke="none" d="M 8227,6745 L 8380,6745 8380,2936 8227,2936 8227,6745 Z"/>
 <path fill="none" stroke="rgb(0,0,0)" stroke-linejoin="round" d="M 8227,6745 L 8380,6745 8380,2936 8227,2936 8227,6745 Z"/>
 <path fill="rgb(255,182,108)" stroke="none" d="M 7154,6745 L 7307,6745 7307,2967 7154,2967 7154,6745 Z"/>
 <path fill="none" stroke="rgb(0,0,0)" stroke-linejoin="round" d="M 7154,6745 L 7307,6745 7307,2967 7154,2967 7154,6745 Z"/>
 <path fill="rgb(255,182,108)" stroke="none" d="M 6080,6745 L 6233,6745 6233,2948 6080,2948 6080,6745 Z"/>
 <path fill="none" stroke="rgb(0,0,0)" stroke-linejoin="round" d="M 6080,6745 L 6233,6745 6233,2948 6080,2948 6080,6745 Z"/>
 <path fill="rgb(255,182,108)" stroke="none" d="M 5006,6745 L 5159,6745 5159,2612 5006,2612 5006,6745 Z"/>
 <path fill="none" stroke="rgb(0,0,0)" stroke-linejoin="round" d="M 5006,6745 L 5159,6745 5159,2612 5006,2612 5006,6745 Z"/>
 <path fill="rgb(255,182,108)" stroke="none" d="M 3932,6745 L 4086,6745 4086,2617 3932,2617 3932,6745 Z"/>
 <path fill="none" stroke="rgb(0,0,0)" stroke-linejoin="round" d="M 3932,6745 L 4086,6745 4086,2617 3932,2617 3932,6745 Z"/>
 <path fill="rgb(255,182,108)" stroke="none" d="M 2858,6745 L 3012,6745 3012,2639 2858,2639 2858,6745 Z"/>
 <path fill="none" stroke="rgb(0,0,0)" stroke-linejoin="round" d="M 2858,6745 L 3012,6745 3012,2639 2858,2639 2858,6745 Z"/>
 <path fill="rgb(255,219,182)" stroke="none" d="M 14824,6745 L 14977,6745 14977,6314 14824,6314 14824,6745 Z"/>
 <path fill="none" stroke="rgb(0,0,0)" stroke-linejoin="round" d="M 14824,6745 L 14977,6745 14977,6314 14824,6314 14824,6745 Z"/>
 <path fill="rgb(255,219,182)" stroke="none" d="M 13750,6745 L 13903,6745 13903,6459 13750,6459 13750,6745 Z"/>
 <path fill="none" stroke="rgb(0,0,0)" stroke-linejoin="round" d="M 13750,6745 L 13903,6745 13903,6459 13750,6459 13750,6745 Z"/>
 <path fill="rgb(255,219,182)" stroke="none" d="M 12676,6745 L 12829,6745 12829,6432 12676,6432 12676,6745 Z"/>
 <path fill="none" stroke="rgb(0,0,0)" stroke-linejoin="round" d="M 12676,6745 L 12829,6745 12829,6432 12676,6432 12676,6745 Z"/>
 <path fill="rgb(255,219,182)" stroke="none" d="M 11602,6745 L 11755,6745 11755,3665 11602,3665 11602,6745 Z"/>
 <path fill="none" stroke="rgb(0,0,0)" stroke-linejoin="round" d="M 11602,6745 L 11755,6745 11755,3665 11602,3665 11602,6745 Z"/>
 <path fill="rgb(255,219,182)" stroke="none" d="M 10528,6745 L 10681,6745 10681,3767 10528,3767 10528,6745 Z"/>
 <path fill="none" stroke="rgb(0,0,0)" stroke-linejoin="round" d="M 10528,6745 L 10681,6745 10681,3767 10528,3767 10528,6745 Z"/>
 <path fill="rgb(255,219,182)" stroke="none" d="M 9454,6745 L 9608,6745 9608,3684 9454,3684 9454,6745 Z"/>
 <path fill="none" stroke="rgb(0,0,0)" stroke-linejoin="round" d="M 9454,6745 L 9608,6745 9608,3684 9454,3684 9454,6745 Z"/>
 <path fill="rgb(255,219,182)" stroke="none" d="M 8380,6745 L 8534,6745 8534,4013 8380,4013 8380,6745 Z"/>
 <path fill="none" stroke="rgb(0,0,0)" stroke-linejoin="round" d="M 8380,6745 L 8534,6745 8534,4013 8380,4013 8380,6745 Z"/>
 <path fill="rgb(255,219,182)" stroke="none" d="M 7307,6745 L 7461,6745 7461,4101 7307,4101 7307,6745 Z"/>
 <path fill="none" stroke="rgb(0,0,0)" stroke-linejoin="round" d="M 7307,6745 L 7461,6745 7461,4101 7307,4101 7307,6745 Z"/>
 <path fill="rgb(255,219,182)" stroke="none" d="M 6233,6745 L 6387,6745 6387,4038 6233,4038 6233,6745 Z"/>
 <path fill="none" stroke="rgb(0,0,0)" stroke-linejoin="round" d="M 6233,6745 L 6387,6745 6387,4038 6233,4038 6233,6745 Z"/>
 <path fill="rgb(255,219,182)" stroke="none" d="M 5159,6745 L 5313,6745 5313,2626 5159,2626 5159,6745 Z"/>
 <path fill="none" stroke="rgb(0,0,0)" stroke-linejoin="round" d="M 5159,6745 L 5313,6745 5313,2626 5159,2626 5159,6745 Z"/>
 <path fill="rgb(255,219,182)" stroke="none" d="M 4086,6745 L 4239,6745 4239,2630 4086,2630 4086,6745 Z"/>
 <path fill="none" stroke="rgb(0,0,0)" stroke-linejoin="round" d="M 4086,6745 L 4239,6745 4239,2630 4086,2630 4086,6745 Z"/>
 <path fill="rgb(255,219,182)" stroke="none" d="M 3012,6745 L 3165,6745 3165,2653 3012,2653 3012,6745 Z"/>
 <path fill="none" stroke="rgb(0,0,0)" stroke-linejoin="round" d="M 3012,6745 L 3165,6745 3165,2653 3012,2653 3012,6745 Z"/>
 <path fill="rgb(89,131,176)" stroke="none" d="M 14977,6745 L 15131,6745 15131,6124 14977,6124 14977,6745 Z"/>
 <path fill="none" stroke="rgb(0,0,0)" stroke-linejoin="round" d="M 14977,6745 L 15131,6745 15131,6124 14977,6124 14977,6745 Z"/>
 <path fill="rgb(89,131,176)" stroke="none" d="M 13903,6745 L 14057,6745 14057,6217 13903,6217 13903,6745 Z"/>
 <path fill="none" stroke="rgb(0,0,0)" stroke-linejoin="round" d="M 13903,6745 L 14057,6745 14057,6217 13903,6217 13903,6745 Z"/>
 <path fill="rgb(89,131,176)" stroke="none" d="M 12829,6745 L 12983,6745 12983,6210 12829,6210 12829,6745 Z"/>
 <path fill="none" stroke="rgb(0,0,0)" stroke-linejoin="round" d="M 12829,6745 L 12983,6745 12983,6210 12829,6210 12829,6745 Z"/>
 <path fill="rgb(89,131,176)" stroke="none" d="M 11755,6745 L 11909,6745 11909,6280 11755,6280 11755,6745 Z"/>
 <path fill="none" stroke="rgb(0,0,0)" stroke-linejoin="round" d="M 11755,6745 L 11909,6745 11909,6280 11755,6280 11755,6745 Z"/>
 <path fill="rgb(89,131,176)" stroke="none" d="M 10681,6745 L 10835,6745 10835,6282 10681,6282 10681,6745 Z"/>
 <path fill="none" stroke="rgb(0,0,0)" stroke-linejoin="round" d="M 10681,6745 L 10835,6745 10835,6282 10681,6282 10681,6745 Z"/>
 <path fill="rgb(89,131,176)" stroke="none" d="M 9608,6745 L 9761,6745 9761,6288 9608,6288 9608,6745 Z"/>
 <path fill="none" stroke="rgb(0,0,0)" stroke-linejoin="round" d="M 9608,6745 L 9761,6745 9761,6288 9608,6288 9608,6745 Z"/>
 <path fill="rgb(89,131,176)" stroke="none" d="M 8534,6745 L 8687,6745 8687,6526 8534,6526 8534,6745 Z"/>
 <path fill="none" stroke="rgb(0,0,0)" stroke-linejoin="round" d="M 8534,6745 L 8687,6745 8687,6526 8534,6526 8534,6745 Z"/>
 <path fill="rgb(89,131,176)" stroke="none" d="M 7461,6745 L 7614,6745 7614,6529 7461,6529 7461,6745 Z"/>
 <path fill="none" stroke="rgb(0,0,0)" stroke-linejoin="round" d="M 7461,6745 L 7614,6745 7614,6529 7461,6529 7461,6745 Z"/>
 <path fill="rgb(89,131,176)" stroke="none" d="M 6387,6745 L 6540,6745 6540,6531 6387,6531 6387,6745 Z"/>
 <path fill="none" stroke="rgb(0,0,0)" stroke-linejoin="round" d="M 6387,6745 L 6540,6745 6540,6531 6387,6531 6387,6745 Z"/>
 <path fill="rgb(89,131,176)" stroke="none" d="M 5313,6745 L 5466,6745 5466,6198 5313,6198 5313,6745 Z"/>
 <path fill="none" stroke="rgb(0,0,0)" stroke-linejoin="round" d="M 5313,6745 L 5466,6745 5466,6198 5313,6198 5313,6745 Z"/>
 <path fill="rgb(89,131,176)" stroke="none" d="M 4239,6745 L 4392,6745 4392,6221 4239,6221 4239,6745 Z"/>
 <path fill="none" stroke="rgb(0,0,0)" stroke-linejoin="round" d="M 4239,6745 L 4392,6745 4392,6221 4239,6221 4239,6745 Z"/>
 <path fill="rgb(89,131,176)" stroke="none" d="M 3165,6745 L 3318,6745 3318,6220 3165,6220 3165,6745 Z"/>
 <path fill="none" stroke="rgb(0,0,0)" stroke-linejoin="round" d="M 3165,6745 L 3318,6745 3318,6220 3165,6220 3165,6745 Z"/>
 <path fill="rgb(114,159,207)" stroke="none" d="M 15131,6745 L 15284,6745 15284,6496 15131,6496 15131,6745 Z"/>
 <path fill="none" stroke="rgb(0,0,0)" stroke-linejoin="round" d="M 15131,6745 L 15284,6745 15284,6496 15131,6496 15131,6745 Z"/>
 <path fill="rgb(114,159,207)" stroke="none" d="M 14057,6745 L 14210,6745 14210,6578 14057,6578 14057,6745 Z"/>
 <path fill="none" stroke="rgb(0,0,0)" stroke-linejoin="round" d="M 14057,6745 L 14210,6745 14210,6578 14057,6578 14057,6745 Z"/>
 <path fill="rgb(114,159,207)" stroke="none" d="M 12983,6745 L 13136,6745 13136,6579 12983,6579 12983,6745 Z"/>
 <path fill="none" stroke="rgb(0,0,0)" stroke-linejoin="round" d="M 12983,6745 L 13136,6745 13136,6579 12983,6579 12983,6745 Z"/>
 <path fill="rgb(114,159,207)" stroke="none" d="M 11909,6745 L 12062,6745 12062,5969 11909,5969 11909,6745 Z"/>
 <path fill="none" stroke="rgb(0,0,0)" stroke-linejoin="round" d="M 11909,6745 L 12062,6745 12062,5969 11909,5969 11909,6745 Z"/>
 <path fill="rgb(114,159,207)" stroke="none" d="M 10835,6745 L 10988,6745 10988,5995 10835,5995 10835,6745 Z"/>
 <path fill="none" stroke="rgb(0,0,0)" stroke-linejoin="round" d="M 10835,6745 L 10988,6745 10988,5995 10835,5995 10835,6745 Z"/>
 <path fill="rgb(114,159,207)" stroke="none" d="M 9761,6745 L 9914,6745 9914,6013 9761,6013 9761,6745 Z"/>
 <path fill="none" stroke="rgb(0,0,0)" stroke-linejoin="round" d="M 9761,6745 L 9914,6745 9914,6013 9761,6013 9761,6745 Z"/>
 <path fill="rgb(114,159,207)" stroke="none" d="M 8687,6745 L 8840,6745 8840,6441 8687,6441 8687,6745 Z"/>
 <path fill="none" stroke="rgb(0,0,0)" stroke-linejoin="round" d="M 8687,6745 L 8840,6745 8840,6441 8687,6441 8687,6745 Z"/>
 <path fill="rgb(114,159,207)" stroke="none" d="M 7614,6745 L 7768,6745 7768,6507 7614,6507 7614,6745 Z"/>
 <path fill="none" stroke="rgb(0,0,0)" stroke-linejoin="round" d="M 7614,6745 L 7768,6745 7768,6507 7614,6507 7614,6745 Z"/>
 <path fill="rgb(114,159,207)" stroke="none" d="M 6540,6745 L 6694,6745 6694,6510 6540,6510 6540,6745 Z"/>
 <path fill="none" stroke="rgb(0,0,0)" stroke-linejoin="round" d="M 6540,6745 L 6694,6745 6694,6510 6540,6510 6540,6745 Z"/>
 <path fill="rgb(114,159,207)" stroke="none" d="M 5466,6745 L 5620,6745 5620,6148 5466,6148 5466,6745 Z"/>
 <path fill="none" stroke="rgb(0,0,0)" stroke-linejoin="round" d="M 5466,6745 L 5620,6745 5620,6148 5466,6148 5466,6745 Z"/>
 <path fill="rgb(114,159,207)" stroke="none" d="M 4392,6745 L 4546,6745 4546,6172 4392,6172 4392,6745 Z"/>
 <path fill="none" stroke="rgb(0,0,0)" stroke-linejoin="round" d="M 4392,6745 L 4546,6745 4546,6172 4392,6172 4392,6745 Z"/>
 <path fill="rgb(114,159,207)" stroke="none" d="M 3318,6745 L 3472,6745 3472,6169 3318,6169 3318,6745 Z"/>
 <path fill="none" stroke="rgb(0,0,0)" stroke-linejoin="round" d="M 3318,6745 L 3472,6745 3472,6169 3318,6169 3318,6745 Z"/>
 <path fill="rgb(180,199,220)" stroke="none" d="M 15284,6745 L 15437,6745 15437,6395 15284,6395 15284,6745 Z"/>
 <path fill="none" stroke="rgb(0,0,0)" stroke-linejoin="round" d="M 15284,6745 L 15437,6745 15437,6395 15284,6395 15284,6745 Z"/>
 <path fill="rgb(180,199,220)" stroke="none" d="M 14210,6745 L 14363,6745 14363,6454 14210,6454 14210,6745 Z"/>
 <path fill="none" stroke="rgb(0,0,0)" stroke-linejoin="round" d="M 14210,6745 L 14363,6745 14363,6454 14210,6454 14210,6745 Z"/>
 <path fill="rgb(180,199,220)" stroke="none" d="M 13136,6745 L 13290,6745 13290,6453 13136,6453 13136,6745 Z"/>
 <path fill="none" stroke="rgb(0,0,0)" stroke-linejoin="round" d="M 13136,6745 L 13290,6745 13290,6453 13136,6453 13136,6745 Z"/>
 <path fill="rgb(180,199,220)" stroke="none" d="M 12062,6745 L 12216,6745 12216,6182 12062,6182 12062,6745 Z"/>
 <path fill="none" stroke="rgb(0,0,0)" stroke-linejoin="round" d="M 12062,6745 L 12216,6745 12216,6182 12062,6182 12062,6745 Z"/>
 <path fill="rgb(180,199,220)" stroke="none" d="M 10988,6745 L 11142,6745 11142,6183 10988,6183 10988,6745 Z"/>
 <path fill="none" stroke="rgb(0,0,0)" stroke-linejoin="round" d="M 10988,6745 L 11142,6745 11142,6183 10988,6183 10988,6745 Z"/>
 <path fill="rgb(180,199,220)" stroke="none" d="M 9914,6745 L 10068,6745 10068,6190 9914,6190 9914,6745 Z"/>
 <path fill="none" stroke="rgb(0,0,0)" stroke-linejoin="round" d="M 9914,6745 L 10068,6745 10068,6190 9914,6190 9914,6745 Z"/>
 <path fill="rgb(180,199,220)" stroke="none" d="M 8840,6745 L 8994,6745 8994,6522 8840,6522 8840,6745 Z"/>
 <path fill="none" stroke="rgb(0,0,0)" stroke-linejoin="round" d="M 8840,6745 L 8994,6745 8994,6522 8840,6522 8840,6745 Z"/>
 <path fill="rgb(180,199,220)" stroke="none" d="M 7768,6745 L 7921,6745 7921,6524 7768,6524 7768,6745 Z"/>
 <path fill="none" stroke="rgb(0,0,0)" stroke-linejoin="round" d="M 7768,6745 L 7921,6745 7921,6524 7768,6524 7768,6745 Z"/>
 <path fill="rgb(180,199,220)" stroke="none" d="M 6694,6745 L 6847,6745 6847,6532 6694,6532 6694,6745 Z"/>
 <path fill="none" stroke="rgb(0,0,0)" stroke-linejoin="round" d="M 6694,6745 L 6847,6745 6847,6532 6694,6532 6694,6745 Z"/>
 <path fill="rgb(180,199,220)" stroke="none" d="M 5620,6745 L 5773,6745 5773,6050 5620,6050 5620,6745 Z"/>
 <path fill="none" stroke="rgb(0,0,0)" stroke-linejoin="round" d="M 5620,6745 L 5773,6745 5773,6050 5620,6050 5620,6745 Z"/>
 <path fill="rgb(180,199,220)" stroke="none" d="M 4546,6745 L 4699,6745 4699,6049 4546,6049 4546,6745 Z"/>
 <path fill="none" stroke="rgb(0,0,0)" stroke-linejoin="round" d="M 4546,6745 L 4699,6745 4699,6049 4546,6049 4546,6745 Z"/>
 <path fill="rgb(180,199,220)" stroke="none" d="M 3472,6745 L 3625,6745 3625,6066 3472,6066 3472,6745 Z"/>
 <path fill="none" stroke="rgb(0,0,0)" stroke-linejoin="round" d="M 3472,6745 L 3625,6745 3625,6066 3472,6066 3472,6745 Z"/>
 <path fill="rgb(222,230,239)" stroke="none" d="M 15437,6745 L 15591,6745 15591,6444 15437,6444 15437,6745 Z"/>
 <path fill="none" stroke="rgb(0,0,0)" stroke-linejoin="round" d="M 15437,6745 L 15591,6745 15591,6444 15437,6444 15437,6745 Z"/>
 <path fill="rgb(222,230,239)" stroke="none" d="M 14363,6745 L 14517,6745 14517,6585 14363,6585 14363,6745 Z"/>
 <path fill="none" stroke="rgb(0,0,0)" stroke-linejoin="round" d="M 14363,6745 L 14517,6745 14517,6585 14363,6585 14363,6745 Z"/>
 <path fill="rgb(222,230,239)" stroke="none" d="M 13290,6745 L 13443,6745 13443,6584 13290,6584 13290,6745 Z"/>
 <path fill="none" stroke="rgb(0,0,0)" stroke-linejoin="round" d="M 13290,6745 L 13443,6745 13443,6584 13290,6584 13290,6745 Z"/>
 <path fill="rgb(222,230,239)" stroke="none" d="M 12216,6745 L 12369,6745 12369,5731 12216,5731 12216,6745 Z"/>
 <path fill="none" stroke="rgb(0,0,0)" stroke-linejoin="round" d="M 12216,6745 L 12369,6745 12369,5731 12216,5731 12216,6745 Z"/>
 <path fill="rgb(222,230,239)" stroke="none" d="M 11142,6745 L 11295,6745 11295,5751 11142,5751 11142,6745 Z"/>
 <path fill="none" stroke="rgb(0,0,0)" stroke-linejoin="round" d="M 11142,6745 L 11295,6745 11295,5751 11142,5751 11142,6745 Z"/>
 <path fill="rgb(222,230,239)" stroke="none" d="M 10068,6745 L 10221,6745 10221,5759 10068,5759 10068,6745 Z"/>
 <path fill="none" stroke="rgb(0,0,0)" stroke-linejoin="round" d="M 10068,6745 L 10221,6745 10221,5759 10068,5759 10068,6745 Z"/>
 <path fill="rgb(222,230,239)" stroke="none" d="M 8994,6745 L 9147,6745 9147,6433 8994,6433 8994,6745 Z"/>
 <path fill="none" stroke="rgb(0,0,0)" stroke-linejoin="round" d="M 8994,6745 L 9147,6745 9147,6433 8994,6433 8994,6745 Z"/>
 <path fill="rgb(222,230,239)" stroke="none" d="M 7921,6745 L 8073,6745 8073,6477 7921,6477 7921,6745 Z"/>
 <path fill="none" stroke="rgb(0,0,0)" stroke-linejoin="round" d="M 7921,6745 L 8073,6745 8073,6477 7921,6477 7921,6745 Z"/>
 <path fill="rgb(222,230,239)" stroke="none" d="M 6847,6745 L 7000,6745 7000,6484 6847,6484 6847,6745 Z"/>
 <path fill="none" stroke="rgb(0,0,0)" stroke-linejoin="round" d="M 6847,6745 L 7000,6745 7000,6484 6847,6484 6847,6745 Z"/>
 <path fill="rgb(222,230,239)" stroke="none" d="M 5773,6745 L 5927,6745 5927,5926 5773,5926 5773,6745 Z"/>
 <path fill="none" stroke="rgb(0,0,0)" stroke-linejoin="round" d="M 5773,6745 L 5927,6745 5927,5926 5773,5926 5773,6745 Z"/>
 <path fill="rgb(222,230,239)" stroke="none" d="M 4699,6745 L 4853,6745 4853,5926 4699,5926 4699,6745 Z"/>
 <path fill="none" stroke="rgb(0,0,0)" stroke-linejoin="round" d="M 4699,6745 L 4853,6745 4853,5926 4699,5926 4699,6745 Z"/>
 <path fill="rgb(222,230,239)" stroke="none" d="M 3625,6745 L 3779,6745 3779,5944 3625,5944 3625,6745 Z"/>
 <path fill="none" stroke="rgb(0,0,0)" stroke-linejoin="round" d="M 3625,6745 L 3779,6745 3779,5944 3625,5944 3625,6745 Z"/>
 <text class="SVGTextShape" transform="rotate(-90 3463 8160)"><tspan class="TextParagraph" font-family="Liberation Sans, sans-serif" font-size="459px" font-weight="400"><tspan class="TextPosition" x="3463" y="8160"><tspan fill="rgb(0,0,0)" stroke="none" style="white-space: pre">PLRU</tspan></tspan></tspan></text>
 <text class="SVGTextShape" transform="rotate(-90 4537 8319)"><tspan class="TextParagraph" font-family="Liberation Sans, sans-serif" font-size="459px" font-weight="400"><tspan class="TextPosition" x="4537" y="8319"><tspan fill="rgb(0,0,0)" stroke="none" style="white-space: pre">SSRIP</tspan></tspan></tspan></text>
 <text class="SVGTextShape" transform="rotate(-90 5611 8187)"><tspan class="TextParagraph" font-family="Liberation Sans, sans-serif" font-size="459px" font-weight="400"><tspan class="TextPosition" x="5611" y="8187"><tspan fill="rgb(0,0,0)" stroke="none" style="white-space: pre">POPT</tspan></tspan></tspan></text>
 <text class="SVGTextShape" transform="rotate(-90 6685 8160)"><tspan class="TextParagraph" font-family="Liberation Sans, sans-serif" font-size="459px" font-weight="400"><tspan class="TextPosition" x="6685" y="8160"><tspan fill="rgb(0,0,0)" stroke="none" style="white-space: pre">PLRU</tspan></tspan></tspan></text>
 <text class="SVGTextShape" transform="rotate(-90 7759 8319)"><tspan class="TextParagraph" font-family="Liberation Sans, sans-serif" font-size="459px" font-weight="400"><tspan class="TextPosition" x="7759" y="8319"><tspan fill="rgb(0,0,0)" stroke="none" style="white-space: pre">SSRIP</tspan></tspan></tspan></text>
 <text class="SVGTextShape" transform="rotate(-90 8832 8187)"><tspan class="TextParagraph" font-family="Liberation Sans, sans-serif" font-size="459px" font-weight="400"><tspan class="TextPosition" x="8832" y="8187"><tspan fill="rgb(0,0,0)" stroke="none" style="white-space: pre">POPT</tspan></tspan></tspan></text>
 <text class="SVGTextShape" transform="rotate(-90 9906 8160)"><tspan class="TextParagraph" font-family="Liberation Sans, sans-serif" font-size="459px" font-weight="400"><tspan class="TextPosition" x="9906" y="8160"><tspan fill="rgb(0,0,0)" stroke="none" style="white-space: pre">PLRU</tspan></tspan></tspan></text>
 <text class="SVGTextShape" transform="rotate(-90 10980 8319)"><tspan class="TextParagraph" font-family="Liberation Sans, sans-serif" font-size="459px" font-weight="400"><tspan class="TextPosition" x="10980" y="8319"><tspan fill="rgb(0,0,0)" stroke="none" style="white-space: pre">SSRIP</tspan></tspan></tspan></text>
 <text class="SVGTextShape" transform="rotate(-90 12054 8187)"><tspan class="TextParagraph" font-family="Liberation Sans, sans-serif" font-size="459px" font-weight="400"><tspan class="TextPosition" x="12054" y="8187"><tspan fill="rgb(0,0,0)" stroke="none" style="white-space: pre">POPT</tspan></tspan></tspan></text>
 <text class="SVGTextShape" transform="rotate(-90 13128 8160)"><tspan class="TextParagraph" font-family="Liberation Sans, sans-serif" font-size="459px" font-weight="400"><tspan class="TextPosition" x="13128" y="8160"><tspan fill="rgb(0,0,0)" stroke="none" style="white-space: pre">PLRU</tspan></tspan></tspan></text>
 <text class="SVGTextShape" transform="rotate(-90 14202 8319)"><tspan class="TextParagraph" font-family="Liberation Sans, sans-serif" font-size="459px" font-weight="400"><tspan class="TextPosition" x="14202" y="8319"><tspan fill="rgb(0,0,0)" stroke="none" style="white-space: pre">SSRIP</tspan></tspan></tspan></text>
 <text class="SVGTextShape" transform="rotate(-90 15276 8187)"><tspan class="TextParagraph" font-family="Liberation Sans, sans-serif" font-size="459px" font-weight="400"><tspan class="TextPosition" x="15276" y="8187"><tspan fill="rgb(0,0,0)" stroke="none" style="white-space: pre">POPT</tspan></tspan></tspan></text>
 <text class="SVGTextShape"><tspan class="TextParagraph" font-family="Liberation Sans, sans-serif" font-size="459px" font-weight="400"><tspan class="TextPosition" x="3611" y="8717"><tspan fill="rgb(0,0,0)" stroke="none" style="white-space: pre">amazon</tspan></tspan></tspan></text>
 <text class="SVGTextShape"><tspan class="TextParagraph" font-family="Liberation Sans, sans-serif" font-size="459px" font-weight="400"><tspan class="TextPosition" x="7296" y="8717"><tspan fill="rgb(0,0,0)" stroke="none" style="white-space: pre">cnr</tspan></tspan></tspan></text>
 <text class="SVGTextShape"><tspan class="TextParagraph" font-family="Liberation Sans, sans-serif" font-size="459px" font-weight="400"><tspan class="TextPosition" x="10426" y="8717"><tspan fill="rgb(0,0,0)" stroke="none" style="white-space: pre">dblp</tspan></tspan></tspan></text>
 <text class="SVGTextShape"><tspan class="TextParagraph" font-family="Liberation Sans, sans-serif" font-size="459px" font-weight="400"><tspan class="TextPosition" x="13502" y="8717"><tspan fill="rgb(0,0,0)" stroke="none" style="white-space: pre">enron</tspan></tspan></tspan></text>
 <text class="SVGTextShape"><tspan class="TextParagraph" font-family="Liberation Sans, sans-serif" font-size="494px" font-weight="400"><tspan class="TextPosition" x="2241" y="6918"><tspan fill="rgb(0,0,0)" stroke="none" style="white-space: pre">0</tspan></tspan></tspan></text>
 <text class="SVGTextShape"><tspan class="TextParagraph" font-family="Liberation Sans, sans-serif" font-size="494px" font-weight="400"><tspan class="TextPosition" x="1950" y="5977"><tspan fill="rgb(0,0,0)" stroke="none" style="white-space: pre">20</tspan></tspan></tspan></text>
 <text class="SVGTextShape"><tspan class="TextParagraph" font-family="Liberation Sans, sans-serif" font-size="494px" font-weight="400"><tspan class="TextPosition" x="1950" y="5037"><tspan fill="rgb(0,0,0)" stroke="none" style="white-space: pre">40</tspan></tspan></tspan></text>
 <text class="SVGTextShape"><tspan class="TextParagraph" font-family="Liberation Sans, sans-serif" font-size="494px" font-weight="400"><tspan class="TextPosition" x="1950" y="4096"><tspan fill="rgb(0,0,0)" stroke="none" style="white-space: pre">60</tspan></tspan></tspan></text>
 <text class="SVGTextShape"><tspan class="TextParagraph" font-family="Liberation Sans, sans-serif" font-size="494px" font-weight="400"><tspan class="TextPosition" x="1950" y="3156"><tspan fill="rgb(0,0,0)" stroke="none" style="white-space: pre">80</tspan></tspan></tspan></text>
 <text class="SVGTextShape"><tspan class="TextParagraph" font-family="Liberation Sans, sans-serif" font-size="494px" font-weight="400"><tspan class="TextPosition" x="1659" y="2216"><tspan fill="rgb(0,0,0)" stroke="none" style="white-space: pre">100</tspan></tspan></tspan></text>
 <path fill="rgb(255,182,108)" stroke="none" d="M 3471,698 L 3323,698 3323,402 3619,402 3619,698 3471,698 Z"/>
 <path fill="none" stroke="rgb(0,0,0)" stroke-linejoin="round" d="M 3471,698 L 3323,698 3323,402 3619,402 3619,698 3471,698 Z"/>
 <path fill="rgb(255,219,182)" stroke="none" d="M 7086,698 L 6938,698 6938,402 7234,402 7234,698 7086,698 Z"/>
 <path fill="none" stroke="rgb(0,0,0)" stroke-linejoin="round" d="M 7086,698 L 6938,698 6938,402 7234,402 7234,698 7086,698 Z"/>
 <path fill="rgb(89,131,176)" stroke="none" d="M 9404,698 L 9256,698 9256,402 9552,402 9552,698 9404,698 Z"/>
 <path fill="none" stroke="rgb(0,0,0)" stroke-linejoin="round" d="M 9404,698 L 9256,698 9256,402 9552,402 9552,698 9404,698 Z"/>
 <path fill="rgb(114,159,207)" stroke="none" d="M 3471,1355 L 3323,1355 3323,1059 3619,1059 3619,1355 3471,1355 Z"/>
 <path fill="none" stroke="rgb(0,0,0)" stroke-linejoin="round" d="M 3471,1355 L 3323,1355 3323,1059 3619,1059 3619,1355 3471,1355 Z"/>
 <path fill="rgb(180,199,220)" stroke="none" d="M 7086,1355 L 6938,1355 6938,1059 7234,1059 7234,1355 7086,1355 Z"/>
 <path fill="none" stroke="rgb(0,0,0)" stroke-linejoin="round" d="M 7086,1355 L 6938,1355 6938,1059 7234,1059 7234,1355 7086,1355 Z"/>
 <path fill="rgb(222,230,239)" stroke="none" d="M 9404,1355 L 9256,1355 9256,1059 9552,1059 9552,1355 9404,1355 Z"/>
 <path fill="none" stroke="rgb(0,0,0)" stroke-linejoin="round" d="M 9404,1355 L 9256,1355 9256,1059 9552,1059 9552,1355 9404,1355 Z"/>
 <text class="SVGTextShape"><tspan class="TextParagraph" font-family="Liberation Sans, sans-serif" font-size="494px" font-weight="400"><tspan class="TextPosition" x="3727" y="722"><tspan fill="rgb(0,0,0)" stroke="none" style="white-space: pre">Rand-Order</tspan></tspan></tspan></text>
 <text class="SVGTextShape"><tspan class="TextParagraph" font-family="Liberation Sans, sans-serif" font-size="494px" font-weight="400"><tspan class="TextPosition" x="7342" y="722"><tspan fill="rgb(0,0,0)" stroke="none" style="white-space: pre">DBG</tspan></tspan></tspan></text>
 <text class="SVGTextShape"><tspan class="TextParagraph" font-family="Liberation Sans, sans-serif" font-size="494px" font-weight="400"><tspan class="TextPosition" x="9660" y="722"><tspan fill="rgb(0,0,0)" stroke="none" style="white-space: pre">Rabbit</tspan></tspan></tspan></text>
 <text class="SVGTextShape"><tspan class="TextParagraph" font-family="Liberation Sans, sans-serif" font-size="494px" font-weight="400"><tspan class="TextPosition" x="3727" y="1379"><tspan fill="rgb(0,0,0)" stroke="none" style="white-space: pre">Rabbit+DBG</tspan></tspan></tspan></text>
 <text class="SVGTextShape"><tspan class="TextParagraph" font-family="Liberation Sans, sans-serif" font-size="494px" font-weight="400"><tspan class="TextPosition" x="7342" y="1379"><tspan fill="rgb(0,0,0)" stroke="none" style="white-space: pre">Gorder</tspan></tspan></tspan></text>
 <text class="SVGTextShape"><tspan class="TextParagraph" font-family="Liberation Sans, sans-serif" font-size="494px" font-weight="400"><tspan class="TextPosition" x="9660" y="1379"><tspan fill="rgb(0,0,0)" stroke="none" style="white-space: pre">Gorder+DBG</tspan></tspan></tspan></text>
 <text class="SVGTextShape" transform="rotate(-90 1073 7305)"><tspan class="TextParagraph" font-family="Liberation Sans, sans-serif" font-size="529px" font-weight="400"><tspan class="TextPosition" x="1073" y="7305"><tspan fill="rgb(0,0,0)" stroke="none" style="white-space: pre">Cache Miss Rate</tspan></tspan></tspan></text>
</svg>