<?xml version="1.0" encoding="UTF-8"?>
<!DOCTYPE svg PUBLIC "-//W3C//DTD SVG 1.1//EN" "http://www.w3.org/Graphics/SVG/1.1/DTD/svg11.dtd">
<svg width="161mm" height="91mm" viewBox="0 0 16100 9100" version="1.1" xmlns="http://www.w3.org/2000/svg" xmlns:xlink="http://www.w3.org/1999/xlink" stroke-width="28.222" stroke-linejoin="round" xml:space="preserve">
 <path fill="rgb(255,255,255)" stroke="none" d="M 8013,9044 L -13,9044 -13,-13 16039,-13 16039,9044 8013,9044 Z"/>
 <path fill="none" stroke="rgb(179,179,179)" stroke-linejoin="round" d="M 9264,7819 L 2810,7819 2810,2443 15718,2443 15718,7819 9264,7819 Z"/>
 <path fill="none" stroke="rgb(179,179,179)" stroke-linejoin="round" d="M 15718,7818 L 2810,7818"/>
 <path fill="none" stroke="rgb(179,179,179)" stroke-linejoin="round" d="M 15718,7145 L 2810,7145"/>
 <path fill="none" stroke="rgb(179,179,179)" stroke-linejoin="round" d="M 15718,6473 L 2810,6473"/>
 <path fill="none" stroke="rgb(179,179,179)" stroke-linejoin="round" d="M 15718,5801 L 2810,5801"/>
 <path fill="none" stroke="rgb(179,179,179)" stroke-linejoin="round" d="M 15718,5129 L 2810,5129"/>
 <path fill="none" stroke="rgb(179,179,179)" stroke-linejoin="round" d="M 15718,4458 L 2810,4458"/>
 <path fill="none" stroke="rgb(179,179,179)" stroke-linejoin="round" d="M 15718,3786 L 2810,3786"/>
 <path fill="none" stroke="rgb(179,179,179)" stroke-linejoin="round" d="M 15718,3114 L 2810,3114"/>
 <path fill="none" stroke="rgb(179,179,179)" stroke-linejoin="round" d="M 15718,2442 L 2810,2442"/>
 <path fill="none" stroke="rgb(179,179,179)" stroke-linejoin="round" d="M 2810,7968 L 2810,7818"/>
 <path fill="none" stroke="rgb(179,179,179)" stroke-linejoin="round" d="M 2810,7968 L 2810,7818"/>
 <path fill="none" stroke="rgb(179,179,179)" stroke-linejoin="round" d="M 6037,7968 L 6037,7818"/>
 <path fill="none" stroke="rgb(179,179,179)" stroke-linejoin="round" d="M 6037,7968 L 6037,7818"/>
 <path fill="none" stroke="rgb(179,179,179)" stroke-linejoin="round" d="M 9263,7968 L 9263,7818"/>
 <path fill="none" stroke="rgb(179,179,179)" stroke-linejoin="round" d="M 9263,7968 L 9263,7818"/>
 <path fill="none" stroke="rgb(179,179,179)" stroke-linejoin="round" d="M 12490,7968 L 12490,7818"/>
 <path fill="none" stroke="rgb(179,179,179)" stroke-linejoin="round" d="M 12490,7968 L 12490,7818"/>
 <path fill="none" stroke="rgb(179,179,179)" stroke-linejoin="round" d="M 15718,7968 L 15718,7818"/>
 <path fill="none" stroke="rgb(179,179,179)" stroke-linejoin="round" d="M 15718,7968 L 15718,7818"/>
 <path fill="none" stroke="rgb(179,179,179)" stroke-linejoin="round" d="M 2810,7818 L 15718,7818"/>
 <path fill="none" stroke="rgb(179,179,179)" stroke-linejoin="round" d="M 2660,7818 L 2810,7818"/>
 <path fill="none" stroke="rgb(179,179,179)" stroke-linejoin="round" d="M 2660,7818 L 2810,7818"/>
 <path fill="none" stroke="rgb(179,179,179)" stroke-linejoin="round" d="M 2660,7145 L 2810,7145"/>
 <path fill="none" stroke="rgb(179,179,179)" stroke-linejoin="round" d="M 2660,7145 L 2810,7145"/>
 <path fill="none" stroke="rgb(179,179,179)" stroke-linejoin="round" d="M 2660,6473 L 2810,6473"/>
 <path fill="none" stroke="rgb(179,179,179)" stroke-linejoin="round" d="M 2660,6473 L 2810,6473"/>
 <path fill="none" stroke="rgb(179,179,179)" stroke-linejoin="round" d="M 2660,5801 L 2810,5801"/>
 <path fill="none" stroke="rgb(179,179,179)" stroke-linejoin="round" d="M 2660,5801 L 2810,5801"/>
 <path fill="none" stroke="rgb(179,179,179)" stroke-linejoin="round" d="M 2660,5129 L 2810,5129"/>
 <path fill="none" stroke="rgb(179,179,179)" stroke-linejoin="round" d="M 2660,5129 L 2810,5129"/>
 <path fill="none" stroke="rgb(179,179,179)" stroke-linejoin="round" d="M 2660,4458 L 2810,4458"/>
 <path fill="none" stroke="rgb(179,179,179)" stroke-linejoin="round" d="M 2660,4458 L 2810,4458"/>
 <path fill="none" stroke="rgb(179,179,179)" stroke-linejoin="round" d="M 2660,3786 L 2810,3786"/>
 <path fill="none" stroke="rgb(179,179,179)" stroke-linejoin="round" d="M 2660,3786 L 2810,3786"/>
 <path fill="none" stroke="rgb(179,179,179)" stroke-linejoin="round" d="M 2660,3114 L 2810,3114"/>
 <path fill="none" stroke="rgb(179,179,179)" stroke-linejoin="round" d="M 2660,3114 L 2810,3114"/>
 <path fill="none" stroke="rgb(179,179,179)" stroke-linejoin="round" d="M 2660,2442 L 2810,2442"/>
 <path fill="none" stroke="rgb(179,179,179)" stroke-linejoin="round" d="M 2660,2442 L 2810,2442"/>
 <path fill="none" stroke="rgb(179,179,179)" stroke-linejoin="round" d="M 2810,7818 L 2810,2442"/>
 <path fill="rgb(255,182,108)" stroke="none" d="M 12721,7818 L 13182,7818 13182,7619 12721,7619 12721,7818 Z"/>
 <path fill="none" stroke="rgb(0,0,0)" stroke-linejoin="round" d="M 12721,7818 L 13182,7818 13182,7619 12721,7619 12721,7818 Z"/>
 <path fill="rgb(255,182,108)" stroke="none" d="M 9494,7818 L 9955,7818 9955,5683 9494,5683 9494,7818 Z"/>
 <path fill="none" stroke="rgb(0,0,0)" stroke-linejoin="round" d="M 9494,7818 L 9955,7818 9955,5683 9494,5683 9494,7818 Z"/>
 <path fill="rgb(255,182,108)" stroke="none" d="M 6267,7818 L 6728,7818 6728,6327 6267,6327 6267,7818 Z"/>
 <path fill="none" stroke="rgb(0,0,0)" stroke-linejoin="round" d="M 6267,7818 L 6728,7818 6728,6327 6267,6327 6267,7818 Z"/>
 <path fill="rgb(255,182,108)" stroke="none" d="M 3040,7818 L 3501,7818 3501,3087 3040,3087 3040,7818 Z"/>
 <path fill="none" stroke="rgb(0,0,0)" stroke-linejoin="round" d="M 3040,7818 L 3501,7818 3501,3087 3040,3087 3040,7818 Z"/>
 <path fill="rgb(255,219,182)" stroke="none" d="M 13182,7818 L 13643,7818 13643,7528 13182,7528 13182,7818 Z"/>
 <path fill="none" stroke="rgb(0,0,0)" stroke-linejoin="round" d="M 13182,7818 L 13643,7818 13643,7528 13182,7528 13182,7818 Z"/>
 <path fill="rgb(255,219,182)" stroke="none" d="M 9955,7818 L 10416,7818 10416,4440 9955,4440 9955,7818 Z"/>
 <path fill="none" stroke="rgb(0,0,0)" stroke-linejoin="round" d="M 9955,7818 L 10416,7818 10416,4440 9955,4440 9955,7818 Z"/>
 <path fill="rgb(255,219,182)" stroke="none" d="M 6728,7818 L 7189,7818 7189,3659 6728,3659 6728,7818 Z"/>
 <path fill="none" stroke="rgb(0,0,0)" stroke-linejoin="round" d="M 6728,7818 L 7189,7818 7189,3659 6728,3659 6728,7818 Z"/>
 <path fill="rgb(255,219,182)" stroke="none" d="M 3501,7818 L 3962,7818 3962,2977 3501,2977 3501,7818 Z"/>
 <path fill="none" stroke="rgb(0,0,0)" stroke-linejoin="round" d="M 3501,7818 L 3962,7818 3962,2977 3501,2977 3501,7818 Z"/>
 <path fill="rgb(89,131,176)" stroke="none" d="M 13643,7818 L 14104,7818 14104,7678 13643,7678 13643,7818 Z"/>
 <path fill="none" stroke="rgb(0,0,0)" stroke-linejoin="round" d="M 13643,7818 L 14104,7818 14104,7678 13643,7678 13643,7818 Z"/>
 <path fill="rgb(89,131,176)" stroke="none" d="M 10416,7818 L 10877,7818 10877,7220 10416,7220 10416,7818 Z"/>
 <path fill="none" stroke="rgb(0,0,0)" stroke-linejoin="round" d="M 10416,7818 L 10877,7818 10877,7220 10416,7220 10416,7818 Z"/>
 <path fill="rgb(89,131,176)" stroke="none" d="M 7189,7818 L 7650,7818 7650,7697 7189,7697 7189,7818 Z"/>
 <path fill="none" stroke="rgb(0,0,0)" stroke-linejoin="round" d="M 7189,7818 L 7650,7818 7650,7697 7189,7697 7189,7818 Z"/>
 <path fill="rgb(89,131,176)" stroke="none" d="M 3962,7818 L 4423,7818 4423,7511 3962,7511 3962,7818 Z"/>
 <path fill="none" stroke="rgb(0,0,0)" stroke-linejoin="round" d="M 3962,7818 L 4423,7818 4423,7511 3962,7511 3962,7818 Z"/>
 <path fill="rgb(114,159,207)" stroke="none" d="M 14104,7818 L 14565,7818 14565,7678 14104,7678 14104,7818 Z"/>
 <path fill="none" stroke="rgb(0,0,0)" stroke-linejoin="round" d="M 14104,7818 L 14565,7818 14565,7678 14104,7678 14104,7818 Z"/>
 <path fill="rgb(114,159,207)" stroke="none" d="M 10877,7818 L 11338,7818 11338,7542 10877,7542 10877,7818 Z"/>
 <path fill="none" stroke="rgb(0,0,0)" stroke-linejoin="round" d="M 10877,7818 L 11338,7818 11338,7542 10877,7542 10877,7818 Z"/>
 <path fill="rgb(114,159,207)" stroke="none" d="M 7650,7818 L 8110,7818 8110,7775 7650,7775 7650,7818 Z"/>
 <path fill="none" stroke="rgb(0,0,0)" stroke-linejoin="round" d="M 7650,7818 L 8110,7818 8110,7775 7650,7775 7650,7818 Z"/>
 <path fill="rgb(114,159,207)" stroke="none" d="M 4423,7818 L 4884,7818 4884,7630 4423,7630 4423,7818 Z"/>
 <path fill="none" stroke="rgb(0,0,0)" stroke-linejoin="round" d="M 4423,7818 L 4884,7818 4884,7630 4423,7630 4423,7818 Z"/>
 <path fill="rgb(156,172,207)" stroke="none" d="M 14565,7818 L 15026,7818 15026,7686 14565,7686 14565,7818 Z"/>
 <path fill="none" stroke="rgb(0,0,0)" stroke-linejoin="round" d="M 14565,7818 L 15026,7818 15026,7686 14565,7686 14565,7818 Z"/>
 <path fill="rgb(156,172,207)" stroke="none" d="M 11338,7818 L 11799,7818 11799,7051 11338,7051 11338,7818 Z"/>
 <path fill="none" stroke="rgb(0,0,0)" stroke-linejoin="round" d="M 11338,7818 L 11799,7818 11799,7051 11338,7051 11338,7818 Z"/>
 <path fill="rgb(156,172,207)" stroke="none" d="M 8110,7818 L 8571,7818 8571,7656 8110,7656 8110,7818 Z"/>
 <path fill="none" stroke="rgb(0,0,0)" stroke-linejoin="round" d="M 8110,7818 L 8571,7818 8571,7656 8110,7656 8110,7818 Z"/>
 <path fill="rgb(156,172,207)" stroke="none" d="M 4884,7818 L 5345,7818 5345,7145 4884,7145 4884,7818 Z"/>
 <path fill="none" stroke="rgb(0,0,0)" stroke-linejoin="round" d="M 4884,7818 L 5345,7818 5345,7145 4884,7145 4884,7818 Z"/>
 <path fill="rgb(163,205,230)" stroke="none" d="M 15026,7818 L 15487,7818 15487,7666 15026,7666 15026,7818 Z"/>
 <path fill="none" stroke="rgb(0,0,0)" stroke-linejoin="round" d="M 15026,7818 L 15487,7818 15487,7666 15026,7666 15026,7818 Z"/>
 <path fill="rgb(163,205,230)" stroke="none" d="M 11799,7818 L 12260,7818 12260,7398 11799,7398 11799,7818 Z"/>
 <path fill="none" stroke="rgb(0,0,0)" stroke-linejoin="round" d="M 11799,7818 L 12260,7818 12260,7398 11799,7398 11799,7818 Z"/>
 <path fill="rgb(163,205,230)" stroke="none" d="M 8571,7818 L 9032,7818 9032,7727 8571,7727 8571,7818 Z"/>
 <path fill="none" stroke="rgb(0,0,0)" stroke-linejoin="round" d="M 8571,7818 L 9032,7818 9032,7727 8571,7727 8571,7818 Z"/>
 <path fill="rgb(163,205,230)" stroke="none" d="M 5345,7818 L 5806,7818 5806,7297 5345,7297 5345,7818 Z"/>
 <path fill="none" stroke="rgb(0,0,0)" stroke-linejoin="round" d="M 5345,7818 L 5806,7818 5806,7297 5345,7297 5345,7818 Z"/>
 <text class="SVGTextShape"><tspan class="TextParagraph" font-family="Liberation Sans, sans-serif" font-size="706px" font-weight="400"><tspan class="TextPosition" x="3153" y="8703"><tspan fill="rgb(0,0,0)" stroke="none" style="white-space: pre">amazon</tspan></tspan></tspan></text>
 <text class="SVGTextShape"><tspan class="TextParagraph" font-family="Liberation Sans, sans-serif" font-size="706px" font-weight="400"><tspan class="TextPosition" x="7147" y="8703"><tspan fill="rgb(0,0,0)" stroke="none" style="white-space: pre">cnr</tspan></tspan></tspan></text>
 <text class="SVGTextShape"><tspan class="TextParagraph" font-family="Liberation Sans, sans-serif" font-size="706px" font-weight="400"><tspan class="TextPosition" x="10203" y="8703"><tspan fill="rgb(0,0,0)" stroke="none" style="white-space: pre">dblp</tspan></tspan></tspan></text>
 <text class="SVGTextShape"><tspan class="TextParagraph" font-family="Liberation Sans, sans-serif" font-size="706px" font-weight="400"><tspan class="TextPosition" x="13192" y="8703"><tspan fill="rgb(0,0,0)" stroke="none" style="white-space: pre">enron</tspan></tspan></tspan></text>
 <text class="SVGTextShape"><tspan class="TextParagraph" font-family="Liberation Sans, sans-serif" font-size="494px" font-weight="400"><tspan class="TextPosition" x="2269" y="7991"><tspan fill="rgb(0,0,0)" stroke="none" style="white-space: pre">0</tspan></tspan></tspan></text>
 <text class="SVGTextShape"><tspan class="TextParagraph" font-family="Liberation Sans, sans-serif" font-size="494px" font-weight="400"><tspan class="TextPosition" x="1978" y="7318"><tspan fill="rgb(0,0,0)" stroke="none" style="white-space: pre">10</tspan></tspan></tspan></text>
 <text class="SVGTextShape"><tspan class="TextParagraph" font-family="Liberation Sans, sans-serif" font-size="494px" font-weight="400"><tspan class="TextPosition" x="1978" y="6646"><tspan fill="rgb(0,0,0)" stroke="none" style="white-space: pre">20</tspan></tspan></tspan></text>
 <text class="SVGTextShape"><tspan class="TextParagraph" font-family="Liberation Sans, sans-serif" font-size="494px" font-weight="400"><tspan class="TextPosition" x="1978" y="5974"><tspan fill="rgb(0,0,0)" stroke="none" style="white-space: pre">30</tspan></tspan></tspan></text>
 <text class="SVGTextShape"><tspan class="TextParagraph" font-family="Liberation Sans, sans-serif" font-size="494px" font-weight="400"><tspan class="TextPosition" x="1978" y="5302"><tspan fill="rgb(0,0,0)" stroke="none" style="white-space: pre">40</tspan></tspan></tspan></text>
 <text class="SVGTextShape"><tspan class="TextParagraph" font-family="Liberation Sans, sans-serif" font-size="494px" font-weight="400"><tspan class="TextPosition" x="1978" y="4630"><tspan fill="rgb(0,0,0)" stroke="none" style="white-space: pre">50</tspan></tspan></tspan></text>
 <text class="SVGTextShape"><tspan class="TextParagraph" font-family="Liberation Sans, sans-serif" font-size="494px" font-weight="400"><tspan class="TextPosition" x="1978" y="3958"><tspan fill="rgb(0,0,0)" stroke="none" style="white-space: pre">60</tspan></tspan></tspan></text>
 <text class="SVGTextShape"><tspan class="TextParagraph" font-family="Liberation Sans, sans-serif" font-size="494px" font-weight="400"><tspan class="TextPosition" x="1978" y="3286"><tspan fill="rgb(0,0,0)" stroke="none" style="white-space: pre">70</tspan></tspan></tspan></text>
 <text class="SVGTextShape"><tspan class="TextParagraph" font-family="Liberation Sans, sans-serif" font-size="494px" font-weight="400"><tspan class="TextPosition" x="1978" y="2614"><tspan fill="rgb(0,0,0)" stroke="none" style="white-space: pre">80</tspan></tspan></tspan></text>
 <path fill="rgb(255,182,108)" stroke="none" d="M 1100,847 L 910,847 910,466 1291,466 1291,847 1100,847 Z"/>
 <path fill="none" stroke="rgb(0,0,0)" stroke-linejoin="round" d="M 1100,847 L 910,847 910,466 1291,466 1291,847 1100,847 Z"/>
 <path fill="rgb(255,219,182)" stroke="none" d="M 6010,847 L 5820,847 5820,466 6201,466 6201,847 6010,847 Z"/>
 <path fill="none" stroke="rgb(0,0,0)" stroke-linejoin="round" d="M 6010,847 L 5820,847 5820,466 6201,466 6201,847 6010,847 Z"/>
 <path fill="rgb(89,131,176)" stroke="none" d="M 10655,847 L 10464,847 10464,466 10845,466 10845,847 10655,847 Z"/>
 <path fill="none" stroke="rgb(0,0,0)" stroke-linejoin="round" d="M 10655,847 L 10464,847 10464,466 10845,466 10845,847 10655,847 Z"/>
 <path fill="rgb(114,159,207)" stroke="none" d="M 1100,1689 L 910,1689 910,1308 1291,1308 1291,1689 1100,1689 Z"/>
 <path fill="none" stroke="rgb(0,0,0)" stroke-linejoin="round" d="M 1100,1689 L 910,1689 910,1308 1291,1308 1291,1689 1100,1689 Z"/>
 <path fill="rgb(156,172,207)" stroke="none" d="M 6010,1689 L 5820,1689 5820,1308 6201,1308 6201,1689 6010,1689 Z"/>
 <path fill="none" stroke="rgb(0,0,0)" stroke-linejoin="round" d="M 6010,1689 L 5820,1689 5820,1308 6201,1308 6201,1689 6010,1689 Z"/>
 <path fill="rgb(163,205,230)" stroke="none" d="M 10655,1689 L 10464,1689 10464,1308 10845,1308 10845,1689 10655,1689 Z"/>
 <path fill="none" stroke="rgb(0,0,0)" stroke-linejoin="round" d="M 10655,1689 L 10464,1689 10464,1308 10845,1308 10845,1689 10655,1689 Z"/>
 <text class="SVGTextShape"><tspan class="TextParagraph" font-family="Liberation Sans, sans-serif" font-size="635px" font-weight="400"><tspan class="TextPosition" x="1430" y="881"><tspan fill="rgb(0,0,0)" stroke="none" style="white-space: pre">DBG</tspan></tspan></tspan></text>
 <text class="SVGTextShape"><tspan class="TextParagraph" font-family="Liberation Sans, sans-serif" font-size="635px" font-weight="400"><tspan class="TextPosition" x="6340" y="881"><tspan fill="rgb(0,0,0)" stroke="none" style="white-space: pre">MASK</tspan></tspan></tspan></text>
 <text class="SVGTextShape"><tspan class="TextParagraph" font-family="Liberation Sans, sans-serif" font-size="635px" font-weight="400"><tspan class="TextPosition" x="10984" y="881"><tspan fill="rgb(0,0,0)" stroke="none" style="white-space: pre">Rabbit+DBG</tspan></tspan></tspan></text>
 <text class="SVGTextShape"><tspan class="TextParagraph" font-family="Liberation Sans, sans-serif" font-size="635px" font-weight="400"><tspan class="TextPosition" x="1430" y="1723"><tspan fill="rgb(0,0,0)" stroke="none" style="white-space: pre">Rabbit+MASK</tspan></tspan></tspan></text>
 <text class="SVGTextShape"><tspan class="TextParagraph" font-family="Liberation Sans, sans-serif" font-size="635px" font-weight="400"><tspan class="TextPosition" x="6340" y="1723"><tspan fill="rgb(0,0,0)" stroke="none" style="white-space: pre">Gorder+DBG</tspan></tspan></tspan></text>
 <text class="SVGTextShape"><tspan class="TextParagraph" font-family="Liberation Sans, sans-serif" font-size="635px" font-weight="400"><tspan class="TextPosition" x="10984" y="1723"><tspan fill="rgb(0,0,0)" stroke="none" style="white-space: pre">Gorder+MASK</tspan></tspan></tspan></text>
 <text class="SVGTextShape" transform="rotate(-90 1303 7457)"><tspan class="TextParagraph" font-family="Liberation Sans, sans-serif" font-size="706px" font-weight="400"><tspan class="TextPosition" x="1303" y="7457"><tspan fill="rgb(0,0,0)" stroke="none" style="white-space: pre">Cache Miss Rate</tspan></tspan></tspan></text>
</svg>