<?xml version="1.0" encoding="UTF-8"?>
<!DOCTYPE svg PUBLIC "-//W3C//DTD SVG 1.1//EN" "http://www.w3.org/Graphics/SVG/1.1/DTD/svg11.dtd">
<svg width="160mm" height="90mm" viewBox="0 0 16000 9000" version="1.1" xmlns="http://www.w3.org/2000/svg" xmlns:xlink="http://www.w3.org/1999/xlink" stroke-width="28.222" stroke-linejoin="round" xml:space="preserve">
 <path fill="rgb(255,255,255)" stroke="none" d="M 7988,9004 L -13,9004 -13,-13 15988,-13 15988,9004 7988,9004 Z"/>
 <path fill="none" stroke="rgb(179,179,179)" stroke-linejoin="round" d="M 9079,6746 L 2491,6746 2491,2045 15668,2045 15668,6746 9079,6746 Z"/>
 <path fill="none" stroke="rgb(179,179,179)" stroke-linejoin="round" d="M 15668,6745 L 2491,6745"/>
 <path fill="none" stroke="rgb(179,179,179)" stroke-linejoin="round" d="M 15668,6157 L 2491,6157"/>
 <path fill="none" stroke="rgb(179,179,179)" stroke-linejoin="round" d="M 15668,5569 L 2491,5569"/>
 <path fill="none" stroke="rgb(179,179,179)" stroke-linejoin="round" d="M 15668,4981 L 2491,4981"/>
 <path fill="none" stroke="rgb(179,179,179)" stroke-linejoin="round" d="M 15668,4395 L 2491,4395"/>
 <path fill="none" stroke="rgb(179,179,179)" stroke-linejoin="round" d="M 15668,3807 L 2491,3807"/>
 <path fill="none" stroke="rgb(179,179,179)" stroke-linejoin="round" d="M 15668,3219 L 2491,3219"/>
 <path fill="none" stroke="rgb(179,179,179)" stroke-linejoin="round" d="M 15668,2631 L 2491,2631"/>
 <path fill="none" stroke="rgb(179,179,179)" stroke-linejoin="round" d="M 15668,2044 L 2491,2044"/>
 <path fill="none" stroke="rgb(179,179,179)" stroke-linejoin="round" d="M 2491,8220 L 2491,6745"/>
 <path fill="none" stroke="rgb(179,179,179)" stroke-linejoin="round" d="M 3589,8220 L 3589,6745"/>
 <path fill="none" stroke="rgb(179,179,179)" stroke-linejoin="round" d="M 4687,8220 L 4687,6745"/>
 <path fill="none" stroke="rgb(179,179,179)" stroke-linejoin="round" d="M 5785,8220 L 5785,6745"/>
 <path fill="none" stroke="rgb(179,179,179)" stroke-linejoin="round" d="M 6883,8220 L 6883,6745"/>
 <path fill="none" stroke="rgb(179,179,179)" stroke-linejoin="round" d="M 7981,8220 L 7981,6745"/>
 <path fill="none" stroke="rgb(179,179,179)" stroke-linejoin="round" d="M 9079,8220 L 9079,6745"/>
 <path fill="none" stroke="rgb(179,179,179)" stroke-linejoin="round" d="M 10177,8220 L 10177,6745"/>
 <path fill="none" stroke="rgb(179,179,179)" stroke-linejoin="round" d="M 11275,8220 L 11275,6745"/>
 <path fill="none" stroke="rgb(179,179,179)" stroke-linejoin="round" d="M 12373,8220 L 12373,6745"/>
 <path fill="none" stroke="rgb(179,179,179)" stroke-linejoin="round" d="M 13471,8220 L 13471,6745"/>
 <path fill="none" stroke="rgb(179,179,179)" stroke-linejoin="round" d="M 14569,8220 L 14569,6745"/>
 <path fill="none" stroke="rgb(179,179,179)" stroke-linejoin="round" d="M 15668,8220 L 15668,6745"/>
 <path fill="none" stroke="rgb(179,179,179)" stroke-linejoin="round" d="M 2491,8724 L 2491,6745"/>
 <path fill="none" stroke="rgb(179,179,179)" stroke-linejoin="round" d="M 5785,8724 L 5785,6745"/>
 <path fill="none" stroke="rgb(179,179,179)" stroke-linejoin="round" d="M 9079,8724 L 9079,6745"/>
 <path fill="none" stroke="rgb(179,179,179)" stroke-linejoin="round" d="M 12373,8724 L 12373,6745"/>
 <path fill="none" stroke="rgb(179,179,179)" stroke-linejoin="round" d="M 15668,8724 L 15668,6745"/>
 <path fill="none" stroke="rgb(179,179,179)" stroke-linejoin="round" d="M 2491,6895 L 2491,6745"/>
 <path fill="none" stroke="rgb(179,179,179)" stroke-linejoin="round" d="M 2491,6895 L 2491,6745"/>
 <path fill="none" stroke="rgb(179,179,179)" stroke-linejoin="round" d="M 3589,6895 L 3589,6745"/>
 <path fill="none" stroke="rgb(179,179,179)" stroke-linejoin="round" d="M 3589,6895 L 3589,6745"/>
 <path fill="none" stroke="rgb(179,179,179)" stroke-linejoin="round" d="M 4687,6895 L 4687,6745"/>
 <path fill="none" stroke="rgb(179,179,179)" stroke-linejoin="round" d="M 4687,6895 L 4687,6745"/>
 <path fill="none" stroke="rgb(179,179,179)" stroke-linejoin="round" d="M 5785,6895 L 5785,6745"/>
 <path fill="none" stroke="rgb(179,179,179)" stroke-linejoin="round" d="M 5785,6895 L 5785,6745"/>
 <path fill="none" stroke="rgb(179,179,179)" stroke-linejoin="round" d="M 6883,6895 L 6883,6745"/>
 <path fill="none" stroke="rgb(179,179,179)" stroke-linejoin="round" d="M 6883,6895 L 6883,6745"/>
 <path fill="none" stroke="rgb(179,179,179)" stroke-linejoin="round" d="M 7981,6895 L 7981,6745"/>
 <path fill="none" stroke="rgb(179,179,179)" stroke-linejoin="round" d="M 7981,6895 L 7981,6745"/>
 <path fill="none" stroke="rgb(179,179,179)" stroke-linejoin="round" d="M 9079,6895 L 9079,6745"/>
 <path fill="none" stroke="rgb(179,179,179)" stroke-linejoin="round" d="M 9079,6895 L 9079,6745"/>
 <path fill="none" stroke="rgb(179,179,179)" stroke-linejoin="round" d="M 10177,6895 L 10177,6745"/>
 <path fill="none" stroke="rgb(179,179,179)" stroke-linejoin="round" d="M 10177,6895 L 10177,6745"/>
 <path fill="none" stroke="rgb(179,179,179)" stroke-linejoin="round" d="M 11275,6895 L 11275,6745"/>
 <path fill="none" stroke="rgb(179,179,179)" stroke-linejoin="round" d="M 11275,6895 L 11275,6745"/>
 <path fill="none" stroke="rgb(179,179,179)" stroke-linejoin="round" d="M 12373,6895 L 12373,6745"/>
 <path fill="none" stroke="rgb(179,179,179)" stroke-linejoin="round" d="M 12373,6895 L 12373,6745"/>
 <path fill="none" stroke="rgb(179,179,179)" stroke-linejoin="round" d="M 13471,6895 L 13471,6745"/>
 <path fill="none" stroke="rgb(179,179,179)" stroke-linejoin="round" d="M 13471,6895 L 13471,6745"/>
 <path fill="none" stroke="rgb(179,179,179)" stroke-linejoin="round" d="M 14569,6895 L 14569,6745"/>
 <path fill="none" stroke="rgb(179,179,179)" stroke-linejoin="round" d="M 14569,6895 L 14569,6745"/>
 <path fill="none" stroke="rgb(179,179,179)" stroke-linejoin="round" d="M 15668,6895 L 15668,6745"/>
 <path fill="none" stroke="rgb(179,179,179)" stroke-linejoin="round" d="M 15668,6895 L 15668,6745"/>
 <path fill="none" stroke="rgb(179,179,179)" stroke-linejoin="round" d="M 2491,6745 L 15668,6745"/>
 <path fill="none" stroke="rgb(179,179,179)" stroke-linejoin="round" d="M 2341,6745 L 2491,6745"/>
 <path fill="none" stroke="rgb(179,179,179)" stroke-linejoin="round" d="M 2341,6745 L 2491,6745"/>
 <path fill="none" stroke="rgb(179,179,179)" stroke-linejoin="round" d="M 2341,6157 L 2491,6157"/>
 <path fill="none" stroke="rgb(179,179,179)" stroke-linejoin="round" d="M 2341,6157 L 2491,6157"/>
 <path fill="none" stroke="rgb(179,179,179)" stroke-linejoin="round" d="M 2341,5569 L 2491,5569"/>
 <path fill="none" stroke="rgb(179,179,179)" stroke-linejoin="round" d="M 2341,5569 L 2491,5569"/>
 <path fill="none" stroke="rgb(179,179,179)" stroke-linejoin="round" d="M 2341,4981 L 2491,4981"/>
 <path fill="none" stroke="rgb(179,179,179)" stroke-linejoin="round" d="M 2341,4981 L 2491,4981"/>
 <path fill="none" stroke="rgb(179,179,179)" stroke-linejoin="round" d="M 2341,4395 L 2491,4395"/>
 <path fill="none" stroke="rgb(179,179,179)" stroke-linejoin="round" d="M 2341,4395 L 2491,4395"/>
 <path fill="none" stroke="rgb(179,179,179)" stroke-linejoin="round" d="M 2341,3807 L 2491,3807"/>
 <path fill="none" stroke="rgb(179,179,179)" stroke-linejoin="round" d="M 2341,3807 L 2491,3807"/>
 <path fill="none" stroke="rgb(179,179,179)" stroke-linejoin="round" d="M 2341,3219 L 2491,3219"/>
 <path fill="none" stroke="rgb(179,179,179)" stroke-linejoin="round" d="M 2341,3219 L 2491,3219"/>
 <path fill="none" stroke="rgb(179,179,179)" stroke-linejoin="round" d="M 2341,2631 L 2491,2631"/>
 <path fill="none" stroke="rgb(179,179,179)" stroke-linejoin="round" d="M 2341,2631 L 2491,2631"/>
 <path fill="none" stroke="rgb(179,179,179)" stroke-linejoin="round" d="M 2341,2044 L 2491,2044"/>
 <path fill="none" stroke="rgb(179,179,179)" stroke-linejoin="round" d="M 2341,2044 L 2491,2044"/>
 <path fill="none" stroke="rgb(179,179,179)" stroke-linejoin="round" d="M 2491,6745 L 2491,2044"/>
 <path fill="rgb(255,182,108)" stroke="none" d="M 14648,6745 L 14805,6745 14805,6432 14648,6432 14648,6745 Z"/>
 <path fill="none" stroke="rgb(0,0,0)" stroke-linejoin="round" d="M 14648,6745 L 14805,6745 14805,6432 14648,6432 14648,6745 Z"/>
 <path fill="rgb(255,182,108)" stroke="none" d="M 13550,6745 L 13706,6745 13706,6465 13550,6465 13550,6745 Z"/>
 <path fill="none" stroke="rgb(0,0,0)" stroke-linejoin="round" d="M 13550,6745 L 13706,6745 13706,6465 13550,6465 13550,6745 Z"/>
 <path fill="rgb(255,182,108)" stroke="none" d="M 11353,6745 L 11510,6745 11510,3796 11353,3796 11353,6745 Z"/>
 <path fill="none" stroke="rgb(0,0,0)" stroke-linejoin="round" d="M 11353,6745 L 11510,6745 11510,3796 11353,3796 11353,6745 Z"/>
 <path fill="rgb(255,182,108)" stroke="none" d="M 10255,6745 L 10412,6745 10412,3727 10255,3727 10255,6745 Z"/>
 <path fill="none" stroke="rgb(0,0,0)" stroke-linejoin="round" d="M 10255,6745 L 10412,6745 10412,3727 10255,3727 10255,6745 Z"/>
 <path fill="rgb(255,182,108)" stroke="none" d="M 9157,6745 L 9314,6745 9314,3686 9157,3686 9157,6745 Z"/>
 <path fill="none" stroke="rgb(0,0,0)" stroke-linejoin="round" d="M 9157,6745 L 9314,6745 9314,3686 9157,3686 9157,6745 Z"/>
 <path fill="rgb(255,182,108)" stroke="none" d="M 8059,6745 L 8216,6745 8216,3113 8059,3113 8059,6745 Z"/>
 <path fill="none" stroke="rgb(0,0,0)" stroke-linejoin="round" d="M 8059,6745 L 8216,6745 8216,3113 8059,3113 8059,6745 Z"/>
 <path fill="rgb(255,182,108)" stroke="none" d="M 6962,6745 L 7118,6745 7118,3093 6962,3093 6962,6745 Z"/>
 <path fill="none" stroke="rgb(0,0,0)" stroke-linejoin="round" d="M 6962,6745 L 7118,6745 7118,3093 6962,3093 6962,6745 Z"/>
 <path fill="rgb(255,182,108)" stroke="none" d="M 5863,6745 L 6020,6745 6020,3038 5863,3038 5863,6745 Z"/>
 <path fill="none" stroke="rgb(0,0,0)" stroke-linejoin="round" d="M 5863,6745 L 6020,6745 6020,3038 5863,3038 5863,6745 Z"/>
 <path fill="rgb(255,182,108)" stroke="none" d="M 4765,6745 L 4922,6745 4922,2491 4765,2491 4765,6745 Z"/>
 <path fill="none" stroke="rgb(0,0,0)" stroke-linejoin="round" d="M 4765,6745 L 4922,6745 4922,2491 4765,2491 4765,6745 Z"/>
 <path fill="rgb(255,182,108)" stroke="none" d="M 3667,6745 L 3824,6745 3824,2467 3667,2467 3667,6745 Z"/>
 <path fill="none" stroke="rgb(0,0,0)" stroke-linejoin="round" d="M 3667,6745 L 3824,6745 3824,2467 3667,2467 3667,6745 Z"/>
 <path fill="rgb(255,182,108)" stroke="none" d="M 2569,6745 L 2726,6745 2726,2469 2569,2469 2569,6745 Z"/>
 <path fill="none" stroke="rgb(0,0,0)" stroke-linejoin="round" d="M 2569,6745 L 2726,6745 2726,2469 2569,2469 2569,6745 Z"/>
 <path fill="rgb(255,219,182)" stroke="none" d="M 13706,6745 L 13863,6745 13863,6569 13706,6569 13706,6745 Z"/>
 <path fill="none" stroke="rgb(0,0,0)" stroke-linejoin="round" d="M 13706,6745 L 13863,6745 13863,6569 13706,6569 13706,6745 Z"/>
 <path fill="rgb(255,219,182)" stroke="none" d="M 12608,6745 L 12765,6745 12765,6572 12608,6572 12608,6745 Z"/>
 <path fill="none" stroke="rgb(0,0,0)" stroke-linejoin="round" d="M 12608,6745 L 12765,6745 12765,6572 12608,6572 12608,6745 Z"/>
 <path fill="rgb(255,219,182)" stroke="none" d="M 11510,6745 L 11667,6745 11667,4595 11510,4595 11510,6745 Z"/>
 <path fill="none" stroke="rgb(0,0,0)" stroke-linejoin="round" d="M 11510,6745 L 11667,6745 11667,4595 11510,4595 11510,6745 Z"/>
 <path fill="rgb(255,219,182)" stroke="none" d="M 10412,6745 L 10569,6745 10569,4723 10412,4723 10412,6745 Z"/>
 <path fill="none" stroke="rgb(0,0,0)" stroke-linejoin="round" d="M 10412,6745 L 10569,6745 10569,4723 10412,4723 10412,6745 Z"/>
 <path fill="rgb(255,219,182)" stroke="none" d="M 9314,6745 L 9471,6745 9471,4423 9314,4423 9314,6745 Z"/>
 <path fill="none" stroke="rgb(0,0,0)" stroke-linejoin="round" d="M 9314,6745 L 9471,6745 9471,4423 9314,4423 9314,6745 Z"/>
 <path fill="rgb(255,219,182)" stroke="none" d="M 8216,6745 L 8373,6745 8373,5136 8216,5136 8216,6745 Z"/>
 <path fill="none" stroke="rgb(0,0,0)" stroke-linejoin="round" d="M 8216,6745 L 8373,6745 8373,5136 8216,5136 8216,6745 Z"/>
 <path fill="rgb(255,219,182)" stroke="none" d="M 7118,6745 L 7275,6745 7275,5335 7118,5335 7118,6745 Z"/>
 <path fill="none" stroke="rgb(0,0,0)" stroke-linejoin="round" d="M 7118,6745 L 7275,6745 7275,5335 7118,5335 7118,6745 Z"/>
 <path fill="rgb(255,219,182)" stroke="none" d="M 6020,6745 L 6177,6745 6177,5115 6020,5115 6020,6745 Z"/>
 <path fill="none" stroke="rgb(0,0,0)" stroke-linejoin="round" d="M 6020,6745 L 6177,6745 6177,5115 6020,5115 6020,6745 Z"/>
 <path fill="rgb(255,219,182)" stroke="none" d="M 4922,6745 L 5079,6745 5079,2575 4922,2575 4922,6745 Z"/>
 <path fill="none" stroke="rgb(0,0,0)" stroke-linejoin="round" d="M 4922,6745 L 5079,6745 5079,2575 4922,2575 4922,6745 Z"/>
 <path fill="rgb(255,219,182)" stroke="none" d="M 3824,6745 L 3981,6745 3981,2556 3824,2556 3824,6745 Z"/>
 <path fill="none" stroke="rgb(0,0,0)" stroke-linejoin="round" d="M 3824,6745 L 3981,6745 3981,2556 3824,2556 3824,6745 Z"/>
 <path fill="rgb(255,219,182)" stroke="none" d="M 2726,6745 L 2883,6745 2883,2544 2726,2544 2726,6745 Z"/>
 <path fill="none" stroke="rgb(0,0,0)" stroke-linejoin="round" d="M 2726,6745 L 2883,6745 2883,2544 2726,2544 2726,6745 Z"/>
 <path fill="rgb(89,131,176)" stroke="none" d="M 13863,6745 L 14020,6745 14020,6621 13863,6621 13863,6745 Z"/>
 <path fill="none" stroke="rgb(0,0,0)" stroke-linejoin="round" d="M 13863,6745 L 14020,6745 14020,6621 13863,6621 13863,6745 Z"/>
 <path fill="rgb(89,131,176)" stroke="none" d="M 12765,6745 L 12922,6745 12922,6627 12765,6627 12765,6745 Z"/>
 <path fill="none" stroke="rgb(0,0,0)" stroke-linejoin="round" d="M 12765,6745 L 12922,6745 12922,6627 12765,6627 12765,6745 Z"/>
 <path fill="rgb(89,131,176)" stroke="none" d="M 11667,6745 L 11824,6745 11824,6511 11667,6511 11667,6745 Z"/>
 <path fill="none" stroke="rgb(0,0,0)" stroke-linejoin="round" d="M 11667,6745 L 11824,6745 11824,6511 11667,6511 11667,6745 Z"/>
 <path fill="rgb(89,131,176)" stroke="none" d="M 10569,6745 L 10726,6745 10726,6489 10569,6489 10569,6745 Z"/>
 <path fill="none" stroke="rgb(0,0,0)" stroke-linejoin="round" d="M 10569,6745 L 10726,6745 10726,6489 10569,6489 10569,6745 Z"/>
 <path fill="rgb(89,131,176)" stroke="none" d="M 9471,6745 L 9628,6745 9628,6499 9471,6499 9471,6745 Z"/>
 <path fill="none" stroke="rgb(0,0,0)" stroke-linejoin="round" d="M 9471,6745 L 9628,6745 9628,6499 9471,6499 9471,6745 Z"/>
 <path fill="rgb(89,131,176)" stroke="none" d="M 8373,6745 L 8529,6745 8529,6703 8373,6703 8373,6745 Z"/>
 <path fill="none" stroke="rgb(0,0,0)" stroke-linejoin="round" d="M 8373,6745 L 8529,6745 8529,6703 8373,6703 8373,6745 Z"/>
 <path fill="rgb(89,131,176)" stroke="none" d="M 7275,6745 L 7432,6745 7432,6707 7275,6707 7275,6745 Z"/>
 <path fill="none" stroke="rgb(0,0,0)" stroke-linejoin="round" d="M 7275,6745 L 7432,6745 7432,6707 7275,6707 7275,6745 Z"/>
 <path fill="rgb(89,131,176)" stroke="none" d="M 3981,6745 L 4138,6745 4138,6574 3981,6574 3981,6745 Z"/>
 <path fill="none" stroke="rgb(0,0,0)" stroke-linejoin="round" d="M 3981,6745 L 4138,6745 4138,6574 3981,6574 3981,6745 Z"/>
 <path fill="rgb(89,131,176)" stroke="none" d="M 2883,6745 L 3040,6745 3040,6574 2883,6574 2883,6745 Z"/>
 <path fill="none" stroke="rgb(0,0,0)" stroke-linejoin="round" d="M 2883,6745 L 3040,6745 3040,6574 2883,6574 2883,6745 Z"/>
 <path fill="rgb(114,159,207)" stroke="none" d="M 15118,6745 L 15275,6745 15275,6619 15118,6619 15118,6745 Z"/>
 <path fill="none" stroke="rgb(0,0,0)" stroke-linejoin="round" d="M 15118,6745 L 15275,6745 15275,6619 15118,6619 15118,6745 Z"/>
 <path fill="rgb(114,159,207)" stroke="none" d="M 14020,6745 L 14177,6745 14177,6623 14020,6623 14020,6745 Z"/>
 <path fill="none" stroke="rgb(0,0,0)" stroke-linejoin="round" d="M 14020,6745 L 14177,6745 14177,6623 14020,6623 14020,6745 Z"/>
 <path fill="rgb(114,159,207)" stroke="none" d="M 12922,6745 L 13079,6745 13079,6623 12922,6623 12922,6745 Z"/>
 <path fill="none" stroke="rgb(0,0,0)" stroke-linejoin="round" d="M 12922,6745 L 13079,6745 13079,6623 12922,6623 12922,6745 Z"/>
 <path fill="rgb(114,159,207)" stroke="none" d="M 11824,6745 L 11981,6745 11981,6202 11824,6202 11824,6745 Z"/>
 <path fill="none" stroke="rgb(0,0,0)" stroke-linejoin="round" d="M 11824,6745 L 11981,6745 11981,6202 11824,6202 11824,6745 Z"/>
 <path fill="rgb(114,159,207)" stroke="none" d="M 10726,6745 L 10883,6745 10883,6175 10726,6175 10726,6745 Z"/>
 <path fill="none" stroke="rgb(0,0,0)" stroke-linejoin="round" d="M 10726,6745 L 10883,6745 10883,6175 10726,6175 10726,6745 Z"/>
 <path fill="rgb(114,159,207)" stroke="none" d="M 9628,6745 L 9784,6745 9784,6181 9628,6181 9628,6745 Z"/>
 <path fill="none" stroke="rgb(0,0,0)" stroke-linejoin="round" d="M 9628,6745 L 9784,6745 9784,6181 9628,6181 9628,6745 Z"/>
 <path fill="rgb(114,159,207)" stroke="none" d="M 8529,6745 L 8686,6745 8686,6581 8529,6581 8529,6745 Z"/>
 <path fill="none" stroke="rgb(0,0,0)" stroke-linejoin="round" d="M 8529,6745 L 8686,6745 8686,6581 8529,6581 8529,6745 Z"/>
 <path fill="rgb(114,159,207)" stroke="none" d="M 7432,6745 L 7589,6745 7589,6640 7432,6640 7432,6745 Z"/>
 <path fill="none" stroke="rgb(0,0,0)" stroke-linejoin="round" d="M 7432,6745 L 7589,6745 7589,6640 7432,6640 7432,6745 Z"/>
 <path fill="rgb(114,159,207)" stroke="none" d="M 6334,6745 L 6491,6745 6491,6642 6334,6642 6334,6745 Z"/>
 <path fill="none" stroke="rgb(0,0,0)" stroke-linejoin="round" d="M 6334,6745 L 6491,6745 6491,6642 6334,6642 6334,6745 Z"/>
 <path fill="rgb(114,159,207)" stroke="none" d="M 5236,6745 L 5393,6745 5393,6500 5236,6500 5236,6745 Z"/>
 <path fill="none" stroke="rgb(0,0,0)" stroke-linejoin="round" d="M 5236,6745 L 5393,6745 5393,6500 5236,6500 5236,6745 Z"/>
 <path fill="rgb(114,159,207)" stroke="none" d="M 4138,6745 L 4295,6745 4295,6497 4138,6497 4138,6745 Z"/>
 <path fill="none" stroke="rgb(0,0,0)" stroke-linejoin="round" d="M 4138,6745 L 4295,6745 4295,6497 4138,6497 4138,6745 Z"/>
 <path fill="rgb(114,159,207)" stroke="none" d="M 3040,6745 L 3196,6745 3196,6502 3040,6502 3040,6745 Z"/>
 <path fill="none" stroke="rgb(0,0,0)" stroke-linejoin="round" d="M 3040,6745 L 3196,6745 3196,6502 3040,6502 3040,6745 Z"/>
 <path fill="rgb(180,199,220)" stroke="none" d="M 15275,6745 L 15432,6745 15432,6622 15275,6622 15275,6745 Z"/>
 <path fill="none" stroke="rgb(0,0,0)" stroke-linejoin="round" d="M 15275,6745 L 15432,6745 15432,6622 15275,6622 15275,6745 Z"/>
 <path fill="rgb(180,199,220)" stroke="none" d="M 14177,6745 L 14334,6745 14334,6612 14177,6612 14177,6745 Z"/>
 <path fill="none" stroke="rgb(0,0,0)" stroke-linejoin="round" d="M 14177,6745 L 14334,6745 14334,6612 14177,6612 14177,6745 Z"/>
 <path fill="rgb(180,199,220)" stroke="none" d="M 13079,6745 L 13236,6745 13236,6613 13079,6613 13079,6745 Z"/>
 <path fill="none" stroke="rgb(0,0,0)" stroke-linejoin="round" d="M 13079,6745 L 13236,6745 13236,6613 13079,6613 13079,6745 Z"/>
 <path fill="rgb(180,199,220)" stroke="none" d="M 11981,6745 L 12138,6745 12138,6393 11981,6393 11981,6745 Z"/>
 <path fill="none" stroke="rgb(0,0,0)" stroke-linejoin="round" d="M 11981,6745 L 12138,6745 12138,6393 11981,6393 11981,6745 Z"/>
 <path fill="rgb(180,199,220)" stroke="none" d="M 10883,6745 L 11040,6745 11040,6368 10883,6368 10883,6745 Z"/>
 <path fill="none" stroke="rgb(0,0,0)" stroke-linejoin="round" d="M 10883,6745 L 11040,6745 11040,6368 10883,6368 10883,6745 Z"/>
 <path fill="rgb(180,199,220)" stroke="none" d="M 9784,6745 L 9941,6745 9941,6370 9784,6370 9784,6745 Z"/>
 <path fill="none" stroke="rgb(0,0,0)" stroke-linejoin="round" d="M 9784,6745 L 9941,6745 9941,6370 9784,6370 9784,6745 Z"/>
 <path fill="rgb(180,199,220)" stroke="none" d="M 8686,6745 L 8843,6745 8843,6645 8686,6645 8686,6745 Z"/>
 <path fill="none" stroke="rgb(0,0,0)" stroke-linejoin="round" d="M 8686,6745 L 8843,6745 8843,6645 8686,6645 8686,6745 Z"/>
 <path fill="rgb(180,199,220)" stroke="none" d="M 7589,6745 L 7746,6745 7746,6666 7589,6666 7589,6745 Z"/>
 <path fill="none" stroke="rgb(0,0,0)" stroke-linejoin="round" d="M 7589,6745 L 7746,6745 7746,6666 7589,6666 7589,6745 Z"/>
 <path fill="rgb(180,199,220)" stroke="none" d="M 6491,6745 L 6648,6745 6648,6666 6491,6666 6491,6745 Z"/>
 <path fill="none" stroke="rgb(0,0,0)" stroke-linejoin="round" d="M 6491,6745 L 6648,6745 6648,6666 6491,6666 6491,6745 Z"/>
 <path fill="rgb(180,199,220)" stroke="none" d="M 5393,6745 L 5550,6745 5550,6287 5393,6287 5393,6745 Z"/>
 <path fill="none" stroke="rgb(0,0,0)" stroke-linejoin="round" d="M 5393,6745 L 5550,6745 5550,6287 5393,6287 5393,6745 Z"/>
 <path fill="rgb(180,199,220)" stroke="none" d="M 3196,6745 L 3353,6745 3353,6284 3196,6284 3196,6745 Z"/>
 <path fill="none" stroke="rgb(0,0,0)" stroke-linejoin="round" d="M 3196,6745 L 3353,6745 3353,6284 3196,6284 3196,6745 Z"/>
 <path fill="rgb(222,230,239)" stroke="none" d="M 15432,6745 L 15589,6745 15589,6628 15432,6628 15432,6745 Z"/>
 <path fill="none" stroke="rgb(0,0,0)" stroke-linejoin="round" d="M 15432,6745 L 15589,6745 15589,6628 15432,6628 15432,6745 Z"/>
 <path fill="rgb(222,230,239)" stroke="none" d="M 14334,6745 L 14491,6745 14491,6631 14334,6631 14334,6745 Z"/>
 <path fill="none" stroke="rgb(0,0,0)" stroke-linejoin="round" d="M 14334,6745 L 14491,6745 14491,6631 14334,6631 14334,6745 Z"/>
 <path fill="rgb(222,230,239)" stroke="none" d="M 12138,6745 L 12295,6745 12295,6040 12138,6040 12138,6745 Z"/>
 <path fill="none" stroke="rgb(0,0,0)" stroke-linejoin="round" d="M 12138,6745 L 12295,6745 12295,6040 12138,6040 12138,6745 Z"/>
 <path fill="rgb(222,230,239)" stroke="none" d="M 11040,6745 L 11196,6745 11196,6013 11040,6013 11040,6745 Z"/>
 <path fill="none" stroke="rgb(0,0,0)" stroke-linejoin="round" d="M 11040,6745 L 11196,6745 11196,6013 11040,6013 11040,6745 Z"/>
 <path fill="rgb(222,230,239)" stroke="none" d="M 9941,6745 L 10098,6745 10098,5995 9941,5995 9941,6745 Z"/>
 <path fill="none" stroke="rgb(0,0,0)" stroke-linejoin="round" d="M 9941,6745 L 10098,6745 10098,5995 9941,5995 9941,6745 Z"/>
 <path fill="rgb(222,230,239)" stroke="none" d="M 7746,6745 L 7903,6745 7903,6604 7746,6604 7746,6745 Z"/>
 <path fill="none" stroke="rgb(0,0,0)" stroke-linejoin="round" d="M 7746,6745 L 7903,6745 7903,6604 7746,6604 7746,6745 Z"/>
 <path fill="rgb(222,230,239)" stroke="none" d="M 6648,6745 L 6805,6745 6805,6606 6648,6606 6648,6745 Z"/>
 <path fill="none" stroke="rgb(0,0,0)" stroke-linejoin="round" d="M 6648,6745 L 6805,6745 6805,6606 6648,6606 6648,6745 Z"/>
 <path fill="rgb(222,230,239)" stroke="none" d="M 5550,6745 L 5707,6745 5707,6178 5550,6178 5550,6745 Z"/>
 <path fill="none" stroke="rgb(0,0,0)" stroke-linejoin="round" d="M 5550,6745 L 5707,6745 5707,6178 5550,6178 5550,6745 Z"/>
 <path fill="rgb(222,230,239)" stroke="none" d="M 4452,6745 L 4608,6745 4608,6169 4452,6169 4452,6745 Z"/>
 <path fill="none" stroke="rgb(0,0,0)" stroke-linejoin="round" d="M 4452,6745 L 4608,6745 4608,6169 4452,6169 4452,6745 Z"/>
 <text class="SVGTextShape" transform="rotate(-90 3185 8160)"><tspan class="TextParagraph" font-family="Liberation Sans, sans-serif" font-size="459px" font-weight="400"><tspan class="TextPosition" x="3185" y="8160"><tspan fill="rgb(0,0,0)" stroke="none" style="white-space: pre">PLRU</tspan></tspan></tspan></text>
 <text class="SVGTextShape" transform="rotate(-90 4283 8319)"><tspan class="TextParagraph" font-family="Liberation Sans, sans-serif" font-size="459px" font-weight="400"><tspan class="TextPosition" x="4283" y="8319"><tspan fill="rgb(0,0,0)" stroke="none" style="white-space: pre">SSRIP</tspan></tspan></tspan></text>
 <text class="SVGTextShape" transform="rotate(-90 5381 8187)"><tspan class="TextParagraph" font-family="Liberation Sans, sans-serif" font-size="459px" font-weight="400"><tspan class="TextPosition" x="5381" y="8187"><tspan fill="rgb(0,0,0)" stroke="none" style="white-space: pre">POPT</tspan></tspan></tspan></text>
 <text class="SVGTextShape" transform="rotate(-90 6479 8160)"><tspan class="TextParagraph" font-family="Liberation Sans, sans-serif" font-size="459px" font-weight="400"><tspan class="TextPosition" x="6479" y="8160"><tspan fill="rgb(0,0,0)" stroke="none" style="white-space: pre">PLRU</tspan></tspan></tspan></text>
 <text class="SVGTextShape" transform="rotate(-90 7577 8319)"><tspan class="TextParagraph" font-family="Liberation Sans, sans-serif" font-size="459px" font-weight="400"><tspan class="TextPosition" x="7577" y="8319"><tspan fill="rgb(0,0,0)" stroke="none" style="white-space: pre">SSRIP</tspan></tspan></tspan></text>
 <text class="SVGTextShape" transform="rotate(-90 8674 8187)"><tspan class="TextParagraph" font-family="Liberation Sans, sans-serif" font-size="459px" font-weight="400"><tspan class="TextPosition" x="8674" y="8187"><tspan fill="rgb(0,0,0)" stroke="none" style="white-space: pre">POPT</tspan></tspan></tspan></text>
 <text class="SVGTextShape" transform="rotate(-90 9773 8160)"><tspan class="TextParagraph" font-family="Liberation Sans, sans-serif" font-size="459px" font-weight="400"><tspan class="TextPosition" x="9773" y="8160"><tspan fill="rgb(0,0,0)" stroke="none" style="white-space: pre">PLRU</tspan></tspan></tspan></text>
 <text class="SVGTextShape" transform="rotate(-90 10871 8319)"><tspan class="TextParagraph" font-family="Liberation Sans, sans-serif" font-size="459px" font-weight="400"><tspan class="TextPosition" x="10871" y="8319"><tspan fill="rgb(0,0,0)" stroke="none" style="white-space: pre">SSRIP</tspan></tspan></tspan></text>
 <text class="SVGTextShape" transform="rotate(-90 11969 8187)"><tspan class="TextParagraph" font-family="Liberation Sans, sans-serif" font-size="459px" font-weight="400"><tspan class="TextPosition" x="11969" y="8187"><tspan fill="rgb(0,0,0)" stroke="none" style="white-space: pre">POPT</tspan></tspan></tspan></text>
 <text class="SVGTextShape" transform="rotate(-90 13067 8160)"><tspan class="TextParagraph" font-family="Liberation Sans, sans-serif" font-size="459px" font-weight="400"><tspan class="TextPosition" x="13067" y="8160"><tspan fill="rgb(0,0,0)" stroke="none" style="white-space: pre">PLRU</tspan></tspan></tspan></text>
 <text class="SVGTextShape" transform="rotate(-90 14165 8319)"><tspan class="TextParagraph" font-family="Liberation Sans, sans-serif" font-size="459px" font-weight="400"><tspan class="TextPosition" x="14165" y="8319"><tspan fill="rgb(0,0,0)" stroke="none" style="white-space: pre">SSRIP</tspan></tspan></tspan></text>
 <text class="SVGTextShape" transform="rotate(-90 15263 8187)"><tspan class="TextParagraph" font-family="Liberation Sans, sans-serif" font-size="459px" font-weight="400"><tspan class="TextPosition" x="15263" y="8187"><tspan fill="rgb(0,0,0)" stroke="none" style="white-space: pre">POPT</tspan></tspan></tspan></text>
 <text class="SVGTextShape"><tspan class="TextParagraph" font-family="Liberation Sans, sans-serif" font-size="459px" font-weight="400"><tspan class="TextPosition" x="3357" y="8717"><tspan fill="rgb(0,0,0)" stroke="none" style="white-space: pre">amazon</tspan></tspan></tspan></text>
 <text class="SVGTextShape"><tspan class="TextParagraph" font-family="Liberation Sans, sans-serif" font-size="459px" font-weight="400"><tspan class="TextPosition" x="7114" y="8717"><tspan fill="rgb(0,0,0)" stroke="none" style="white-space: pre">cnr</tspan></tspan></tspan></text>
 <text class="SVGTextShape"><tspan class="TextParagraph" font-family="Liberation Sans, sans-serif" font-size="459px" font-weight="400"><tspan class="TextPosition" x="10317" y="8717"><tspan fill="rgb(0,0,0)" stroke="none" style="white-space: pre">dblp</tspan></tspan></tspan></text>
 <text class="SVGTextShape"><tspan class="TextParagraph" font-family="Liberation Sans, sans-serif" font-size="459px" font-weight="400"><tspan class="TextPosition" x="13465" y="8717"><tspan fill="rgb(0,0,0)" stroke="none" style="white-space: pre">enron</tspan></tspan></tspan></text>
 <text class="SVGTextShape"><tspan class="TextParagraph" font-family="Liberation Sans, sans-serif" font-size="494px" font-weight="400"><tspan class="TextPosition" x="1950" y="6918"><tspan fill="rgb(0,0,0)" stroke="none" style="white-space: pre">0</tspan></tspan></tspan></text>
 <text class="SVGTextShape"><tspan class="TextParagraph" font-family="Liberation Sans, sans-serif" font-size="494px" font-weight="400"><tspan class="TextPosition" x="1659" y="6330"><tspan fill="rgb(0,0,0)" stroke="none" style="white-space: pre">10</tspan></tspan></tspan></text>
 <text class="SVGTextShape"><tspan class="TextParagraph" font-family="Liberation Sans, sans-serif" font-size="494px" font-weight="400"><tspan class="TextPosition" x="1659" y="5742"><tspan fill="rgb(0,0,0)" stroke="none" style="white-space: pre">20</tspan></tspan></tspan></text>
 <text class="SVGTextShape"><tspan class="TextParagraph" font-family="Liberation Sans, sans-serif" font-size="494px" font-weight="400"><tspan class="TextPosition" x="1659" y="5154"><tspan fill="rgb(0,0,0)" stroke="none" style="white-space: pre">30</tspan></tspan></tspan></text>
 <text class="SVGTextShape"><tspan class="TextParagraph" font-family="Liberation Sans, sans-serif" font-size="494px" font-weight="400"><tspan class="TextPosition" x="1659" y="4567"><tspan fill="rgb(0,0,0)" stroke="none" style="white-space: pre">40</tspan></tspan></tspan></text>
 <text class="SVGTextShape"><tspan class="TextParagraph" font-family="Liberation Sans, sans-serif" font-size="494px" font-weight="400"><tspan class="TextPosition" x="1659" y="3979"><tspan fill="rgb(0,0,0)" stroke="none" style="white-space: pre">50</tspan></tspan></tspan></text>
 <text class="SVGTextShape"><tspan class="TextParagraph" font-family="Liberation Sans, sans-serif" font-size="494px" font-weight="400"><tspan class="TextPosition" x="1659" y="3391"><tspan fill="rgb(0,0,0)" stroke="none" style="white-space: pre">60</tspan></tspan></tspan></text>
 <text class="SVGTextShape"><tspan class="TextParagraph" font-family="Liberation Sans, sans-serif" font-size="494px" font-weight="400"><tspan class="TextPosition" x="1659" y="2803"><tspan fill="rgb(0,0,0)" stroke="none" style="white-space: pre">70</tspan></tspan></tspan></text>
 <text class="SVGTextShape"><tspan class="TextParagraph" font-family="Liberation Sans, sans-serif" font-size="494px" font-weight="400"><tspan class="TextPosition" x="1659" y="2216"><tspan fill="rgb(0,0,0)" stroke="none" style="white-space: pre">80</tspan></tspan></tspan></text>
 <path fill="rgb(255,182,108)" stroke="none" d="M 3471,698 L 3323,698 3323,402 3619,402 3619,698 3471,698 Z"/>
 <path fill="none" stroke="rgb(0,0,0)" stroke-linejoin="round" d="M 3471,698 L 3323,698 3323,402 3619,402 3619,698 3471,698 Z"/>
 <path fill="rgb(255,219,182)" stroke="none" d="M 7086,698 L 6938,698 6938,402 7234,402 7234,698 7086,698 Z"/>
 <path fill="none" stroke="rgb(0,0,0)" stroke-linejoin="round" d="M 7086,698 L 6938,698 6938,402 7234,402 7234,698 7086,698 Z"/>
 <path fill="rgb(89,131,176)" stroke="none" d="M 9404,698 L 9256,698 9256,402 9552,402 9552,698 9404,698 Z"/>
 <path fill="none" stroke="rgb(0,0,0)" stroke-linejoin="round" d="M 9404,698 L 9256,698 9256,402 9552,402 9552,698 9404,698 Z"/>
 <path fill="rgb(114,159,207)" stroke="none" d="M 3471,1355 L 3323,1355 3323,1059 3619,1059 3619,1355 3471,1355 Z"/>
 <path fill="none" stroke="rgb(0,0,0)" stroke-linejoin="round" d="M 3471,1355 L 3323,1355 3323,1059 3619,1059 3619,1355 3471,1355 Z"/>
 <path fill="rgb(180,199,220)" stroke="none" d="M 7086,1355 L 6938,1355 6938,1059 7234,1059 7234,1355 7086,1355 Z"/>
 <path fill="none" stroke="rgb(0,0,0)" stroke-linejoin="round" d="M 7086,1355 L 6938,1355 6938,1059 7234,1059 7234,1355 7086,1355 Z"/>
 <path fill="rgb(222,230,239)" stroke="none" d="M 9404,1355 L 9256,1355 9256,1059 9552,1059 9552,1355 9404,1355 Z"/>
 <path fill="none" stroke="rgb(0,0,0)" stroke-linejoin="round" d="M 9404,1355 L 9256,1355 9256,1059 9552,1059 9552,1355 9404,1355 Z"/>
 <text class="SVGTextShape"><tspan class="TextParagraph" font-family="Liberation Sans, sans-serif" font-size="494px" font-weight="400"><tspan class="TextPosition" x="3727" y="722"><tspan fill="rgb(0,0,0)" stroke="none" style="white-space: pre">Rand-Order</tspan></tspan></tspan></text>
 <text class="SVGTextShape"><tspan class="TextParagraph" font-family="Liberation Sans, sans-serif" font-size="494px" font-weight="400"><tspan class="TextPosition" x="7342" y="722"><tspan fill="rgb(0,0,0)" stroke="none" style="white-space: pre">DBG</tspan></tspan></tspan></text>
 <text class="SVGTextShape"><tspan class="TextParagraph" font-family="Liberation Sans, sans-serif" font-size="494px" font-weight="400"><tspan class="TextPosition" x="9660" y="722"><tspan fill="rgb(0,0,0)" stroke="none" style="white-space: pre">Rabbit</tspan></tspan></tspan></text>
 <text class="SVGTextShape"><tspan class="TextParagraph" font-family="Liberation Sans, sans-serif" font-size="494px" font-weight="400"><tspan class="TextPosition" x="3727" y="1379"><tspan fill="rgb(0,0,0)" stroke="none" style="white-space: pre">Rabbit+DBG</tspan></tspan></tspan></text>
 <text class="SVGTextShape"><tspan class="TextParagraph" font-family="Liberation Sans, sans-serif" font-size="494px" font-weight="400"><tspan class="TextPosition" x="7342" y="1379"><tspan fill="rgb(0,0,0)" stroke="none" style="white-space: pre">Gorder</tspan></tspan></tspan></text>
 <text class="SVGTextShape"><tspan class="TextParagraph" font-family="Liberation Sans, sans-serif" font-size="494px" font-weight="400"><tspan class="TextPosition" x="9660" y="1379"><tspan fill="rgb(0,0,0)" stroke="none" style="white-space: pre">Gorder+DBG</tspan></tspan></tspan></text>
 <text class="SVGTextShape" transform="rotate(-90 1073 7305)"><tspan class="TextParagraph" font-family="Liberation Sans, sans-serif" font-size="529px" font-weight="400"><tspan class="TextPosition" x="1073" y="7305"><tspan fill="rgb(0,0,0)" stroke="none" style="white-space: pre">Cache Miss Rate</tspan></tspan></tspan></text>
</svg>